<?xml version="1.0" encoding="UTF-8" standalone="no"?>
<!-- Created with Inkscape (http://www.inkscape.org/) -->

<svg
   width="60.693726mm"
   height="10.905801mm"
   viewBox="0 0 78.901843 14.17754"
   version="1.1"
   id="svg5"
   inkscape:version="1.4 (1:1.4+202410161351+e7c3feb100)"
   sodipodi:docname="logo-leaderbot-dark.svg"
   inkscape:export-filename="/home/sia/logo-leaderbot-dark.png"
   inkscape:export-xdpi="200"
   inkscape:export-ydpi="200"
   xmlns:inkscape="http://www.inkscape.org/namespaces/inkscape"
   xmlns:sodipodi="http://sodipodi.sourceforge.net/DTD/sodipodi-0.dtd"
   xmlns="http://www.w3.org/2000/svg"
   xmlns:svg="http://www.w3.org/2000/svg">
  <sodipodi:namedview
     id="namedview7"
     pagecolor="#ffffff"
     bordercolor="#666666"
     borderopacity="1.0"
     inkscape:pageshadow="2"
     inkscape:pageopacity="0.0"
     inkscape:pagecheckerboard="0"
     inkscape:document-units="mm"
     showgrid="false"
     fit-margin-top="0"
     fit-margin-left="0"
     fit-margin-right="0"
     fit-margin-bottom="0"
     inkscape:zoom="2.4302468"
     inkscape:cx="138.4633"
     inkscape:cy="35.798833"
     inkscape:window-width="1920"
     inkscape:window-height="1006"
     inkscape:window-x="0"
     inkscape:window-y="25"
     inkscape:window-maximized="1"
     inkscape:current-layer="layer1"
     scale-x="1.3"
     inkscape:snap-global="false"
     inkscape:showpageshadow="2"
     inkscape:deskcolor="#d1d1d1" />
  <defs
     id="defs2" />
  <g
     inkscape:label="Layer 1"
     inkscape:groupmode="layer"
     id="layer1"
     transform="translate(-44.689404,-248.39966)">
    <path
       id="text5148-3"
       style="font-style:normal;font-weight:normal;font-size:13.7583px;line-height:1.25;font-family:sans-serif;fill:#e9e9e9;fill-opacity:1;stroke:none;stroke-width:0.263283"
       d="m 95.39636,251.6951 c -0.35746,0 -0.704377,0.0411 -1.041819,0.12547 -0.332628,0.0805 -0.650806,0.19542 -0.95543,0.34248 -0.304083,0.14331 -0.594016,0.31465 -0.870068,0.51731 a 0.10131692,0.10131692 0 0 0 0,0.002 c -0.20922,0.15557 -0.39698,0.33284 -0.583129,0.51114 v -1.21717 a 0.10131692,0.10131692 0 0 0 -0.101304,-0.10131 h -0.643295 a 0.10131692,0.10131692 0 0 0 -0.1013,0.10131 v 7.06544 a 0.10131692,0.10131692 0 0 0 0.1013,0.10182 h 0.643295 a 0.10131692,0.10131692 0 0 0 0.101304,-0.10182 v -4.86456 c 0.189671,-0.22602 0.398555,-0.44134 0.632495,-0.64278 a 0.10131692,0.10131692 0 0 0 0.0015,0 c 0.24173,-0.21152 0.501493,-0.39724 0.783164,-0.55485 0.283961,-0.15701 0.590573,-0.28015 0.919434,-0.37076 0.329659,-0.0932 0.683195,-0.13883 1.058787,-0.13883 0.273398,0 0.494113,0.0171 0.657694,0.0524 a 0.10131692,0.10131692 0 0 0 0.0015,7.6e-4 c 0.175749,0.0338 0.311282,0.067 0.405208,0.0962 a 0.10131692,0.10131692 0 0 0 0.131642,-0.0972 v -0.6325 a 0.10131692,0.10131692 0 0 0 -0.08382,-0.10027 c -0.07673,-0.0139 -0.150996,-0.0256 -0.224202,-0.036 -0.07298,-0.0104 -0.151477,-0.0212 -0.236544,-0.0282 l 0.0046,0.002 c -0.08233,-0.0107 -0.172958,-0.0176 -0.268938,-0.021 h -0.0046 c -0.09786,-0.007 -0.207196,-0.0103 -0.327561,-0.0103 z M 66.0506,251.746 c -0.612074,0 -1.193552,0.0478 -1.741678,0.14502 -0.540512,0.093 -1.050166,0.20568 -1.529304,0.33321 a 0.10131692,0.10131692 0 0 0 -0.0761,0.0972 v 0.75026 a 0.10131692,0.10131692 0 0 0 0.13884,0.0946 c 0.228711,-0.0888 0.455307,-0.17304 0.680319,-0.25146 0.222513,-0.0775 0.457534,-0.144 0.701403,-0.20158 0.242493,-0.0606 0.504127,-0.10965 0.784706,-0.14346 0.279551,-0.0337 0.591331,-0.0494 0.934346,-0.0494 0.253991,0 0.505948,0.0108 0.756424,0.0344 a 0.10131692,0.10131692 0 0 0 0.0015,7.7e-4 c 0.252888,0.0202 0.490195,0.0546 0.714772,0.10489 0.227359,0.0501 0.438515,0.1176 0.630954,0.20055 a 0.10131692,0.10131692 0 0 0 0.0015,7.7e-4 c 0.189867,0.0786 0.35289,0.17684 0.491599,0.29619 a 0.10131692,0.10131692 0 0 0 0.0015,0.002 c 0.137431,0.11505 0.242386,0.24866 0.318305,0.40366 0.07446,0.15202 0.112101,0.32986 0.112101,0.53685 v 0.44532 c -0.626468,0.0368 -1.230209,0.0823 -1.801328,0.13781 -0.598335,0.055 -1.156069,0.12693 -1.672772,0.21649 -0.517148,0.0863 -0.988685,0.19314 -1.411546,0.32139 -0.420912,0.12534 -0.784249,0.2807 -1.088099,0.46795 -0.304831,0.18449 -0.5445,0.40664 -0.714772,0.66386 -0.168895,0.25702 -0.252484,0.55586 -0.252484,0.88806 0,0.33316 0.07154,0.63267 0.218031,0.89269 a 0.10131692,0.10131692 0 0 0 0,0.002 c 0.145499,0.25462 0.353522,0.46897 0.619126,0.64125 a 0.10131692,0.10131692 0 0 0 0.0015,0 c 0.265758,0.16878 0.585783,0.29366 0.958001,0.37795 0.375514,0.0842 0.796387,0.12753 1.261906,0.12753 0.357444,0 0.720596,-0.0239 1.091184,-0.0689 0.370378,-0.045 0.730787,-0.10809 1.080901,-0.19129 0.353186,-0.0831 0.687255,-0.1816 1.003251,-0.29619 0.263758,-0.0946 0.489298,-0.20147 0.707059,-0.31111 v 0.62633 a 0.10131692,0.10131692 0 0 0 0.101816,0.10182 h 0.638153 a 0.10131692,0.10131692 0 0 0 0.101816,-0.10182 v -4.79257 c 0,-0.44996 -0.09862,-0.83884 -0.298764,-1.15906 h 0.0015 c -0.197467,-0.31954 -0.471516,-0.58059 -0.813503,-0.78008 -0.340707,-0.19874 -0.738223,-0.34037 -1.193,-0.42783 v 0.002 c -0.452882,-0.0906 -0.93918,-0.1373 -1.459369,-0.1373 z m -9.282265,0.0519 c -0.626683,0 -1.200796,0.0901 -1.723681,0.27254 -0.52171,0.18208 -0.974573,0.43986 -1.351896,0.77134 -0.377226,0.33139 -0.672074,0.72843 -0.883437,1.18991 -0.208494,0.46293 -0.312135,0.97274 -0.312135,1.52365 0,0.56825 0.108999,1.08379 0.32859,1.54422 0.218888,0.45897 0.529201,0.85362 0.931261,1.17809 a 0.10131692,0.10131692 0 0 0 0.0015,0 c 0.405584,0.32094 0.894905,0.56734 1.463996,0.73842 0.569904,0.17133 1.205118,0.25557 1.905717,0.25557 0.300159,0 0.575642,-0.0106 0.825329,-0.0314 0.253372,-0.0174 0.500953,-0.0462 0.744597,-0.0879 0.243212,-0.0382 0.487409,-0.0888 0.736884,-0.15118 a 0.10131692,0.10131692 0 0 0 0.0015,0 c 0.248493,-0.0656 0.518244,-0.14399 0.807332,-0.23347 a 0.10131692,0.10131692 0 0 0 0.07199,-0.0972 v -0.74407 a 0.10131692,0.10131692 0 0 0 -0.155272,-0.0853 c -0.128595,0.0804 -0.299278,0.16024 -0.510111,0.24066 -0.212169,0.0775 -0.448025,0.14955 -0.705516,0.21392 -0.256803,0.0609 -0.524176,0.10922 -0.805789,0.14655 -0.280297,0.0371 -0.558465,0.055 -0.831501,0.055 -0.644107,10e-6 -1.205539,-0.0626 -1.684599,-0.18975 h -0.0015 c -0.476484,-0.13102 -0.87523,-0.31838 -1.199171,-0.55639 v 0.002 c -0.321052,-0.2383 -0.566933,-0.52616 -0.741512,-0.86544 -0.159221,-0.30942 -0.252358,-0.65962 -0.297222,-1.04079 h 7.412032 a 0.10131692,0.10131692 0 0 0 0.101816,-0.1013 v -0.15838 c 0,-0.57968 -0.09155,-1.10397 -0.27511,-1.56993 -0.183362,-0.46899 -0.453237,-0.87141 -0.807333,-1.20071 -0.354159,-0.32937 -0.788425,-0.58107 -1.300473,-0.75643 -0.513256,-0.17577 -1.096366,-0.26174 -1.746306,-0.26174 z m 28.525056,0 c -0.626682,0 -1.20228,0.09 -1.725222,0.27254 -0.521712,0.18208 -0.974573,0.43986 -1.351897,0.77134 -0.377225,0.33139 -0.672073,0.72843 -0.883437,1.18991 -0.208493,0.46293 -0.312649,0.97274 -0.312649,1.52365 0,0.56825 0.109514,1.08379 0.329104,1.54422 0.218968,0.45913 0.530842,0.85371 0.932803,1.17809 a 0.10131692,0.10131692 0 0 0 0.0015,0 c 0.405487,0.32086 0.893315,0.56733 1.462455,0.73842 0.569903,0.17133 1.205116,0.25557 1.905716,0.25557 0.30016,0 0.575641,-0.0106 0.82533,-0.0314 0.25337,-0.0174 0.500952,-0.0462 0.744597,-0.0879 0.243148,-0.0382 0.488858,-0.0888 0.738426,-0.15118 a 0.10131692,0.10131692 0 0 0 0.0015,0 c 0.24859,-0.0656 0.516795,-0.14402 0.805789,-0.23347 a 0.10131692,0.10131692 0 0 0 0.07199,-0.0972 v -0.74407 a 0.10131692,0.10131692 0 0 0 -0.15581,-0.0854 c -0.128595,0.0804 -0.298764,0.16024 -0.509597,0.24066 -0.21231,0.0775 -0.446572,0.14957 -0.703973,0.21392 -0.256719,0.0608 -0.525673,0.10922 -0.807332,0.14655 -0.280343,0.0371 -0.556922,0.055 -0.829958,0.055 -0.644107,1e-5 -1.207129,-0.0626 -1.686142,-0.18975 h -0.0015 c -0.476484,-0.13102 -0.87523,-0.31838 -1.199171,-0.55639 v 0.002 c -0.321053,-0.2383 -0.566933,-0.52616 -0.741512,-0.86544 -0.159221,-0.30942 -0.252359,-0.65962 -0.297221,-1.0408 h 7.412031 a 0.10131692,0.10131692 0 0 0 0.101816,-0.1013 v -0.15837 c 0,-0.57968 -0.09155,-1.10397 -0.27511,-1.56993 -0.183362,-0.46899 -0.453239,-0.87141 -0.807333,-1.20071 -0.354159,-0.32937 -0.788937,-0.58107 -1.300988,-0.75643 -0.513196,-0.17575 -1.094308,-0.26174 -1.744249,-0.26174 z m -39.67807,0.0766 a 0.10131692,0.10131692 0 0 0 -0.101817,0.10131 v 4.7468 c 0,0.40831 0.04393,0.76406 0.133185,1.06753 0.09053,0.30782 0.252885,0.56846 0.482857,0.77288 a 0.10131692,0.10131692 0 0 0 0.0015,0 c 0.234333,0.20138 0.541444,0.34891 0.919434,0.44429 a 0.10131692,0.10131692 0 0 0 0.0015,0 c 0.381762,0.0919 0.857111,0.13576 1.428001,0.13576 h 3.321889 a 0.10131692,0.10131692 0 0 0 0.101303,-0.10182 v -0.6217 a 0.10131692,0.10131692 0 0 0 -0.101303,-0.10181 h -3.193333 c -0.509681,0 -0.916548,-0.0342 -1.217169,-0.10027 -0.297579,-0.0694 -0.518301,-0.17316 -0.665407,-0.30494 -0.149138,-0.13361 -0.245745,-0.30114 -0.293108,-0.51269 -0.04917,-0.21963 -0.07302,-0.4876 -0.07302,-0.80116 v -4.62287 a 0.10131692,0.10131692 0 0 0 -0.101817,-0.10131 z m 26.415708,0 a 0.10131692,0.10131692 0 0 0 -0.101816,0.10131 v 7.06544 a 0.10131692,0.10131692 0 0 0 0.101816,0.10182 h 3.646366 c 0.391526,0 0.763235,-0.0243 1.117924,-0.073 a 0.10131692,0.10131692 0 0 0 0.0015,0 c 0.359314,-0.0524 0.691532,-0.13444 0.99708,-0.24683 0.309551,-0.11256 0.592005,-0.2626 0.843329,-0.44995 l 0.0015,-0.002 c 0.255843,-0.18864 0.473273,-0.41968 0.650493,-0.68906 0.177881,-0.27037 0.313376,-0.58573 0.408295,-0.9436 0.09888,-0.36373 0.147582,-0.77505 0.147582,-1.23465 0,-0.68569 -0.104145,-1.26437 -0.32139,-1.73448 -0.211648,-0.46562 -0.510767,-0.84278 -0.891151,-1.1241 l -9.95e-4,-0.002 c -0.375482,-0.28299 -0.819423,-0.48081 -1.327727,-0.5965 -0.505293,-0.115 -1.051252,-0.17329 -1.637291,-0.17329 z m -15.273493,0.69626 c 0.577706,0 1.068496,0.0729 1.472738,0.21546 a 0.10131692,0.10131692 0 0 0 0.0015,0 c 0.411196,0.14375 0.744421,0.33625 1.003252,0.57542 0.264206,0.24109 0.460499,0.51775 0.591873,0.83304 a 0.10131692,0.10131692 0 0 0 0.0015,0 c 0.118524,0.2815 0.184389,0.57939 0.215459,0.88807 h -6.657663 c 0.0496,-0.30932 0.136544,-0.60463 0.278195,-0.88498 a 0.10131692,0.10131692 0 0 0 0.0015,-0.002 c 0.158522,-0.31705 0.375293,-0.59452 0.65358,-0.83305 0.277235,-0.24093 0.617556,-0.43314 1.022278,-0.57696 0.401464,-0.14268 0.872764,-0.21545 1.415659,-0.21546 z m 28.525057,0 c 0.577707,0 1.068496,0.0729 1.472739,0.21546 a 0.10131692,0.10131692 0 0 0 0.0015,0 c 0.411125,0.14372 0.742742,0.33612 1.001709,0.57542 0.264206,0.24109 0.460499,0.51775 0.591872,0.83304 a 0.10131692,0.10131692 0 0 0 0.0015,0 c 0.118621,0.28173 0.185707,0.57956 0.217003,0.88807 H 81.90971 c 0.04982,-0.30916 0.137977,-0.60441 0.279737,-0.88498 a 0.10131692,0.10131692 0 0 0 0.0015,-0.002 c 0.158522,-0.31705 0.374778,-0.59452 0.653065,-0.83305 0.277236,-0.24093 0.61807,-0.43314 1.022792,-0.57696 0.401464,-0.14268 0.872765,-0.21545 1.41566,-0.21546 z m -12.506967,0.0931 h 2.89097 c 0.332121,0 0.645353,0.0179 0.938974,0.055 0.291475,0.0369 0.559884,0.10158 0.80579,0.19129 a 0.10131692,0.10131692 0 0 0 0.0015,0 c 0.245208,0.0862 0.462328,0.19966 0.65615,0.34094 0.191973,0.13991 0.354833,0.31401 0.489028,0.52348 0.133575,0.20526 0.237974,0.451 0.311106,0.73688 0.07283,0.2847 0.110557,0.61573 0.110557,0.99297 0,0.56599 -0.08332,1.02964 -0.243742,1.39303 -0.161873,0.36291 -0.385783,0.65083 -0.672605,0.86596 -0.285354,0.21319 -0.629607,0.36408 -1.036162,0.45406 -0.409899,0.0872 -0.863347,0.13164 -1.360638,0.13164 h -2.890959 z m -3.803718,2.65648 v 2.20963 c -0.104224,0.0759 -0.223777,0.15173 -0.374869,0.22728 a 0.10131692,0.10131692 0 0 0 -0.0015,0.002 c -0.163912,0.0836 -0.346389,0.16186 -0.548677,0.23604 -0.202958,0.0744 -0.419723,0.14481 -0.650494,0.20929 l 0.0015,-0.002 c -0.231022,0.0612 -0.465952,0.11696 -0.703974,0.16456 l 9.95e-4,-0.002 c -0.237498,0.0441 -0.477776,0.0808 -0.718885,0.10799 -0.236286,0.0236 -0.46375,0.0344 -0.685976,0.0344 -0.378952,0 -0.718861,-0.0286 -1.019707,-0.0854 v 0.002 c -0.300115,-0.06 -0.551818,-0.14695 -0.756424,-0.25711 l -0.0015,-0.002 c -0.202783,-0.11299 -0.356252,-0.2499 -0.462287,-0.40829 l -0.0015,-0.002 c -0.101517,-0.1576 -0.150667,-0.33519 -0.150667,-0.54405 0,-0.24927 0.0985,-0.46723 0.315219,-0.67157 0.219454,-0.20357 0.577901,-0.39244 1.073701,-0.55434 0.495643,-0.16184 1.138776,-0.30035 1.926798,-0.41292 0.763889,-0.10866 1.688908,-0.19134 2.7583,-0.25249 z" />
    <path
       id="text5148-6"
       style="font-style:normal;font-weight:normal;font-size:13.7583px;line-height:1.25;font-family:sans-serif;fill:#ffe013;fill-opacity:1;stroke:none;stroke-width:0.263283"
       d="m 110.44324,251.72019 c -0.42679,0 -0.83581,0.0325 -1.22591,0.0987 -0.39095,0.0629 -0.75688,0.1638 -1.09993,0.30031 -0.33996,0.13318 -0.65176,0.30136 -0.93331,0.50549 -0.27945,0.20516 -0.51911,0.44958 -0.71735,0.73277 h 0.002 c -0.19879,0.28042 -0.3527,0.60004 -0.46177,0.95542 -0.10973,0.35394 -0.16455,0.74629 -0.16455,1.17655 0,0.64636 0.1164,1.2099 0.35429,1.68923 0.23639,0.47279 0.56527,0.86718 0.98218,1.17809 a 0.10131692,0.10131692 0 0 0 0.002,0.002 c 0.41593,0.30666 0.90439,0.53202 1.46348,0.67878 0.55771,0.1464 1.15783,0.21957 1.79978,0.21957 0.6386,0 1.2342,-0.0732 1.78848,-0.21957 0.55569,-0.14679 1.0416,-0.3735 1.45423,-0.68032 a 0.10131692,0.10131692 0 0 0 0.002,0 c 0.41345,-0.31096 0.74026,-0.70557 0.97652,-1.17809 0.23788,-0.47933 0.35429,-1.04286 0.35429,-1.68923 0,-0.64636 -0.1162,-1.21046 -0.35429,-1.68665 -0.23614,-0.47581 -0.56323,-0.86901 -0.97652,-1.17655 h -0.002 c -0.4124,-0.30995 -0.89871,-0.53923 -1.45423,-0.68597 -0.55429,-0.14643 -1.14988,-0.22009 -1.78848,-0.22009 z m -12.819615,0.12855 a 0.10131692,0.10131692 0 0 0 -0.101815,0.10182 v 7.06544 a 0.10131692,0.10131692 0 0 0 0.101815,0.10182 h 4.076775 c 0.26673,0 0.52629,-0.0106 0.77596,-0.0314 0.25126,-0.021 0.48707,-0.0578 0.7086,-0.11056 a 0.10131692,0.10131692 0 0 0 0.002,0 c 0.22197,-0.0563 0.42566,-0.1303 0.61141,-0.22317 a 0.10131692,0.10131692 0 0 0 0.002,-0.002 c 0.19251,-0.0981 0.35684,-0.22439 0.49212,-0.37795 0.13917,-0.15747 0.24702,-0.34312 0.32293,-0.55639 0.0769,-0.21612 0.11364,-0.46724 0.11364,-0.75026 0,-0.27586 -0.0378,-0.52632 -0.11364,-0.75077 v -0.002 c -0.0766,-0.22907 -0.19833,-0.42973 -0.36355,-0.59495 -0.1661,-0.1661 -0.37798,-0.29474 -0.63199,-0.39132 -0.12847,-0.0488 -0.26931,-0.0881 -0.42166,-0.11828 0.0542,-0.0188 0.12341,-0.0298 0.1733,-0.0509 a 0.10131692,0.10131692 0 0 0 0.002,0 c 0.18826,-0.0833 0.34571,-0.19012 0.46949,-0.32139 0.12676,-0.13078 0.2201,-0.28757 0.27922,-0.46795 v -0.002 c 0.0627,-0.18142 0.0931,-0.39039 0.0931,-0.62787 0,-0.26523 -0.0346,-0.49842 -0.10799,-0.70089 v -0.002 c -0.0691,-0.19931 -0.16949,-0.37174 -0.29877,-0.51577 -0.12487,-0.14304 -0.27401,-0.25937 -0.44583,-0.3471 -0.16535,-0.0863 -0.34408,-0.15273 -0.53942,-0.19901 h -0.002 c -0.19027,-0.0492 -0.38911,-0.0837 -0.5965,-0.1013 -0.20521,-0.0174 -0.41102,-0.0257 -0.61605,-0.0257 z m 17.976255,0 a 0.10131692,0.10131692 0 0 0 -0.10181,0.10182 v 0.58622 a 0.10131692,0.10131692 0 0 0 0.10181,0.10129 h 3.11261 v 6.37793 a 0.10131692,0.10131692 0 0 0 0.10181,0.10182 h 0.63815 a 0.10131692,0.10131692 0 0 0 0.10182,-0.10182 v -6.37793 h 3.11106 a 0.10131692,0.10131692 0 0 0 0.10181,-0.10129 v -0.58622 a 0.10131692,0.10131692 0 0 0 -0.10181,-0.10182 z m -5.15664,0.64587 c 0.62007,0 1.16089,0.0668 1.62238,0.20054 a 0.10131692,0.10131692 0 0 0 0.002,0 c 0.46547,0.13061 0.84927,0.32346 1.15546,0.57697 0.30629,0.2503 0.53548,0.55853 0.6906,0.92817 a 0.10131692,0.10131692 0 0 0 0,0.002 c 0.15824,0.36924 0.23809,0.79819 0.23809,1.28762 0,0.48943 -0.0798,0.91623 -0.23809,1.28556 a 0.10131692,0.10131692 0 0 0 0,0.002 c -0.15515,0.3697 -0.38396,0.67891 -0.6906,0.9328 -0.30641,0.2504 -0.6911,0.44289 -1.15701,0.57696 -0.4615,0.13026 -1.00278,0.19592 -1.62238,0.19592 -0.61958,0 -1.16352,-0.0655 -1.63214,-0.19592 h -0.002 c -0.46536,-0.13409 -0.852,-0.32816 -1.16163,-0.5785 -0.30969,-0.25391 -0.54308,-0.5634 -0.7014,-0.93281 -0.15827,-0.36932 -0.23757,-0.79613 -0.23757,-1.28556 0,-0.48242 0.0792,-0.90738 0.23757,-1.27682 a 0.10131692,0.10131692 0 0 0 0,-5.2e-4 0.10131692,0.10131692 0 0 0 0,-5.1e-4 0.10131692,0.10131692 0 0 0 0,-5.1e-4 c 0.15848,-0.37308 0.39172,-0.68088 0.7014,-0.93126 a 0.10131692,0.10131692 0 0 0 0,-5.2e-4 0.10131692,0.10131692 0 0 0 0,-5.1e-4 0.10131692,0.10131692 0 0 0 0,-5.1e-4 c 0.30997,-0.25392 0.6975,-0.44913 1.16317,-0.58314 0.46863,-0.13389 1.01209,-0.20054 1.63215,-0.20054 z m -12.075017,0.13318 H 101.397 c 0.32194,0 0.59617,0.0176 0.81917,0.0509 a 0.10131692,0.10131692 0 0 0 0.002,0 c 0.228,0.0302 0.41742,0.0739 0.56514,0.12855 a 0.10131692,0.10131692 0 0 0 0.002,0 c 0.14902,0.0518 0.2589,0.1139 0.33476,0.181 a 0.10131692,0.10131692 0 0 0 0.002,0.002 c 0.0842,0.0717 0.14601,0.14636 0.18718,0.22575 a 0.10131692,0.10131692 0 0 0 0,7.7e-4 c 0.0426,0.079 0.0702,0.16084 0.0823,0.24837 0.0131,0.0951 0.0191,0.19088 0.0191,0.28539 0,0.15843 -0.0222,0.307 -0.0668,0.44737 a 0.10131692,0.10131692 0 0 0 0,0.002 c -0.0377,0.12772 -0.1198,0.24104 -0.25712,0.34402 -0.13064,0.10026 -0.33186,0.18754 -0.60113,0.25403 -0.26527,0.0621 -0.62964,0.0946 -1.08707,0.0946 h -3.028777 z m 0,3.03495 h 3.203617 c 0.41017,0 0.76267,0.0288 1.0557,0.0854 a 0.10131692,0.10131692 0 0 0 0.002,0 c 0.29246,0.0532 0.52783,0.1368 0.70552,0.24786 0.17804,0.11127 0.30461,0.25027 0.38875,0.42166 0.0842,0.1715 0.12855,0.38403 0.12855,0.63969 0,0.23608 -0.0375,0.43233 -0.10901,0.59085 a 0.10131692,0.10131692 0 0 0 0,0.002 c -0.0668,0.15498 -0.17997,0.28161 -0.3471,0.38567 -0.16274,0.10015 -0.3877,0.17732 -0.67415,0.22729 -0.2833,0.0465 -0.63718,0.07 -1.06136,0.07 h -3.292063 z" />
    <rect
       style="opacity:0.583886;fill:none;fill-opacity:1;stroke-width:0.296303"
       id="rect15027"
       width="78.90184"
       height="14.17754"
       x="44.689404"
       y="248.39966" />
  </g>
</svg>
