<?xml version="1.0" encoding="UTF-8" standalone="no"?>
<!-- Created with Inkscape (http://www.inkscape.org/) -->

<svg
   width="60.693726mm"
   height="10.9058mm"
   viewBox="0 0 78.901842 14.177539"
   version="1.1"
   id="svg5"
   inkscape:version="1.4 (1:1.4+202410161351+e7c3feb100)"
   sodipodi:docname="logo-leaderbot-light.svg"
   inkscape:export-filename="/home/sia/logo-leaderbot-light.png"
   inkscape:export-xdpi="200"
   inkscape:export-ydpi="200"
   xmlns:inkscape="http://www.inkscape.org/namespaces/inkscape"
   xmlns:sodipodi="http://sodipodi.sourceforge.net/DTD/sodipodi-0.dtd"
   xmlns="http://www.w3.org/2000/svg"
   xmlns:svg="http://www.w3.org/2000/svg">
  <sodipodi:namedview
     id="namedview7"
     pagecolor="#ffffff"
     bordercolor="#666666"
     borderopacity="1.0"
     inkscape:pageshadow="2"
     inkscape:pageopacity="0.0"
     inkscape:pagecheckerboard="0"
     inkscape:document-units="mm"
     showgrid="false"
     fit-margin-top="0"
     fit-margin-left="0"
     fit-margin-right="0"
     fit-margin-bottom="0"
     inkscape:zoom="3.436888"
     inkscape:cx="129.04116"
     inkscape:cy="45.971821"
     inkscape:window-width="1920"
     inkscape:window-height="1006"
     inkscape:window-x="0"
     inkscape:window-y="25"
     inkscape:window-maximized="1"
     inkscape:current-layer="layer1"
     scale-x="1.3"
     inkscape:snap-global="false"
     inkscape:showpageshadow="2"
     inkscape:deskcolor="#d1d1d1" />
  <defs
     id="defs2" />
  <g
     inkscape:label="Layer 1"
     inkscape:groupmode="layer"
     id="layer1"
     transform="translate(-49.401066,-197.29616)">
    <g
       id="g5821"
       transform="matrix(0.76545,0,0,0.76545,27.151037,42.254824)">
      <path
         id="text5148-3"
         style="font-style:normal;font-weight:normal;font-size:13.7583px;line-height:1.25;font-family:sans-serif;fill:#00809a;fill-opacity:1;stroke:none;stroke-width:0.343958"
         d="m 95.312543,206.85451 c -0.466993,0 -0.920213,0.0537 -1.361054,0.16392 -0.434553,0.10521 -0.850227,0.2553 -1.248194,0.44742 -0.397261,0.18722 -0.776035,0.41106 -1.136675,0.67582 a 0.13236256,0.13236256 0 0 0 0,0.002 c -0.27333,0.20324 -0.518624,0.43483 -0.761813,0.66776 v -1.59013 a 0.13236256,0.13236256 0 0 0 -0.132345,-0.13235 h -0.840414 a 0.13236256,0.13236256 0 0 0 -0.132341,0.13235 v 9.23044 a 0.13236256,0.13236256 0 0 0 0.132341,0.13302 h 0.840414 a 0.13236256,0.13236256 0 0 0 0.132345,-0.13302 v -6.35517 c 0.247791,-0.29527 0.520681,-0.57657 0.826305,-0.83974 a 0.13236256,0.13236256 0 0 0 0.002,0 c 0.315802,-0.27633 0.655162,-0.51896 1.023142,-0.72486 0.370973,-0.20513 0.771537,-0.366 1.201168,-0.48437 0.430674,-0.1218 0.892541,-0.18138 1.383222,-0.18138 0.357173,0 0.64552,0.0224 0.859225,0.0685 a 0.13236256,0.13236256 0 0 0 0.002,0.001 c 0.229603,0.0442 0.406666,0.0875 0.529373,0.12563 a 0.13236256,0.13236256 0 0 0 0.171979,-0.12697 v -0.82631 a 0.13236256,0.13236256 0 0 0 -0.109502,-0.13099 c -0.10024,-0.0182 -0.197264,-0.0334 -0.292902,-0.047 -0.09534,-0.0136 -0.197893,-0.0277 -0.309026,-0.0369 l 0.006,0.002 c -0.107556,-0.014 -0.225956,-0.023 -0.351346,-0.0275 h -0.006 c -0.127849,-0.009 -0.270685,-0.0134 -0.427932,-0.0134 z m -38.337919,0.0665 c -0.799626,0 -1.559281,0.0625 -2.275365,0.18945 -0.706136,0.12151 -1.371959,0.2687 -1.997915,0.43532 a 0.13236256,0.13236256 0 0 0 -0.09942,0.12697 v 0.98015 a 0.13236256,0.13236256 0 0 0 0.181384,0.12361 c 0.298793,-0.11595 0.594822,-0.22606 0.888783,-0.32851 0.290695,-0.10129 0.597732,-0.18812 0.916327,-0.26334 0.316798,-0.0792 0.658603,-0.14326 1.025157,-0.18743 0.365211,-0.044 0.772527,-0.0645 1.220649,-0.0645 0.33182,0 0.660981,0.0141 0.988208,0.045 a 0.13236256,0.13236256 0 0 0 0.002,0.001 c 0.330378,0.0264 0.640401,0.0714 0.933793,0.13704 0.297026,0.0655 0.572885,0.15363 0.824291,0.262 a 0.13236256,0.13236256 0 0 0 0.002,0.001 c 0.248046,0.10264 0.461023,0.23103 0.642235,0.38695 a 0.13236256,0.13236256 0 0 0 0.002,0.002 c 0.179542,0.15031 0.316658,0.32486 0.41584,0.52735 0.09728,0.1986 0.146451,0.43094 0.146451,0.70136 v 0.58177 c -0.818431,0.0481 -1.607171,0.10756 -2.353293,0.18004 -0.781678,0.0719 -1.510313,0.16582 -2.185345,0.28282 -0.675612,0.11269 -1.291638,0.25233 -1.844073,0.41987 -0.549888,0.16375 -1.02456,0.36672 -1.421515,0.61134 -0.398238,0.24103 -0.711347,0.53125 -0.933793,0.86728 -0.220648,0.33578 -0.329851,0.72619 -0.329851,1.16019 0,0.43524 0.09346,0.82653 0.28484,1.16623 a 0.13236256,0.13236256 0 0 0 0,0.002 c 0.190083,0.33264 0.461849,0.61266 0.80884,0.83773 a 0.13236256,0.13236256 0 0 0 0.002,0 c 0.347192,0.22051 0.765279,0.38365 1.251552,0.49377 0.49058,0.11004 1.040417,0.1666 1.648581,0.1666 0.466972,0 0.941402,-0.0312 1.425546,-0.09 0.483869,-0.0588 0.954715,-0.14122 1.412111,-0.24991 0.46141,-0.10856 0.897845,-0.23725 1.310669,-0.38695 0.344579,-0.12359 0.639229,-0.26321 0.923716,-0.40644 v 0.81825 a 0.13236256,0.13236256 0 0 0 0.133015,0.13302 h 0.833696 a 0.13236256,0.13236256 0 0 0 0.133015,-0.13302 v -6.26112 c 0,-0.58783 -0.128846,-1.09587 -0.390312,-1.51422 h 0.002 c -0.257976,-0.41745 -0.615999,-0.75849 -1.062778,-1.01911 -0.445107,-0.25964 -0.96443,-0.44466 -1.558561,-0.55893 v 0.002 c -0.591654,-0.11833 -1.226964,-0.17937 -1.90655,-0.17937 z m -12.126547,0.0678 c -0.818711,0 -1.568745,0.11766 -2.251852,0.35605 -0.681574,0.23787 -1.273203,0.57464 -1.766146,1.00769 -0.492816,0.43294 -0.878011,0.95164 -1.154141,1.55453 -0.27238,0.60478 -0.407779,1.2708 -0.407779,1.99053 0,0.74237 0.142398,1.41588 0.429277,2.0174 0.28596,0.5996 0.691359,1.11519 1.216618,1.53908 a 0.13236256,0.13236256 0 0 0 0.002,0 c 0.529864,0.41928 1.169123,0.74119 1.912596,0.96469 0.744534,0.22382 1.574391,0.33388 2.489668,0.33388 0.392135,0 0.752031,-0.0139 1.078228,-0.041 0.33101,-0.0227 0.654456,-0.0603 0.972757,-0.11487 0.317737,-0.0499 0.636762,-0.11604 0.962681,-0.19751 a 0.13236256,0.13236256 0 0 0 0.002,0 c 0.324637,-0.0857 0.677045,-0.18811 1.054716,-0.305 a 0.13236256,0.13236256 0 0 0 0.09405,-0.12697 v -0.97208 a 0.13236256,0.13236256 0 0 0 -0.20285,-0.11144 c -0.168,0.105 -0.390984,0.20934 -0.66642,0.3144 -0.277182,0.1012 -0.58531,0.19537 -0.921701,0.27947 -0.335493,0.0795 -0.684795,0.14269 -1.0527,0.19146 -0.366186,0.0485 -0.729591,0.0719 -1.08629,0.0719 -0.841475,1e-5 -1.574942,-0.0818 -2.200796,-0.24789 h -0.002 c -0.622489,-0.17117 -1.143419,-0.41594 -1.566622,-0.72688 v 0.002 c -0.41943,-0.31133 -0.740654,-0.68739 -0.968727,-1.13063 -0.20801,-0.40424 -0.329686,-0.86174 -0.388297,-1.35972 h 9.683234 a 0.13236256,0.13236256 0 0 0 0.133015,-0.13234 v -0.20691 c 0,-0.7573 -0.1196,-1.44224 -0.35941,-2.05099 -0.239548,-0.61269 -0.592118,-1.13842 -1.054716,-1.56863 -0.462681,-0.43029 -1.030015,-0.75912 -1.698966,-0.98821 -0.670528,-0.22964 -1.432315,-0.34195 -2.281411,-0.34195 z m 37.265735,0 c -0.818711,0 -1.570684,0.11762 -2.253867,0.35605 -0.681575,0.23787 -1.273203,0.57464 -1.766146,1.00769 -0.492815,0.43294 -0.878011,0.95164 -1.154141,1.55453 -0.27238,0.60478 -0.408451,1.2708 -0.408451,1.99053 0,0.74237 0.143071,1.41588 0.429948,2.0174 0.286064,0.59981 0.693503,1.1153 1.218634,1.53908 a 0.13236256,0.13236256 0 0 0 0.002,0 c 0.529736,0.41918 1.167045,0.74117 1.910581,0.96469 0.744534,0.22382 1.57439,0.33388 2.489668,0.33388 0.392135,0 0.75203,-0.0139 1.078228,-0.041 0.331009,-0.0227 0.654455,-0.0603 0.972758,-0.11487 0.317653,-0.0499 0.638654,-0.11601 0.964695,-0.19751 a 0.13236256,0.13236256 0 0 0 0.002,0 c 0.324763,-0.0857 0.675152,-0.18814 1.0527,-0.305 a 0.13236256,0.13236256 0 0 0 0.09405,-0.12697 v -0.97208 a 0.13236256,0.13236256 0 0 0 -0.203553,-0.11152 c -0.167999,0.105 -0.390312,0.20934 -0.665748,0.3144 -0.277367,0.10127 -0.583411,0.1954 -0.919685,0.27947 -0.335384,0.0794 -0.686751,0.14269 -1.054716,0.19146 -0.366246,0.0485 -0.727575,0.0719 -1.084275,0.0719 -0.841474,1e-5 -1.577018,-0.0818 -2.202811,-0.24789 h -0.002 c -0.622489,-0.17117 -1.143419,-0.41594 -1.566623,-0.72688 v 0.002 c -0.41943,-0.31133 -0.740653,-0.68739 -0.968726,-1.13063 -0.20801,-0.40424 -0.329687,-0.86174 -0.388296,-1.35972 h 9.683233 a 0.13236256,0.13236256 0 0 0 0.133015,-0.13234 v -0.20691 c 0,-0.7573 -0.119601,-1.44224 -0.35941,-2.05099 -0.239548,-0.61269 -0.59212,-1.13842 -1.054716,-1.56863 -0.462681,-0.43029 -1.030685,-0.75912 -1.699638,-0.98821 -0.670451,-0.22961 -1.429628,-0.34195 -2.278724,-0.34195 z m -51.836267,0.1001 a 0.13236256,0.13236256 0 0 0 -0.133015,0.13235 v 6.20132 c 0,0.53343 0.05739,0.99818 0.173995,1.39464 0.118275,0.40214 0.330374,0.74265 0.630814,1.00971 a 0.13236256,0.13236256 0 0 0 0.002,0 c 0.306137,0.26308 0.707353,0.45582 1.201167,0.58043 a 0.13236256,0.13236256 0 0 0 0.002,0 c 0.498743,0.12007 1.119749,0.17736 1.865571,0.17736 h 4.339786 a 0.13236256,0.13236256 0 0 0 0.132344,-0.13302 v -0.8122 a 0.13236256,0.13236256 0 0 0 -0.132344,-0.13301 h -4.171838 c -0.665857,0 -1.197397,-0.0447 -1.590135,-0.131 -0.388763,-0.0907 -0.677119,-0.22622 -0.869301,-0.39838 -0.194838,-0.17454 -0.321047,-0.39341 -0.382923,-0.66978 -0.06424,-0.28693 -0.09539,-0.63701 -0.09539,-1.04665 v -6.03942 a 0.13236256,0.13236256 0 0 0 -0.133016,-0.13235 z m 34.510038,0 a 0.13236256,0.13236256 0 0 0 -0.133015,0.13235 v 9.23044 a 0.13236256,0.13236256 0 0 0 0.133015,0.13302 h 4.763689 c 0.511498,0 0.997106,-0.0318 1.460479,-0.0954 a 0.13236256,0.13236256 0 0 0 0.002,0 c 0.469416,-0.0684 0.903433,-0.17563 1.302607,-0.32246 0.404404,-0.14705 0.773408,-0.34306 1.101742,-0.58782 l 0.002,-0.002 c 0.334239,-0.24645 0.618294,-0.54828 0.849819,-0.9002 0.232387,-0.35322 0.409401,-0.76521 0.533404,-1.23274 0.129176,-0.47519 0.192805,-1.01255 0.192805,-1.61298 0,-0.8958 -0.136058,-1.6518 -0.419871,-2.26596 -0.276501,-0.6083 -0.667277,-1.10103 -1.164218,-1.46854 l -0.0013,-0.002 c -0.490538,-0.36971 -1.070512,-0.62815 -1.734571,-0.77928 -0.660125,-0.15024 -1.373378,-0.2264 -2.138991,-0.2264 z m -19.953614,0.90961 c 0.754728,0 1.395906,0.0953 1.924017,0.28148 a 0.13236256,0.13236256 0 0 0 0.002,0 c 0.537195,0.18779 0.972527,0.43928 1.310669,0.75174 0.345165,0.31496 0.601606,0.6764 0.773235,1.0883 a 0.13236256,0.13236256 0 0 0 0.002,0 c 0.154843,0.36775 0.24089,0.75693 0.281481,1.16019 H 40.42966 c 0.0648,-0.4041 0.178384,-0.7899 0.36344,-1.15616 a 0.13236256,0.13236256 0 0 0 0.002,-0.002 c 0.207096,-0.41419 0.49029,-0.77669 0.85385,-1.08831 0.362186,-0.31476 0.806788,-0.56586 1.335526,-0.75375 0.524481,-0.1864 1.140197,-0.28147 1.849447,-0.28148 z m 37.265736,0 c 0.754728,0 1.395905,0.0953 1.924017,0.28148 a 0.13236256,0.13236256 0 0 0 0.002,0 c 0.537103,0.18776 0.970334,0.43911 1.308654,0.75174 0.345164,0.31496 0.601605,0.6764 0.773234,1.0883 a 0.13236256,0.13236256 0 0 0 0.002,0 c 0.154969,0.36806 0.242611,0.75715 0.283497,1.16019 H 77.69338 c 0.06509,-0.40389 0.180256,-0.78961 0.365455,-1.15616 a 0.13236256,0.13236256 0 0 0 0.002,-0.002 c 0.207096,-0.41419 0.489618,-0.77669 0.853178,-1.08831 0.362186,-0.31476 0.807459,-0.56586 1.336197,-0.75375 0.524481,-0.1864 1.140198,-0.28147 1.849448,-0.28148 z m -16.339365,0.12159 h 3.776824 c 0.433889,0 0.843103,0.0234 1.226695,0.0719 0.380789,0.0482 0.731445,0.1327 1.052701,0.24991 a 0.13236256,0.13236256 0 0 0 0.002,0 c 0.320345,0.11257 0.603995,0.26084 0.857209,0.4454 0.250797,0.18278 0.463561,0.41023 0.638876,0.68389 0.174505,0.26815 0.310894,0.5892 0.406435,0.96268 0.09515,0.37193 0.144435,0.8044 0.144435,1.29723 0,0.73942 -0.108854,1.34514 -0.31843,1.81989 -0.211474,0.47411 -0.503995,0.85026 -0.878706,1.1313 -0.372792,0.27852 -0.822532,0.47565 -1.353664,0.5932 -0.5355,0.11397 -1.127894,0.17197 -1.777566,0.17197 H 65.76034 Z m -4.969257,3.47049 v 2.8867 c -0.136161,0.0991 -0.292347,0.19823 -0.489738,0.29693 a 0.13236256,0.13236256 0 0 0 -0.002,0.002 c -0.214137,0.10926 -0.45253,0.21146 -0.716803,0.30836 -0.265148,0.0972 -0.548335,0.18919 -0.849819,0.27342 l 0.002,-0.002 c -0.301811,0.0799 -0.608729,0.15279 -0.919686,0.21498 l 0.0013,-0.002 c -0.310273,0.0576 -0.624177,0.10559 -0.939167,0.14108 -0.308689,0.0308 -0.605852,0.045 -0.896173,0.045 -0.495071,0 -0.939136,-0.0373 -1.332167,-0.11152 v 0.002 c -0.392077,-0.0784 -0.720906,-0.19198 -0.988208,-0.3359 l -0.002,-0.002 c -0.26492,-0.14761 -0.465415,-0.32647 -0.603942,-0.5334 l -0.002,-0.002 c -0.132624,-0.20589 -0.196835,-0.43789 -0.196835,-0.71075 0,-0.32565 0.128685,-0.6104 0.411809,-0.87736 0.2867,-0.26594 0.754983,-0.51269 1.402706,-0.7242 0.647519,-0.21143 1.487721,-0.39238 2.51721,-0.53945 0.99796,-0.14195 2.206424,-0.24997 3.603501,-0.32985 z" />
      <path
         id="text5148-6"
         style="font-style:normal;font-weight:normal;font-size:13.7583px;line-height:1.25;font-family:sans-serif;fill:#eb6e00;fill-opacity:1;stroke:none;stroke-width:0.343958"
         d="m 114.9701,206.88728 c -0.55757,0 -1.09191,0.0425 -1.60155,0.12898 -0.51074,0.0821 -0.98881,0.21399 -1.43697,0.39233 -0.44413,0.17399 -0.85147,0.3937 -1.2193,0.66038 -0.36508,0.26803 -0.67818,0.58734 -0.93716,0.9573 h 0.002 c -0.2597,0.36635 -0.46077,0.78391 -0.60327,1.24819 -0.14335,0.46239 -0.21497,0.97496 -0.21497,1.53707 0,0.84442 0.15207,1.58063 0.46286,2.20684 0.30882,0.61766 0.73848,1.13291 1.28313,1.53908 a 0.13236256,0.13236256 0 0 0 0.002,0.002 c 0.54338,0.40063 1.18152,0.69504 1.91193,0.88677 0.7286,0.19126 1.51261,0.28686 2.35127,0.28686 0.83427,0 1.61238,-0.0956 2.3365,-0.28686 0.72597,-0.19176 1.36077,-0.48794 1.89984,-0.88878 a 0.13236256,0.13236256 0 0 0 0.002,0 c 0.54014,-0.40625 0.96709,-0.92177 1.27574,-1.53908 0.31078,-0.62621 0.46286,-1.36242 0.46286,-2.20684 0,-0.84443 -0.15181,-1.58138 -0.46286,-2.20348 -0.30849,-0.62161 -0.73581,-1.1353 -1.27574,-1.53707 h -0.002 c -0.53877,-0.40492 -1.17409,-0.70446 -1.89984,-0.89617 -0.72413,-0.19129 -1.50223,-0.28753 -2.3365,-0.28753 z m -16.747811,0.16795 a 0.13236256,0.13236256 0 0 0 -0.133013,0.13301 v 9.23045 a 0.13236256,0.13236256 0 0 0 0.133013,0.13301 h 5.325981 c 0.34847,0 0.68756,-0.0138 1.01373,-0.041 0.32826,-0.0274 0.63632,-0.0755 0.92574,-0.14444 a 0.13236256,0.13236256 0 0 0 0.002,0 c 0.28999,-0.0736 0.5561,-0.17023 0.79877,-0.29156 a 0.13236256,0.13236256 0 0 0 0.002,-0.002 c 0.25149,-0.12812 0.46618,-0.29314 0.64291,-0.49376 0.18181,-0.20572 0.32271,-0.44825 0.42188,-0.72688 0.1005,-0.28234 0.14847,-0.61041 0.14847,-0.98015 0,-0.36039 -0.0494,-0.6876 -0.14847,-0.98082 v -0.002 c -0.10003,-0.29926 -0.2591,-0.56141 -0.47495,-0.77726 -0.21699,-0.21699 -0.4938,-0.38505 -0.82564,-0.51123 -0.16784,-0.0638 -0.35184,-0.11508 -0.55087,-0.15452 0.0708,-0.0245 0.16123,-0.0389 0.2264,-0.0665 a 0.13236256,0.13236256 0 0 0 0.002,0 c 0.24595,-0.10879 0.45165,-0.24837 0.61335,-0.41987 0.16561,-0.17085 0.28755,-0.37568 0.36478,-0.61134 v -0.002 c 0.0819,-0.23701 0.1216,-0.51001 0.1216,-0.82026 0,-0.3465 -0.0452,-0.65114 -0.14108,-0.91566 v -0.002 c -0.0902,-0.26038 -0.22142,-0.48564 -0.39031,-0.67381 -0.16314,-0.18687 -0.35797,-0.33884 -0.58245,-0.45346 -0.21601,-0.11271 -0.44951,-0.19952 -0.70471,-0.25999 h -0.002 c -0.24857,-0.0643 -0.50833,-0.10937 -0.77928,-0.13234 -0.26808,-0.0227 -0.53696,-0.0336 -0.80481,-0.0336 z m 23.484561,0 a 0.13236256,0.13236256 0 0 0 -0.13301,0.13301 v 0.76585 a 0.13236256,0.13236256 0 0 0 0.13301,0.13234 h 4.06637 v 8.33226 a 0.13236256,0.13236256 0 0 0 0.13301,0.13301 h 0.8337 a 0.13236256,0.13236256 0 0 0 0.13301,-0.13301 v -8.33226 h 4.06436 a 0.13236256,0.13236256 0 0 0 0.13301,-0.13234 v -0.76585 a 0.13236256,0.13236256 0 0 0 -0.13301,-0.13301 z m -6.73675,0.84377 c 0.81007,0 1.51662,0.0873 2.11951,0.262 a 0.13236256,0.13236256 0 0 0 0.002,0 c 0.60811,0.17062 1.10951,0.42257 1.50952,0.75376 0.40015,0.327 0.69957,0.72967 0.90222,1.21258 a 0.13236256,0.13236256 0 0 0 0,0.002 c 0.20672,0.48238 0.31104,1.04277 0.31104,1.68217 0,0.6394 -0.10427,1.19699 -0.31104,1.67948 a 0.13236256,0.13236256 0 0 0 0,0.002 c -0.20269,0.48299 -0.50162,0.88695 -0.90222,1.21863 -0.4003,0.32713 -0.90287,0.5786 -1.51154,0.75376 -0.60291,0.17017 -1.31006,0.25595 -2.11951,0.25595 -0.80944,0 -1.52005,-0.0856 -2.13227,-0.25595 h -0.002 c -0.60796,-0.17518 -1.11308,-0.42872 -1.51759,-0.75577 -0.40458,-0.33171 -0.70949,-0.73604 -0.91632,-1.21864 -0.20677,-0.48249 -0.31037,-1.04008 -0.31037,-1.67948 0,-0.63024 0.10353,-1.18542 0.31037,-1.66807 a 0.13236256,0.13236256 0 0 0 0,-6.7e-4 0.13236256,0.13236256 0 0 0 0,-6.7e-4 0.13236256,0.13236256 0 0 0 0,-6.7e-4 c 0.20704,-0.4874 0.51175,-0.88952 0.91632,-1.21662 a 0.13236256,0.13236256 0 0 0 0,-6.7e-4 0.13236256,0.13236256 0 0 0 0,-6.7e-4 0.13236256,0.13236256 0 0 0 0,-6.7e-4 c 0.40496,-0.33173 0.91124,-0.58675 1.5196,-0.76182 0.61222,-0.17492 1.32221,-0.262 2.13227,-0.262 z m -15.775053,0.174 h 3.956863 c 0.42058,0 0.77885,0.023 1.07017,0.0665 a 0.13236256,0.13236256 0 0 0 0.002,0 c 0.29787,0.0394 0.54533,0.0966 0.73831,0.16794 a 0.13236256,0.13236256 0 0 0 0.002,0 c 0.19469,0.0677 0.33824,0.1488 0.43734,0.23647 a 0.13236256,0.13236256 0 0 0 0.002,0.002 c 0.11003,0.0937 0.19075,0.1912 0.24454,0.29492 a 0.13236256,0.13236256 0 0 0 0,10e-4 c 0.0556,0.10316 0.0917,0.21013 0.10748,0.32448 0.0171,0.12419 0.0249,0.24937 0.0249,0.37284 0,0.20698 -0.029,0.40107 -0.0873,0.58446 a 0.13236256,0.13236256 0 0 0 0,0.003 c -0.0493,0.16685 -0.15651,0.3149 -0.3359,0.44943 -0.17068,0.13099 -0.43355,0.24501 -0.78533,0.33187 -0.34656,0.0811 -0.82258,0.12361 -1.42017,0.12361 h -3.956863 z m 0,3.96492 h 4.185273 c 0.53586,0 0.99637,0.0376 1.37919,0.11152 a 0.13236256,0.13236256 0 0 0 0.002,0 c 0.38207,0.0695 0.68957,0.17872 0.9217,0.32381 0.2326,0.14537 0.39795,0.32696 0.50787,0.55087 0.10999,0.22405 0.16794,0.5017 0.16795,0.83571 0,0.30842 -0.049,0.5648 -0.14242,0.77189 a 0.13236256,0.13236256 0 0 0 0,0.002 c -0.0873,0.20247 -0.23511,0.3679 -0.45346,0.50385 -0.2126,0.13084 -0.5065,0.23166 -0.88072,0.29693 -0.37011,0.0608 -0.83242,0.0914 -1.38658,0.0914 h -4.300823 z" />
    </g>
    <rect
       style="opacity:0.583886;fill:none;fill-opacity:1;stroke-width:0.296303"
       id="rect15027"
       width="78.90184"
       height="14.17754"
       x="49.401066"
       y="197.29616" />
  </g>
</svg>
