<?xml version="1.0" encoding="utf-8" standalone="no"?>
<!DOCTYPE svg PUBLIC "-//W3C//DTD SVG 1.1//EN"
  "http://www.w3.org/Graphics/SVG/1.1/DTD/svg11.dtd">
<svg xmlns:xlink="http://www.w3.org/1999/xlink" width="426.772998pt" height="286.107045pt" viewBox="0 0 426.772998 286.107045" xmlns="http://www.w3.org/2000/svg" version="1.1">
 <metadata>
  <rdf:RDF xmlns:dc="http://purl.org/dc/elements/1.1/" xmlns:cc="http://creativecommons.org/ns#" xmlns:rdf="http://www.w3.org/1999/02/22-rdf-syntax-ns#">
   <cc:Work>
    <dc:type rdf:resource="http://purl.org/dc/dcmitype/StillImage"/>
    <dc:date>2024-12-29T21:04:40.393996</dc:date>
    <dc:format>image/svg+xml</dc:format>
    <dc:creator>
     <cc:Agent>
      <dc:title>Matplotlib v3.9.2, https://matplotlib.org/</dc:title>
     </cc:Agent>
    </dc:creator>
   </cc:Work>
  </rdf:RDF>
 </metadata>
 <defs>
  <style type="text/css">*{stroke-linejoin: round; stroke-linecap: butt}</style>
 </defs>
 <g id="figure_1">
  <g id="patch_1">
   <path d="M 0 286.107045 
L 426.772998 286.107045 
L 426.772998 0 
L 0 0 
L 0 286.107045 
z
" style="fill: none"/>
  </g>
  <g id="axes_1">
   <g id="patch_2">
    <path d="M 15.975936 15.293529 
L 152.055936 15.293529 
L 152.055936 8.489529 
L 15.975936 8.489529 
L 15.975936 15.293529 
z
" style="fill: none"/>
   </g>
   <g id="matplotlib.axis_1">
    <g id="xtick_1">
     <g id="line2d_1">
      <defs>
       <path id="m27de0d8288" d="M 0 0 
L 0 6 
" style="stroke: #000000; stroke-width: 1.25"/>
      </defs>
      <g>
       <use xlink:href="#m27de0d8288" x="15.975936" y="15.293529" style="stroke: #000000; stroke-width: 1.25"/>
      </g>
     </g>
     <g id="text_1">
      <!-- $80\%$ -->
      <g transform="translate(7.2 31.262328) scale(0.0935 -0.0935)">
       <defs>
        <path id="CMR17-38" d="M 1741 2264 
C 2144 2467 2554 2773 2554 3263 
C 2554 3841 1990 4179 1472 4179 
C 890 4179 378 3759 378 3180 
C 378 3021 416 2747 666 2505 
C 730 2442 998 2251 1171 2130 
C 883 1983 211 1634 211 934 
C 211 279 838 -128 1459 -128 
C 2144 -128 2720 362 2720 1010 
C 2720 1590 2330 1857 2074 2029 
L 1741 2264 
z
M 902 2822 
C 851 2854 595 3051 595 3351 
C 595 3739 998 4032 1459 4032 
C 1965 4032 2336 3676 2336 3262 
C 2336 2669 1670 2331 1638 2331 
C 1632 2331 1626 2331 1574 2370 
L 902 2822 
z
M 2080 1519 
C 2176 1449 2483 1240 2483 851 
C 2483 381 2010 25 1472 25 
C 890 25 448 438 448 940 
C 448 1443 838 1862 1280 2060 
L 2080 1519 
z
" transform="scale(0.015625)"/>
        <path id="CMR17-30" d="M 2688 2025 
C 2688 2416 2682 3080 2413 3591 
C 2176 4039 1798 4198 1466 4198 
C 1158 4198 768 4058 525 3597 
C 269 3118 243 2524 243 2025 
C 243 1661 250 1106 448 619 
C 723 -39 1216 -128 1466 -128 
C 1760 -128 2208 -7 2470 600 
C 2662 1042 2688 1559 2688 2025 
z
M 1466 -26 
C 1056 -26 813 325 723 812 
C 653 1188 653 1738 653 2096 
C 653 2588 653 2997 736 3387 
C 858 3929 1216 4096 1466 4096 
C 1728 4096 2067 3923 2189 3400 
C 2272 3036 2278 2607 2278 2096 
C 2278 1680 2278 1169 2202 792 
C 2067 95 1690 -26 1466 -26 
z
" transform="scale(0.015625)"/>
        <path id="CMR17-25" d="M 4640 959 
C 4640 1698 4275 2240 3846 2240 
C 3411 2240 2970 1736 2970 959 
C 2970 183 3405 -320 3846 -320 
C 4275 -320 4640 215 4640 959 
z
M 3853 -218 
C 3686 -218 3270 -66 3270 959 
C 3270 1991 3686 2138 3853 2138 
C 4205 2138 4525 1634 4525 959 
C 4525 285 4205 -218 3853 -218 
z
M 4083 4577 
C 4128 4647 4134 4653 4134 4685 
C 4134 4761 4077 4800 4026 4800 
C 3962 4800 3936 4756 3891 4706 
C 3520 4190 3008 4134 2746 4134 
C 2106 4134 1715 4494 1594 4607 
C 1510 4682 1389 4800 1171 4800 
C 736 4800 294 4296 294 3519 
C 294 2743 730 2240 1171 2240 
C 1600 2240 1965 2778 1965 3527 
C 1965 3969 1830 4270 1811 4308 
C 2202 4064 2586 4032 2752 4032 
C 3162 4032 3456 4183 3616 4289 
L 3622 4283 
L 858 -84 
C 800 -174 800 -187 800 -206 
C 800 -276 858 -320 915 -320 
C 973 -320 992 -289 1037 -218 
L 4083 4577 
z
M 1178 2342 
C 1011 2342 595 2494 595 3519 
C 595 4551 1011 4698 1178 4698 
C 1530 4698 1850 4194 1850 3519 
C 1850 2845 1530 2342 1178 2342 
z
" transform="scale(0.015625)"/>
       </defs>
       <use xlink:href="#CMR17-38" transform="scale(0.996264)"/>
       <use xlink:href="#CMR17-30" transform="translate(45.690477 0) scale(0.996264)"/>
       <use xlink:href="#CMR17-25" transform="translate(91.380954 0) scale(0.996264)"/>
      </g>
     </g>
    </g>
    <g id="xtick_2">
     <g id="line2d_2">
      <g>
       <use xlink:href="#m27de0d8288" x="49.995936" y="15.293529" style="stroke: #000000; stroke-width: 1.25"/>
      </g>
     </g>
     <g id="text_2">
      <!-- $85\%$ -->
      <g transform="translate(41.22 31.262328) scale(0.0935 -0.0935)">
       <defs>
        <path id="CMR17-35" d="M 730 3692 
C 794 3666 1056 3584 1325 3584 
C 1920 3584 2246 3911 2432 4100 
C 2432 4157 2432 4192 2394 4192 
C 2387 4192 2374 4192 2323 4163 
C 2099 4058 1837 3973 1517 3973 
C 1325 3973 1037 3999 723 4139 
C 653 4171 640 4171 634 4171 
C 602 4171 595 4164 595 4037 
L 595 2203 
C 595 2089 595 2057 659 2057 
C 691 2057 704 2070 736 2114 
C 941 2401 1222 2522 1542 2522 
C 1766 2522 2246 2382 2246 1289 
C 2246 1085 2246 715 2054 421 
C 1894 159 1645 25 1370 25 
C 947 25 518 320 403 814 
C 429 807 480 795 506 795 
C 589 795 749 840 749 1038 
C 749 1210 627 1280 506 1280 
C 358 1280 262 1190 262 1011 
C 262 454 704 -128 1382 -128 
C 2042 -128 2669 440 2669 1264 
C 2669 2030 2170 2624 1549 2624 
C 1222 2624 947 2503 730 2274 
L 730 3692 
z
" transform="scale(0.015625)"/>
       </defs>
       <use xlink:href="#CMR17-38" transform="scale(0.996264)"/>
       <use xlink:href="#CMR17-35" transform="translate(45.690477 0) scale(0.996264)"/>
       <use xlink:href="#CMR17-25" transform="translate(91.380954 0) scale(0.996264)"/>
      </g>
     </g>
    </g>
    <g id="xtick_3">
     <g id="line2d_3">
      <g>
       <use xlink:href="#m27de0d8288" x="84.015936" y="15.293529" style="stroke: #000000; stroke-width: 1.25"/>
      </g>
     </g>
     <g id="text_3">
      <!-- $90\%$ -->
      <g transform="translate(75.24 31.262328) scale(0.0935 -0.0935)">
       <defs>
        <path id="CMR17-39" d="M 2253 1864 
C 2253 464 1670 31 1190 31 
C 1043 31 685 31 538 294 
C 704 268 826 357 826 518 
C 826 692 685 749 595 749 
C 538 749 365 723 365 506 
C 365 71 742 -128 1203 -128 
C 1939 -128 2688 674 2688 2073 
C 2688 3817 1971 4179 1485 4179 
C 851 4179 243 3628 243 2778 
C 243 1991 762 1408 1414 1408 
C 1952 1408 2189 1903 2253 2112 
L 2253 1864 
z
M 1427 1510 
C 1254 1510 1011 1542 813 1922 
C 678 2169 678 2461 678 2771 
C 678 3146 678 3405 858 3684 
C 947 3817 1114 4032 1485 4032 
C 2240 4032 2240 2885 2240 2632 
C 2240 2182 2035 1510 1427 1510 
z
" transform="scale(0.015625)"/>
       </defs>
       <use xlink:href="#CMR17-39" transform="scale(0.996264)"/>
       <use xlink:href="#CMR17-30" transform="translate(45.690477 0) scale(0.996264)"/>
       <use xlink:href="#CMR17-25" transform="translate(91.380954 0) scale(0.996264)"/>
      </g>
     </g>
    </g>
    <g id="xtick_4">
     <g id="line2d_4">
      <g>
       <use xlink:href="#m27de0d8288" x="118.035936" y="15.293529" style="stroke: #000000; stroke-width: 1.25"/>
      </g>
     </g>
     <g id="text_4">
      <!-- $95\%$ -->
      <g transform="translate(109.26 31.262328) scale(0.0935 -0.0935)">
       <use xlink:href="#CMR17-39" transform="scale(0.996264)"/>
       <use xlink:href="#CMR17-35" transform="translate(45.690477 0) scale(0.996264)"/>
       <use xlink:href="#CMR17-25" transform="translate(91.380954 0) scale(0.996264)"/>
      </g>
     </g>
    </g>
    <g id="xtick_5">
     <g id="line2d_5">
      <g>
       <use xlink:href="#m27de0d8288" x="152.055936" y="15.293529" style="stroke: #000000; stroke-width: 1.25"/>
      </g>
     </g>
     <g id="text_5">
      <!-- $100\%$ -->
      <g transform="translate(140.886563 31.262328) scale(0.0935 -0.0935)">
       <defs>
        <path id="CMR17-31" d="M 1702 4058 
C 1702 4192 1696 4192 1606 4192 
C 1357 3916 979 3827 621 3827 
C 602 3827 570 3827 563 3808 
C 557 3795 557 3782 557 3648 
C 755 3648 1088 3686 1344 3839 
L 1344 461 
C 1344 236 1331 160 781 160 
L 589 160 
L 589 0 
C 896 0 1216 0 1523 0 
C 1830 0 2150 0 2458 0 
L 2458 160 
L 2266 160 
C 1715 160 1702 230 1702 458 
L 1702 4058 
z
" transform="scale(0.015625)"/>
       </defs>
       <use xlink:href="#CMR17-31" transform="scale(0.996264)"/>
       <use xlink:href="#CMR17-30" transform="translate(45.690477 0) scale(0.996264)"/>
       <use xlink:href="#CMR17-30" transform="translate(91.380954 0) scale(0.996264)"/>
       <use xlink:href="#CMR17-25" transform="translate(137.071431 0) scale(0.996264)"/>
      </g>
     </g>
    </g>
    <g id="xtick_6">
     <g id="line2d_6">
      <defs>
       <path id="mae92b5a193" d="M 0 0 
L 0 4 
" style="stroke: #000000"/>
      </defs>
      <g>
       <use xlink:href="#mae92b5a193" x="22.779936" y="15.293529" style="stroke: #000000"/>
      </g>
     </g>
    </g>
    <g id="xtick_7">
     <g id="line2d_7">
      <g>
       <use xlink:href="#mae92b5a193" x="29.583936" y="15.293529" style="stroke: #000000"/>
      </g>
     </g>
    </g>
    <g id="xtick_8">
     <g id="line2d_8">
      <g>
       <use xlink:href="#mae92b5a193" x="36.387936" y="15.293529" style="stroke: #000000"/>
      </g>
     </g>
    </g>
    <g id="xtick_9">
     <g id="line2d_9">
      <g>
       <use xlink:href="#mae92b5a193" x="43.191936" y="15.293529" style="stroke: #000000"/>
      </g>
     </g>
    </g>
    <g id="xtick_10">
     <g id="line2d_10">
      <g>
       <use xlink:href="#mae92b5a193" x="56.799936" y="15.293529" style="stroke: #000000"/>
      </g>
     </g>
    </g>
    <g id="xtick_11">
     <g id="line2d_11">
      <g>
       <use xlink:href="#mae92b5a193" x="63.603936" y="15.293529" style="stroke: #000000"/>
      </g>
     </g>
    </g>
    <g id="xtick_12">
     <g id="line2d_12">
      <g>
       <use xlink:href="#mae92b5a193" x="70.407936" y="15.293529" style="stroke: #000000"/>
      </g>
     </g>
    </g>
    <g id="xtick_13">
     <g id="line2d_13">
      <g>
       <use xlink:href="#mae92b5a193" x="77.211936" y="15.293529" style="stroke: #000000"/>
      </g>
     </g>
    </g>
    <g id="xtick_14">
     <g id="line2d_14">
      <g>
       <use xlink:href="#mae92b5a193" x="90.819936" y="15.293529" style="stroke: #000000"/>
      </g>
     </g>
    </g>
    <g id="xtick_15">
     <g id="line2d_15">
      <g>
       <use xlink:href="#mae92b5a193" x="97.623936" y="15.293529" style="stroke: #000000"/>
      </g>
     </g>
    </g>
    <g id="xtick_16">
     <g id="line2d_16">
      <g>
       <use xlink:href="#mae92b5a193" x="104.427936" y="15.293529" style="stroke: #000000"/>
      </g>
     </g>
    </g>
    <g id="xtick_17">
     <g id="line2d_17">
      <g>
       <use xlink:href="#mae92b5a193" x="111.231936" y="15.293529" style="stroke: #000000"/>
      </g>
     </g>
    </g>
    <g id="xtick_18">
     <g id="line2d_18">
      <g>
       <use xlink:href="#mae92b5a193" x="124.839936" y="15.293529" style="stroke: #000000"/>
      </g>
     </g>
    </g>
    <g id="xtick_19">
     <g id="line2d_19">
      <g>
       <use xlink:href="#mae92b5a193" x="131.643936" y="15.293529" style="stroke: #000000"/>
      </g>
     </g>
    </g>
    <g id="xtick_20">
     <g id="line2d_20">
      <g>
       <use xlink:href="#mae92b5a193" x="138.447936" y="15.293529" style="stroke: #000000"/>
      </g>
     </g>
    </g>
    <g id="xtick_21">
     <g id="line2d_21">
      <g>
       <use xlink:href="#mae92b5a193" x="145.251936" y="15.293529" style="stroke: #000000"/>
      </g>
     </g>
    </g>
    <g id="text_6">
     <!-- Kendall $\boldsymbol{\tau}$ Correlation -->
     <g transform="translate(31.322476 45.37577) scale(0.12 -0.12)">
      <defs>
       <path id="CMSS17-4b" d="M 2234 2666 
L 3827 4416 
L 3213 4416 
L 1101 2106 
L 1101 4416 
L 563 4416 
L 563 0 
L 1101 0 
L 1101 1432 
L 1875 2278 
L 3315 0 
L 3910 0 
L 2234 2666 
z
" transform="scale(0.015625)"/>
       <path id="CMSS17-65" d="M 2502 1377 
C 2502 1590 2490 2003 2285 2345 
C 2061 2713 1696 2816 1421 2816 
C 755 2816 192 2188 192 1375 
C 192 582 774 -64 1510 -64 
C 1798 -64 2150 19 2470 248 
C 2470 274 2458 414 2451 420 
C 2451 433 2432 630 2432 656 
C 2125 407 1773 325 1517 325 
C 1107 325 666 667 646 1377 
L 2502 1377 
z
M 698 1728 
C 781 2084 1062 2421 1421 2421 
C 1517 2421 1965 2421 2080 1728 
L 698 1728 
z
" transform="scale(0.015625)"/>
       <path id="CMSS17-6e" d="M 2618 1877 
C 2618 2283 2522 2816 1798 2816 
C 1389 2816 1120 2606 941 2389 
L 941 2758 
L 474 2758 
L 474 0 
L 960 0 
L 960 1559 
C 960 1964 1114 2428 1549 2428 
C 2112 2428 2131 2048 2131 1829 
L 2131 0 
L 2618 0 
L 2618 1877 
z
" transform="scale(0.015625)"/>
       <path id="CMSS17-64" d="M 2611 4416 
L 2138 4416 
L 2138 2438 
C 1939 2603 1613 2756 1254 2756 
C 672 2756 211 2131 211 1347 
C 211 562 666 -64 1235 -64 
C 1677 -64 1971 172 2125 306 
L 2125 -13 
L 2611 -13 
L 2611 4416 
z
M 2125 836 
C 2125 747 2125 653 1926 482 
C 1798 375 1645 325 1498 325 
C 1152 325 698 576 698 1340 
C 698 2134 1210 2368 1562 2368 
C 1798 2368 1990 2254 2125 2065 
L 2125 836 
z
" transform="scale(0.015625)"/>
       <path id="CMSS17-61" d="M 2406 1791 
C 2406 2392 1978 2808 1402 2808 
C 1120 2808 813 2757 461 2553 
L 499 2135 
C 659 2248 934 2432 1395 2432 
C 1722 2432 1920 2180 1920 1782 
L 1920 1536 
C 896 1536 256 1238 256 726 
C 256 461 416 -64 947 -64 
C 1043 -64 1562 -64 1933 217 
L 1933 -19 
L 2406 -19 
L 2406 1791 
z
M 1920 816 
C 1920 701 1920 548 1728 434 
C 1562 325 1350 325 1261 325 
C 941 325 723 511 723 744 
C 723 1211 1722 1211 1920 1211 
L 1920 816 
z
" transform="scale(0.015625)"/>
       <path id="CMSS17-6c" d="M 947 4416 
L 474 4416 
L 474 0 
L 947 0 
L 947 4416 
z
" transform="scale(0.015625)"/>
       <path id="CMMIB10-1c" d="M 2234 2240 
L 3418 2240 
C 3552 2240 3635 2240 3738 2335 
C 3866 2443 3866 2589 3866 2602 
C 3866 2850 3635 2850 3526 2850 
L 1421 2850 
C 1286 2850 1011 2850 672 2544 
C 448 2340 198 2015 198 1951 
C 198 1862 275 1862 346 1862 
C 442 1862 448 1869 506 1939 
C 749 2240 1171 2240 1293 2240 
L 1869 2240 
L 1638 1562 
C 1581 1402 1440 992 1389 825 
C 1318 626 1197 287 1197 217 
C 1197 38 1338 -64 1498 -64 
C 1542 -64 1869 -64 1933 358 
L 2234 2240 
z
" transform="scale(0.015625)"/>
       <path id="CMSS17-43" d="M 3501 714 
C 3072 427 2874 344 2355 344 
C 1459 344 934 1303 934 2179 
C 934 3112 1472 4032 2381 4032 
C 2790 4032 3059 3918 3386 3715 
L 3475 4217 
C 3168 4370 2778 4440 2387 4440 
C 1158 4440 397 3316 397 2179 
C 397 927 1299 -64 2323 -64 
C 2874 -64 3066 -19 3539 280 
L 3501 714 
z
" transform="scale(0.015625)"/>
       <path id="CMSS17-6f" d="M 2829 1356 
C 2829 2176 2221 2816 1504 2816 
C 768 2816 173 2157 173 1356 
C 173 544 787 -64 1498 -64 
C 2227 -64 2829 563 2829 1356 
z
M 1504 337 
C 1050 337 659 709 659 1408 
C 659 2151 1114 2427 1498 2427 
C 1914 2427 2342 2126 2342 1408 
C 2342 683 1926 337 1504 337 
z
" transform="scale(0.015625)"/>
       <path id="CMSS17-72" d="M 954 1363 
C 954 1965 1395 2368 1958 2368 
L 1958 2789 
C 1549 2789 1165 2585 934 2253 
L 934 2758 
L 480 2758 
L 480 0 
L 954 0 
L 954 1363 
z
" transform="scale(0.015625)"/>
       <path id="CMSS17-74" d="M 1069 2368 
L 1901 2368 
L 1901 2737 
L 1069 2737 
L 1069 3520 
L 614 3520 
L 614 2737 
L 109 2737 
L 109 2368 
L 602 2368 
L 602 749 
C 602 384 685 -64 1107 -64 
C 1427 -64 1722 25 2003 172 
L 1901 548 
C 1747 414 1562 337 1363 337 
C 1082 337 1069 696 1069 856 
L 1069 2368 
z
" transform="scale(0.015625)"/>
       <path id="CMSS17-69" d="M 979 4183 
L 442 4183 
L 442 3648 
L 979 3648 
L 979 4183 
z
M 947 2739 
L 474 2739 
L 474 0 
L 947 0 
L 947 2739 
z
" transform="scale(0.015625)"/>
      </defs>
      <use xlink:href="#CMSS17-4b" transform="scale(0.996264)"/>
      <use xlink:href="#CMSS17-65" transform="translate(64.820294 0) scale(0.996264)"/>
      <use xlink:href="#CMSS17-6e" transform="translate(106.459116 0) scale(0.996264)"/>
      <use xlink:href="#CMSS17-64" transform="translate(154.664059 0) scale(0.996264)"/>
      <use xlink:href="#CMSS17-61" transform="translate(202.869002 0) scale(0.996264)"/>
      <use xlink:href="#CMSS17-6c" transform="translate(247.790923 0) scale(0.996264)"/>
      <use xlink:href="#CMSS17-6c" transform="translate(269.971646 0) scale(0.996264)"/>
      <use xlink:href="#CMMIB10-1c" transform="translate(323.381481 0) scale(0.996264)"/>
      <use xlink:href="#CMSS17-43" transform="translate(419.921039 0) scale(0.996264)"/>
      <use xlink:href="#CMSS17-6f" transform="translate(479.77681 0) scale(0.996264)"/>
      <use xlink:href="#CMSS17-72" transform="translate(524.01798 0) scale(0.996264)"/>
      <use xlink:href="#CMSS17-72" transform="translate(555.927753 0) scale(0.996264)"/>
      <use xlink:href="#CMSS17-65" transform="translate(587.837525 0) scale(0.996264)"/>
      <use xlink:href="#CMSS17-6c" transform="translate(629.476347 0) scale(0.996264)"/>
      <use xlink:href="#CMSS17-61" transform="translate(651.65707 0) scale(0.996264)"/>
      <use xlink:href="#CMSS17-74" transform="translate(696.578991 0) scale(0.996264)"/>
      <use xlink:href="#CMSS17-69" transform="translate(730.410558 0) scale(0.996264)"/>
      <use xlink:href="#CMSS17-6f" transform="translate(752.591281 0) scale(0.996264)"/>
      <use xlink:href="#CMSS17-6e" transform="translate(799.434904 0) scale(0.996264)"/>
     </g>
    </g>
   </g>
   <g id="matplotlib.axis_2"/>
   <g id="QuadMesh_1">
    <path d="M 15.975936 15.293529 
L 15.975936 8.489529 
L 22.779936 8.489529 
L 22.779936 15.293529 
L 15.975936 15.293529 
" clip-path="url(#p9363160386)" style="fill: #ffffff"/>
    <path d="M 22.779936 15.293529 
L 22.779936 8.489529 
L 29.583936 8.489529 
L 29.583936 15.293529 
L 22.779936 15.293529 
" clip-path="url(#p9363160386)" style="fill: #ffffe5"/>
    <path d="M 29.583936 15.293529 
L 29.583936 8.489529 
L 36.387936 8.489529 
L 36.387936 15.293529 
L 29.583936 15.293529 
" clip-path="url(#p9363160386)" style="fill: #ffffcb"/>
    <path d="M 36.387936 15.293529 
L 36.387936 8.489529 
L 43.191936 8.489529 
L 43.191936 15.293529 
L 36.387936 15.293529 
" clip-path="url(#p9363160386)" style="fill: #ffffaf"/>
    <path d="M 43.191936 15.293529 
L 43.191936 8.489529 
L 49.995936 8.489529 
L 49.995936 15.293529 
L 43.191936 15.293529 
" clip-path="url(#p9363160386)" style="fill: #ffff95"/>
    <path d="M 49.995936 15.293529 
L 49.995936 8.489529 
L 56.799936 8.489529 
L 56.799936 15.293529 
L 49.995936 15.293529 
" clip-path="url(#p9363160386)" style="fill: #fff979"/>
    <path d="M 56.799936 15.293529 
L 56.799936 8.489529 
L 63.603936 8.489529 
L 63.603936 15.293529 
L 56.799936 15.293529 
" clip-path="url(#p9363160386)" style="fill: #ffde5f"/>
    <path d="M 63.603936 15.293529 
L 63.603936 8.489529 
L 70.407936 8.489529 
L 70.407936 15.293529 
L 63.603936 15.293529 
" clip-path="url(#p9363160386)" style="fill: #ffc445"/>
    <path d="M 70.407936 15.293529 
L 70.407936 8.489529 
L 77.211936 8.489529 
L 77.211936 15.293529 
L 70.407936 15.293529 
" clip-path="url(#p9363160386)" style="fill: #ffa829"/>
    <path d="M 77.211936 15.293529 
L 77.211936 8.489529 
L 84.015936 8.489529 
L 84.015936 15.293529 
L 77.211936 15.293529 
" clip-path="url(#p9363160386)" style="fill: #ff8e0f"/>
    <path d="M 84.015936 15.293529 
L 84.015936 8.489529 
L 90.819936 8.489529 
L 90.819936 15.293529 
L 84.015936 15.293529 
" clip-path="url(#p9363160386)" style="fill: #f27200"/>
    <path d="M 90.819936 15.293529 
L 90.819936 8.489529 
L 97.623936 8.489529 
L 97.623936 15.293529 
L 90.819936 15.293529 
" clip-path="url(#p9363160386)" style="fill: #d85900"/>
    <path d="M 97.623936 15.293529 
L 97.623936 8.489529 
L 104.427936 8.489529 
L 104.427936 15.293529 
L 97.623936 15.293529 
" clip-path="url(#p9363160386)" style="fill: #bc3d00"/>
    <path d="M 104.427936 15.293529 
L 104.427936 8.489529 
L 111.231936 8.489529 
L 111.231936 15.293529 
L 104.427936 15.293529 
" clip-path="url(#p9363160386)" style="fill: #a22200"/>
    <path d="M 111.231936 15.293529 
L 111.231936 8.489529 
L 118.035936 8.489529 
L 118.035936 15.293529 
L 111.231936 15.293529 
" clip-path="url(#p9363160386)" style="fill: #880900"/>
    <path d="M 118.035936 15.293529 
L 118.035936 8.489529 
L 124.839936 8.489529 
L 124.839936 15.293529 
L 118.035936 15.293529 
" clip-path="url(#p9363160386)" style="fill: #6c0000"/>
    <path d="M 124.839936 15.293529 
L 124.839936 8.489529 
L 131.643936 8.489529 
L 131.643936 15.293529 
L 124.839936 15.293529 
" clip-path="url(#p9363160386)" style="fill: #520000"/>
    <path d="M 131.643936 15.293529 
L 131.643936 8.489529 
L 138.447936 8.489529 
L 138.447936 15.293529 
L 131.643936 15.293529 
" clip-path="url(#p9363160386)" style="fill: #360000"/>
    <path d="M 138.447936 15.293529 
L 138.447936 8.489529 
L 145.251936 8.489529 
L 145.251936 15.293529 
L 138.447936 15.293529 
" clip-path="url(#p9363160386)" style="fill: #1c0000"/>
    <path d="M 145.251936 15.293529 
L 145.251936 8.489529 
L 152.055936 8.489529 
L 152.055936 15.293529 
L 145.251936 15.293529 
" clip-path="url(#p9363160386)"/>
   </g>
   <g id="LineCollection_1"/>
   <g id="patch_3">
    <path d="M 15.975936 15.293529 
L 15.975936 11.891529 
L 15.975936 8.489529 
L 152.055936 8.489529 
L 152.055936 11.891529 
L 152.055936 15.293529 
L 15.975936 15.293529 
z
" style="fill: none; stroke: #000000; stroke-width: 1.25; stroke-linejoin: miter; stroke-linecap: square"/>
   </g>
  </g>
  <g id="axes_2"/>
  <g id="axes_3">
   <g id="QuadMesh_2">
    <path clip-path="url(#p78195d09f8)" style="fill: none; stroke: #808080; stroke-opacity: 0.2; stroke-width: 0.1"/>
    <path clip-path="url(#p78195d09f8)" style="fill: none; stroke: #808080; stroke-opacity: 0.2; stroke-width: 0.1"/>
    <path clip-path="url(#p78195d09f8)" style="fill: none; stroke: #808080; stroke-opacity: 0.2; stroke-width: 0.1"/>
    <path clip-path="url(#p78195d09f8)" style="fill: none; stroke: #808080; stroke-opacity: 0.2; stroke-width: 0.1"/>
    <path d="M 315.062981 287.107045 
L 295.555936 267.6 
L 276.048891 287.107045 
" clip-path="url(#p78195d09f8)" style="fill: none; stroke: #808080; stroke-opacity: 0.2; stroke-width: 0.1"/>
    <path d="M 319.448891 287.107045 
L 338.955936 267.6 
L 317.255936 245.9 
L 295.555936 267.6 
L 315.062981 287.107045 
" clip-path="url(#p78195d09f8)" style="fill: none; stroke: #808080; stroke-opacity: 0.2; stroke-width: 0.1"/>
    <path d="M 338.955936 267.6 
L 360.655936 245.9 
L 338.955936 224.2 
L 317.255936 245.9 
L 338.955936 267.6 
" clip-path="url(#p78195d09f8)" style="fill: none; stroke: #808080; stroke-opacity: 0.2; stroke-width: 0.1"/>
    <path d="M 360.655936 245.9 
L 382.355936 224.2 
L 360.655936 202.5 
L 338.955936 224.2 
L 360.655936 245.9 
" clip-path="url(#p78195d09f8)" style="fill: none; stroke: #808080; stroke-opacity: 0.2; stroke-width: 0.1"/>
    <path d="M 382.355936 224.2 
L 404.055936 202.5 
L 382.355936 180.8 
L 360.655936 202.5 
L 382.355936 224.2 
" clip-path="url(#p78195d09f8)" style="stroke: #808080; stroke-opacity: 0.2; stroke-width: 0.1"/>
    <path clip-path="url(#p78195d09f8)" style="fill: none; stroke: #808080; stroke-opacity: 0.2; stroke-width: 0.1"/>
    <path clip-path="url(#p78195d09f8)" style="fill: none; stroke: #808080; stroke-opacity: 0.2; stroke-width: 0.1"/>
    <path clip-path="url(#p78195d09f8)" style="fill: none; stroke: #808080; stroke-opacity: 0.2; stroke-width: 0.1"/>
    <path d="M 271.662981 287.107045 
L 252.155936 267.6 
L 232.648891 287.107045 
" clip-path="url(#p78195d09f8)" style="fill: none; stroke: #808080; stroke-opacity: 0.2; stroke-width: 0.1"/>
    <path d="M 276.048891 287.107045 
L 295.555936 267.6 
L 273.855936 245.9 
L 252.155936 267.6 
L 271.662981 287.107045 
" clip-path="url(#p78195d09f8)" style="fill: none; stroke: #808080; stroke-opacity: 0.2; stroke-width: 0.1"/>
    <path d="M 295.555936 267.6 
L 317.255936 245.9 
L 295.555936 224.2 
L 273.855936 245.9 
L 295.555936 267.6 
" clip-path="url(#p78195d09f8)" style="fill: none; stroke: #808080; stroke-opacity: 0.2; stroke-width: 0.1"/>
    <path d="M 317.255936 245.9 
L 338.955936 224.2 
L 317.255936 202.5 
L 295.555936 224.2 
L 317.255936 245.9 
" clip-path="url(#p78195d09f8)" style="fill: none; stroke: #808080; stroke-opacity: 0.2; stroke-width: 0.1"/>
    <path d="M 338.955936 224.2 
L 360.655936 202.5 
L 338.955936 180.8 
L 317.255936 202.5 
L 338.955936 224.2 
" clip-path="url(#p78195d09f8)" style="stroke: #808080; stroke-opacity: 0.2; stroke-width: 0.1"/>
    <path d="M 360.655936 202.5 
L 382.355936 180.8 
L 360.655936 159.1 
L 338.955936 180.8 
L 360.655936 202.5 
" clip-path="url(#p78195d09f8)" style="fill: #bc3d00; stroke: #808080; stroke-opacity: 0.2; stroke-width: 0.1"/>
    <path clip-path="url(#p78195d09f8)" style="fill: none; stroke: #808080; stroke-opacity: 0.2; stroke-width: 0.1"/>
    <path clip-path="url(#p78195d09f8)" style="fill: none; stroke: #808080; stroke-opacity: 0.2; stroke-width: 0.1"/>
    <path d="M 228.262981 287.107045 
L 208.755936 267.6 
L 189.248891 287.107045 
" clip-path="url(#p78195d09f8)" style="fill: none; stroke: #808080; stroke-opacity: 0.2; stroke-width: 0.1"/>
    <path d="M 232.648891 287.107045 
L 252.155936 267.6 
L 230.455936 245.9 
L 208.755936 267.6 
L 228.262981 287.107045 
" clip-path="url(#p78195d09f8)" style="fill: none; stroke: #808080; stroke-opacity: 0.2; stroke-width: 0.1"/>
    <path d="M 252.155936 267.6 
L 273.855936 245.9 
L 252.155936 224.2 
L 230.455936 245.9 
L 252.155936 267.6 
" clip-path="url(#p78195d09f8)" style="fill: none; stroke: #808080; stroke-opacity: 0.2; stroke-width: 0.1"/>
    <path d="M 273.855936 245.9 
L 295.555936 224.2 
L 273.855936 202.5 
L 252.155936 224.2 
L 273.855936 245.9 
" clip-path="url(#p78195d09f8)" style="fill: none; stroke: #808080; stroke-opacity: 0.2; stroke-width: 0.1"/>
    <path d="M 295.555936 224.2 
L 317.255936 202.5 
L 295.555936 180.8 
L 273.855936 202.5 
L 295.555936 224.2 
" clip-path="url(#p78195d09f8)" style="stroke: #808080; stroke-opacity: 0.2; stroke-width: 0.1"/>
    <path d="M 317.255936 202.5 
L 338.955936 180.8 
L 317.255936 159.1 
L 295.555936 180.8 
L 317.255936 202.5 
" clip-path="url(#p78195d09f8)" style="fill: #360000; stroke: #808080; stroke-opacity: 0.2; stroke-width: 0.1"/>
    <path d="M 338.955936 180.8 
L 360.655936 159.1 
L 338.955936 137.4 
L 317.255936 159.1 
L 338.955936 180.8 
" clip-path="url(#p78195d09f8)" style="fill: #bc3d00; stroke: #808080; stroke-opacity: 0.2; stroke-width: 0.1"/>
    <path clip-path="url(#p78195d09f8)" style="fill: none; stroke: #808080; stroke-opacity: 0.2; stroke-width: 0.1"/>
    <path d="M 184.862981 287.107045 
L 165.355936 267.6 
L 145.848891 287.107045 
" clip-path="url(#p78195d09f8)" style="fill: none; stroke: #808080; stroke-opacity: 0.2; stroke-width: 0.1"/>
    <path d="M 189.248891 287.107045 
L 208.755936 267.6 
L 187.055936 245.9 
L 165.355936 267.6 
L 184.862981 287.107045 
" clip-path="url(#p78195d09f8)" style="fill: none; stroke: #808080; stroke-opacity: 0.2; stroke-width: 0.1"/>
    <path d="M 208.755936 267.6 
L 230.455936 245.9 
L 208.755936 224.2 
L 187.055936 245.9 
L 208.755936 267.6 
" clip-path="url(#p78195d09f8)" style="fill: none; stroke: #808080; stroke-opacity: 0.2; stroke-width: 0.1"/>
    <path d="M 230.455936 245.9 
L 252.155936 224.2 
L 230.455936 202.5 
L 208.755936 224.2 
L 230.455936 245.9 
" clip-path="url(#p78195d09f8)" style="fill: none; stroke: #808080; stroke-opacity: 0.2; stroke-width: 0.1"/>
    <path d="M 252.155936 224.2 
L 273.855936 202.5 
L 252.155936 180.8 
L 230.455936 202.5 
L 252.155936 224.2 
" clip-path="url(#p78195d09f8)" style="stroke: #808080; stroke-opacity: 0.2; stroke-width: 0.1"/>
    <path d="M 273.855936 202.5 
L 295.555936 180.8 
L 273.855936 159.1 
L 252.155936 180.8 
L 273.855936 202.5 
" clip-path="url(#p78195d09f8)" style="fill: #360000; stroke: #808080; stroke-opacity: 0.2; stroke-width: 0.1"/>
    <path d="M 295.555936 180.8 
L 317.255936 159.1 
L 295.555936 137.4 
L 273.855936 159.1 
L 295.555936 180.8 
" clip-path="url(#p78195d09f8)" style="fill: #520000; stroke: #808080; stroke-opacity: 0.2; stroke-width: 0.1"/>
    <path d="M 317.255936 159.1 
L 338.955936 137.4 
L 317.255936 115.7 
L 295.555936 137.4 
L 317.255936 159.1 
" clip-path="url(#p78195d09f8)" style="fill: #bc3d00; stroke: #808080; stroke-opacity: 0.2; stroke-width: 0.1"/>
    <path d="M 141.462981 287.107045 
L 121.955936 267.6 
L 102.448891 287.107045 
" clip-path="url(#p78195d09f8)" style="fill: none; stroke: #808080; stroke-opacity: 0.2; stroke-width: 0.1"/>
    <path d="M 145.848891 287.107045 
L 165.355936 267.6 
L 143.655936 245.9 
L 121.955936 267.6 
L 141.462981 287.107045 
" clip-path="url(#p78195d09f8)" style="fill: none; stroke: #808080; stroke-opacity: 0.2; stroke-width: 0.1"/>
    <path d="M 165.355936 267.6 
L 187.055936 245.9 
L 165.355936 224.2 
L 143.655936 245.9 
L 165.355936 267.6 
" clip-path="url(#p78195d09f8)" style="fill: none; stroke: #808080; stroke-opacity: 0.2; stroke-width: 0.1"/>
    <path d="M 187.055936 245.9 
L 208.755936 224.2 
L 187.055936 202.5 
L 165.355936 224.2 
L 187.055936 245.9 
" clip-path="url(#p78195d09f8)" style="fill: none; stroke: #808080; stroke-opacity: 0.2; stroke-width: 0.1"/>
    <path d="M 208.755936 224.2 
L 230.455936 202.5 
L 208.755936 180.8 
L 187.055936 202.5 
L 208.755936 224.2 
" clip-path="url(#p78195d09f8)" style="stroke: #808080; stroke-opacity: 0.2; stroke-width: 0.1"/>
    <path d="M 230.455936 202.5 
L 252.155936 180.8 
L 230.455936 159.1 
L 208.755936 180.8 
L 230.455936 202.5 
" clip-path="url(#p78195d09f8)" style="fill: #6c0000; stroke: #808080; stroke-opacity: 0.2; stroke-width: 0.1"/>
    <path d="M 252.155936 180.8 
L 273.855936 159.1 
L 252.155936 137.4 
L 230.455936 159.1 
L 252.155936 180.8 
" clip-path="url(#p78195d09f8)" style="fill: #6c0000; stroke: #808080; stroke-opacity: 0.2; stroke-width: 0.1"/>
    <path d="M 273.855936 159.1 
L 295.555936 137.4 
L 273.855936 115.7 
L 252.155936 137.4 
L 273.855936 159.1 
" clip-path="url(#p78195d09f8)" style="fill: #6c0000; stroke: #808080; stroke-opacity: 0.2; stroke-width: 0.1"/>
    <path d="M 295.555936 137.4 
L 317.255936 115.7 
L 295.555936 94 
L 273.855936 115.7 
L 295.555936 137.4 
" clip-path="url(#p78195d09f8)" style="fill: #f27200; stroke: #808080; stroke-opacity: 0.2; stroke-width: 0.1"/>
    <path d="M 102.448891 287.107045 
L 121.955936 267.6 
L 100.255936 245.9 
L 78.555936 267.6 
L 98.062981 287.107045 
" clip-path="url(#p78195d09f8)" style="fill: none; stroke: #808080; stroke-opacity: 0.2; stroke-width: 0.1"/>
    <path d="M 121.955936 267.6 
L 143.655936 245.9 
L 121.955936 224.2 
L 100.255936 245.9 
L 121.955936 267.6 
" clip-path="url(#p78195d09f8)" style="fill: none; stroke: #808080; stroke-opacity: 0.2; stroke-width: 0.1"/>
    <path d="M 143.655936 245.9 
L 165.355936 224.2 
L 143.655936 202.5 
L 121.955936 224.2 
L 143.655936 245.9 
" clip-path="url(#p78195d09f8)" style="fill: none; stroke: #808080; stroke-opacity: 0.2; stroke-width: 0.1"/>
    <path d="M 165.355936 224.2 
L 187.055936 202.5 
L 165.355936 180.8 
L 143.655936 202.5 
L 165.355936 224.2 
" clip-path="url(#p78195d09f8)" style="stroke: #808080; stroke-opacity: 0.2; stroke-width: 0.1"/>
    <path d="M 187.055936 202.5 
L 208.755936 180.8 
L 187.055936 159.1 
L 165.355936 180.8 
L 187.055936 202.5 
" clip-path="url(#p78195d09f8)" style="fill: #520000; stroke: #808080; stroke-opacity: 0.2; stroke-width: 0.1"/>
    <path d="M 208.755936 180.8 
L 230.455936 159.1 
L 208.755936 137.4 
L 187.055936 159.1 
L 208.755936 180.8 
" clip-path="url(#p78195d09f8)" style="fill: #6c0000; stroke: #808080; stroke-opacity: 0.2; stroke-width: 0.1"/>
    <path d="M 230.455936 159.1 
L 252.155936 137.4 
L 230.455936 115.7 
L 208.755936 137.4 
L 230.455936 159.1 
" clip-path="url(#p78195d09f8)" style="fill: #880900; stroke: #808080; stroke-opacity: 0.2; stroke-width: 0.1"/>
    <path d="M 252.155936 137.4 
L 273.855936 115.7 
L 252.155936 94 
L 230.455936 115.7 
L 252.155936 137.4 
" clip-path="url(#p78195d09f8)" style="fill: #a22200; stroke: #808080; stroke-opacity: 0.2; stroke-width: 0.1"/>
    <path d="M 273.855936 115.7 
L 295.555936 94 
L 273.855936 72.3 
L 252.155936 94 
L 273.855936 115.7 
" clip-path="url(#p78195d09f8)" style="fill: #f27200; stroke: #808080; stroke-opacity: 0.2; stroke-width: 0.1"/>
    <path d="M 78.555936 267.6 
L 100.255936 245.9 
L 78.555936 224.2 
L 56.855936 245.9 
L 78.555936 267.6 
" clip-path="url(#p78195d09f8)" style="fill: none; stroke: #808080; stroke-opacity: 0.2; stroke-width: 0.1"/>
    <path d="M 100.255936 245.9 
L 121.955936 224.2 
L 100.255936 202.5 
L 78.555936 224.2 
L 100.255936 245.9 
" clip-path="url(#p78195d09f8)" style="fill: none; stroke: #808080; stroke-opacity: 0.2; stroke-width: 0.1"/>
    <path d="M 121.955936 224.2 
L 143.655936 202.5 
L 121.955936 180.8 
L 100.255936 202.5 
L 121.955936 224.2 
" clip-path="url(#p78195d09f8)" style="stroke: #808080; stroke-opacity: 0.2; stroke-width: 0.1"/>
    <path d="M 143.655936 202.5 
L 165.355936 180.8 
L 143.655936 159.1 
L 121.955936 180.8 
L 143.655936 202.5 
" clip-path="url(#p78195d09f8)" style="fill: #a22200; stroke: #808080; stroke-opacity: 0.2; stroke-width: 0.1"/>
    <path d="M 165.355936 180.8 
L 187.055936 159.1 
L 165.355936 137.4 
L 143.655936 159.1 
L 165.355936 180.8 
" clip-path="url(#p78195d09f8)" style="fill: #880900; stroke: #808080; stroke-opacity: 0.2; stroke-width: 0.1"/>
    <path d="M 187.055936 159.1 
L 208.755936 137.4 
L 187.055936 115.7 
L 165.355936 137.4 
L 187.055936 159.1 
" clip-path="url(#p78195d09f8)" style="fill: #bc3d00; stroke: #808080; stroke-opacity: 0.2; stroke-width: 0.1"/>
    <path d="M 208.755936 137.4 
L 230.455936 115.7 
L 208.755936 94 
L 187.055936 115.7 
L 208.755936 137.4 
" clip-path="url(#p78195d09f8)" style="fill: #bc3d00; stroke: #808080; stroke-opacity: 0.2; stroke-width: 0.1"/>
    <path d="M 230.455936 115.7 
L 252.155936 94 
L 230.455936 72.3 
L 208.755936 94 
L 230.455936 115.7 
" clip-path="url(#p78195d09f8)" style="fill: #d85900; stroke: #808080; stroke-opacity: 0.2; stroke-width: 0.1"/>
    <path d="M 252.155936 94 
L 273.855936 72.3 
L 252.155936 50.6 
L 230.455936 72.3 
L 252.155936 94 
" clip-path="url(#p78195d09f8)" style="fill: #ffa829; stroke: #808080; stroke-opacity: 0.2; stroke-width: 0.1"/>
    <path d="M 56.855936 245.9 
L 78.555936 224.2 
L 56.855936 202.5 
L 35.155936 224.2 
L 56.855936 245.9 
" clip-path="url(#p78195d09f8)" style="fill: none; stroke: #808080; stroke-opacity: 0.2; stroke-width: 0.1"/>
    <path d="M 78.555936 224.2 
L 100.255936 202.5 
L 78.555936 180.8 
L 56.855936 202.5 
L 78.555936 224.2 
" clip-path="url(#p78195d09f8)" style="stroke: #808080; stroke-opacity: 0.2; stroke-width: 0.1"/>
    <path d="M 100.255936 202.5 
L 121.955936 180.8 
L 100.255936 159.1 
L 78.555936 180.8 
L 100.255936 202.5 
" clip-path="url(#p78195d09f8)" style="fill: #a22200; stroke: #808080; stroke-opacity: 0.2; stroke-width: 0.1"/>
    <path d="M 121.955936 180.8 
L 143.655936 159.1 
L 121.955936 137.4 
L 100.255936 159.1 
L 121.955936 180.8 
" clip-path="url(#p78195d09f8)" style="fill: #bc3d00; stroke: #808080; stroke-opacity: 0.2; stroke-width: 0.1"/>
    <path d="M 143.655936 159.1 
L 165.355936 137.4 
L 143.655936 115.7 
L 121.955936 137.4 
L 143.655936 159.1 
" clip-path="url(#p78195d09f8)" style="fill: #bc3d00; stroke: #808080; stroke-opacity: 0.2; stroke-width: 0.1"/>
    <path d="M 165.355936 137.4 
L 187.055936 115.7 
L 165.355936 94 
L 143.655936 115.7 
L 165.355936 137.4 
" clip-path="url(#p78195d09f8)" style="fill: #f27200; stroke: #808080; stroke-opacity: 0.2; stroke-width: 0.1"/>
    <path d="M 187.055936 115.7 
L 208.755936 94 
L 187.055936 72.3 
L 165.355936 94 
L 187.055936 115.7 
" clip-path="url(#p78195d09f8)" style="fill: #f27200; stroke: #808080; stroke-opacity: 0.2; stroke-width: 0.1"/>
    <path d="M 208.755936 94 
L 230.455936 72.3 
L 208.755936 50.6 
L 187.055936 72.3 
L 208.755936 94 
" clip-path="url(#p78195d09f8)" style="fill: #f27200; stroke: #808080; stroke-opacity: 0.2; stroke-width: 0.1"/>
    <path d="M 230.455936 72.3 
L 252.155936 50.6 
L 230.455936 28.9 
L 208.755936 50.6 
L 230.455936 72.3 
" clip-path="url(#p78195d09f8)" style="fill: #ffde5f; stroke: #808080; stroke-opacity: 0.2; stroke-width: 0.1"/>
    <path d="M 35.155936 224.2 
L 56.855936 202.5 
L 35.155936 180.8 
L 13.455936 202.5 
L 35.155936 224.2 
" clip-path="url(#p78195d09f8)" style="stroke: #808080; stroke-opacity: 0.2; stroke-width: 0.1"/>
    <path d="M 56.855936 202.5 
L 78.555936 180.8 
L 56.855936 159.1 
L 35.155936 180.8 
L 56.855936 202.5 
" clip-path="url(#p78195d09f8)" style="fill: #ffc445; stroke: #808080; stroke-opacity: 0.2; stroke-width: 0.1"/>
    <path d="M 78.555936 180.8 
L 100.255936 159.1 
L 78.555936 137.4 
L 56.855936 159.1 
L 78.555936 180.8 
" clip-path="url(#p78195d09f8)" style="fill: #ffff95; stroke: #808080; stroke-opacity: 0.2; stroke-width: 0.1"/>
    <path d="M 100.255936 159.1 
L 121.955936 137.4 
L 100.255936 115.7 
L 78.555936 137.4 
L 100.255936 159.1 
" clip-path="url(#p78195d09f8)" style="fill: #fff979; stroke: #808080; stroke-opacity: 0.2; stroke-width: 0.1"/>
    <path d="M 121.955936 137.4 
L 143.655936 115.7 
L 121.955936 94 
L 100.255936 115.7 
L 121.955936 137.4 
" clip-path="url(#p78195d09f8)" style="fill: #ffff95; stroke: #808080; stroke-opacity: 0.2; stroke-width: 0.1"/>
    <path d="M 143.655936 115.7 
L 165.355936 94 
L 143.655936 72.3 
L 121.955936 94 
L 143.655936 115.7 
" clip-path="url(#p78195d09f8)" style="fill: #ffffcb; stroke: #808080; stroke-opacity: 0.2; stroke-width: 0.1"/>
    <path d="M 165.355936 94 
L 187.055936 72.3 
L 165.355936 50.6 
L 143.655936 72.3 
L 165.355936 94 
" clip-path="url(#p78195d09f8)" style="fill: #ffffcb; stroke: #808080; stroke-opacity: 0.2; stroke-width: 0.1"/>
    <path d="M 187.055936 72.3 
L 208.755936 50.6 
L 187.055936 28.9 
L 165.355936 50.6 
L 187.055936 72.3 
" clip-path="url(#p78195d09f8)" style="fill: #ffffaf; stroke: #808080; stroke-opacity: 0.2; stroke-width: 0.1"/>
    <path d="M 208.755936 50.6 
L 230.455936 28.9 
L 208.755936 7.2 
L 187.055936 28.9 
L 208.755936 50.6 
" clip-path="url(#p78195d09f8)" style="fill: #ffffff; stroke: #808080; stroke-opacity: 0.2; stroke-width: 0.1"/>
   </g>
   <g id="matplotlib.axis_3"/>
   <g id="matplotlib.axis_4"/>
   <g id="line2d_22">
    <path d="M 13.455936 202.5 
L 208.755936 7.2 
L 404.055936 202.5 
L 13.455936 202.5 
" clip-path="url(#p78195d09f8)" style="fill: none; stroke: #000000; stroke-width: 0.65; stroke-linecap: round"/>
   </g>
   <g id="text_7">
    <!-- Math -->
    <g transform="translate(33.544673 210.540528) rotate(-315) scale(0.12 -0.12)">
     <defs>
      <path id="CMSS17-4d" d="M 3194 2371 
L 2886 1473 
C 2835 1307 2662 791 2624 587 
L 2618 587 
C 2598 715 2560 849 2458 1174 
C 2400 1365 2336 1562 2272 1741 
L 1325 4416 
L 576 4416 
L 576 0 
L 1075 0 
L 1075 3900 
L 1082 3900 
C 1082 3894 1139 3613 1530 2499 
L 2374 96 
L 2848 96 
L 3610 2231 
C 3661 2378 3821 2843 3891 3066 
C 3955 3257 4115 3728 4154 3913 
L 4160 3913 
L 4160 0 
L 4666 0 
L 4666 4416 
L 3923 4416 
L 3194 2371 
z
" transform="scale(0.015625)"/>
      <path id="CMSS17-68" d="M 2618 1891 
C 2618 2292 2522 2820 1798 2820 
C 1395 2820 1133 2623 947 2407 
L 947 4448 
L 474 4448 
L 474 32 
L 960 32 
L 960 1573 
C 960 1973 1114 2432 1549 2432 
C 2112 2432 2131 2056 2131 1839 
L 2131 32 
L 2618 32 
L 2618 1891 
z
" transform="scale(0.015625)"/>
     </defs>
     <use xlink:href="#CMSS17-4d" transform="scale(0.996264)"/>
     <use xlink:href="#CMSS17-61" transform="translate(81.67603 0) scale(0.996264)"/>
     <use xlink:href="#CMSS17-74" transform="translate(126.597951 0) scale(0.996264)"/>
     <use xlink:href="#CMSS17-68" transform="translate(160.429517 0) scale(0.996264)"/>
    </g>
   </g>
   <g id="text_8">
    <!-- Complexity -->
    <g transform="translate(76.944673 210.540528) rotate(-315) scale(0.12 -0.12)">
     <defs>
      <path id="CMSS17-6d" d="M 4288 1877 
C 4288 2308 4179 2816 3462 2816 
C 2982 2816 2694 2516 2566 2331 
C 2451 2670 2182 2816 1798 2816 
C 1363 2816 1088 2568 941 2389 
L 941 2758 
L 474 2758 
L 474 0 
L 960 0 
L 960 1559 
C 960 1939 1101 2428 1555 2428 
C 2138 2428 2138 2016 2138 1829 
L 2138 0 
L 2624 0 
L 2624 1559 
C 2624 1939 2765 2428 3219 2428 
C 3802 2428 3802 2016 3802 1829 
L 3802 0 
L 4288 0 
L 4288 1877 
z
" transform="scale(0.015625)"/>
      <path id="CMSS17-70" d="M 966 333 
C 1178 129 1466 -5 1773 -5 
C 2368 -5 2880 603 2880 1412 
C 2880 2159 2496 2816 1946 2816 
C 1626 2816 1242 2702 954 2472 
L 954 2765 
L 480 2765 
L 480 -1216 
L 966 -1216 
L 966 333 
z
M 966 2100 
C 1018 2176 1235 2415 1587 2415 
C 2035 2415 2394 1960 2394 1412 
C 2394 787 1958 384 1530 384 
C 1402 384 1267 415 1139 523 
C 966 674 966 768 966 857 
L 966 2100 
z
" transform="scale(0.015625)"/>
      <path id="CMSS17-78" d="M 1587 1414 
L 2656 2739 
L 2099 2739 
L 1363 1777 
L 602 2739 
L 32 2739 
L 1139 1414 
L 0 0 
L 563 0 
L 1363 1121 
L 2195 0 
L 2758 0 
L 1587 1414 
z
" transform="scale(0.015625)"/>
      <path id="CMSS17-79" d="M 2675 2752 
L 2176 2752 
C 1632 1294 1446 702 1434 383 
L 1427 383 
C 1408 696 1126 1460 902 2007 
L 602 2752 
L 83 2752 
L 1216 13 
C 1146 -178 1043 -465 1011 -529 
C 870 -885 774 -885 672 -885 
C 646 -885 442 -885 211 -809 
L 250 -1229 
C 410 -1261 570 -1280 685 -1280 
C 845 -1280 1165 -1280 1459 -497 
L 2675 2752 
z
" transform="scale(0.015625)"/>
     </defs>
     <use xlink:href="#CMSS17-43" transform="scale(0.996264)"/>
     <use xlink:href="#CMSS17-6f" transform="translate(59.855772 0) scale(0.996264)"/>
     <use xlink:href="#CMSS17-6d" transform="translate(106.699395 0) scale(0.996264)"/>
     <use xlink:href="#CMSS17-70" transform="translate(180.92865 0) scale(0.996264)"/>
     <use xlink:href="#CMSS17-6c" transform="translate(229.133593 0) scale(0.996264)"/>
     <use xlink:href="#CMSS17-65" transform="translate(251.314316 0) scale(0.996264)"/>
     <use xlink:href="#CMSS17-78" transform="translate(292.953138 0) scale(0.996264)"/>
     <use xlink:href="#CMSS17-69" transform="translate(335.953279 0) scale(0.996264)"/>
     <use xlink:href="#CMSS17-74" transform="translate(358.134002 0) scale(0.996264)"/>
     <use xlink:href="#CMSS17-79" transform="translate(389.363115 0) scale(0.996264)"/>
    </g>
   </g>
   <g id="text_9">
    <!-- Problem Solving -->
    <g transform="translate(120.344673 210.540528) rotate(-315) scale(0.12 -0.12)">
     <defs>
      <path id="CMSS17-50" d="M 2106 1856 
C 2874 1856 3501 2453 3501 3158 
C 3501 3850 2899 4453 2067 4453 
L 570 4453 
L 570 0 
L 1107 0 
L 1107 1856 
L 2106 1856 
z
M 1926 4096 
C 2669 4096 2995 3627 2995 3157 
C 2995 2720 2694 2226 1926 2226 
L 1094 2226 
L 1094 4096 
L 1926 4096 
z
" transform="scale(0.015625)"/>
      <path id="CMSS17-62" d="M 954 4416 
L 480 4416 
L 480 -13 
L 966 -13 
L 966 274 
C 1210 38 1504 -64 1766 -64 
C 2381 -64 2880 549 2880 1352 
C 2880 2086 2496 2756 1926 2756 
C 1523 2756 1165 2591 954 2419 
L 954 4416 
z
M 966 2046 
C 1107 2222 1306 2368 1587 2368 
C 1965 2368 2394 2097 2394 1352 
C 2394 558 1882 325 1530 325 
C 1402 325 1267 356 1139 464 
C 966 615 966 709 966 797 
L 966 2046 
z
" transform="scale(0.015625)"/>
      <path id="CMSS17-53" d="M 2797 4169 
C 2515 4334 2208 4480 1690 4480 
C 864 4480 333 3879 333 3266 
C 333 3025 403 2753 653 2475 
C 902 2196 1184 2121 1542 2033 
C 1690 1994 1939 1924 1984 1906 
C 2342 1767 2515 1444 2515 1140 
C 2515 742 2202 318 1645 318 
C 1453 318 890 318 358 819 
L 269 318 
C 794 -64 1363 -128 1651 -128 
C 2438 -128 3002 488 3002 1186 
C 3002 1440 2925 1763 2656 2061 
C 2394 2347 2163 2410 1638 2549 
C 1338 2626 1146 2677 986 2873 
C 877 3013 819 3146 819 3317 
C 819 3673 1126 4060 1690 4060 
C 1971 4060 2336 4002 2707 3660 
L 2797 4169 
z
" transform="scale(0.015625)"/>
      <path id="CMSS17-76" d="M 2675 2752 
L 2176 2752 
L 1747 1556 
C 1613 1165 1421 627 1389 352 
L 1382 352 
C 1370 468 1318 634 1286 749 
C 1248 890 1197 1056 1158 1172 
L 595 2752 
L 83 2752 
L 1094 0 
L 1664 0 
L 2675 2752 
z
" transform="scale(0.015625)"/>
      <path id="CMSS17-67" d="M 2848 2808 
C 2483 2808 2170 2738 1914 2617 
C 1702 2777 1485 2808 1338 2808 
C 781 2808 358 2349 358 1814 
C 358 1468 550 1207 563 1195 
C 448 1035 384 863 384 672 
C 384 448 474 289 544 200 
C 211 -3 166 -314 166 -435 
C 166 -898 749 -1280 1498 -1280 
C 2253 -1280 2835 -898 2835 -428 
C 2835 448 1856 448 1587 448 
L 1069 448 
C 973 448 717 448 717 791 
C 717 921 774 1004 781 1010 
C 877 940 1075 832 1338 832 
C 1869 832 2310 1278 2310 1827 
C 2310 2132 2170 2355 2112 2432 
L 2131 2432 
C 2150 2432 2419 2432 2515 2432 
C 2720 2432 2739 2429 2918 2419 
L 2848 2808 
z
M 1338 1182 
C 1120 1182 813 1315 813 1823 
C 813 2375 1165 2464 1331 2464 
C 1549 2464 1856 2331 1856 1823 
C 1856 1271 1504 1182 1338 1182 
z
M 1581 -10 
C 1734 -10 2381 -10 2381 -442 
C 2381 -714 1984 -929 1504 -929 
C 1018 -929 621 -720 621 -435 
C 621 -403 621 -10 1062 -10 
L 1581 -10 
z
" transform="scale(0.015625)"/>
     </defs>
     <use xlink:href="#CMSS17-50" transform="scale(0.996264)"/>
     <use xlink:href="#CMSS17-72" transform="translate(59.735586 0) scale(0.996264)"/>
     <use xlink:href="#CMSS17-6f" transform="translate(91.645359 0) scale(0.996264)"/>
     <use xlink:href="#CMSS17-62" transform="translate(138.488982 0) scale(0.996264)"/>
     <use xlink:href="#CMSS17-6c" transform="translate(186.693925 0) scale(0.996264)"/>
     <use xlink:href="#CMSS17-65" transform="translate(208.874649 0) scale(0.996264)"/>
     <use xlink:href="#CMSS17-6d" transform="translate(250.513471 0) scale(0.996264)"/>
     <use xlink:href="#CMSS17-53" transform="translate(355.971838 0) scale(0.996264)"/>
     <use xlink:href="#CMSS17-6f" transform="translate(408.020354 0) scale(0.996264)"/>
     <use xlink:href="#CMSS17-6c" transform="translate(454.863977 0) scale(0.996264)"/>
     <use xlink:href="#CMSS17-76" transform="translate(477.044701 0) scale(0.996264)"/>
     <use xlink:href="#CMSS17-69" transform="translate(520.044842 0) scale(0.996264)"/>
     <use xlink:href="#CMSS17-6e" transform="translate(542.225565 0) scale(0.996264)"/>
     <use xlink:href="#CMSS17-67" transform="translate(590.430508 0) scale(0.996264)"/>
    </g>
   </g>
   <g id="text_10">
    <!-- Specificity -->
    <g transform="translate(163.744673 210.540528) rotate(-315) scale(0.12 -0.12)">
     <defs>
      <path id="CMSS17-63" d="M 2464 2541 
C 2464 2585 2170 2714 2093 2739 
C 1882 2816 1613 2816 1542 2816 
C 710 2816 211 2093 211 1363 
C 211 595 768 -64 1517 -64 
C 1946 -64 2253 76 2502 242 
L 2464 664 
C 2189 453 1869 337 1523 337 
C 1024 337 698 774 698 1369 
C 698 1831 909 2414 1549 2414 
C 1901 2414 2099 2343 2394 2145 
L 2464 2541 
z
" transform="scale(0.015625)"/>
      <path id="CMSS17-c" d="M 2752 4416 
L 2240 4416 
L 2240 3906 
L 2752 3906 
L 2752 4416 
z
M 2733 2737 
L 2259 2737 
L 2259 0 
L 2733 0 
L 2733 2737 
z
M 1075 2368 
L 1773 2368 
L 1773 2737 
L 1062 2737 
L 1062 3578 
C 1062 3919 1216 4092 1421 4092 
C 1542 4092 1664 4056 1773 3992 
L 1773 4410 
C 1722 4428 1574 4480 1421 4480 
C 941 4480 602 3993 602 3372 
L 602 2737 
L 160 2737 
L 160 2368 
L 602 2368 
L 602 0 
L 1075 0 
L 1075 2368 
z
" transform="scale(0.015625)"/>
     </defs>
     <use xlink:href="#CMSS17-53" transform="scale(0.996264)"/>
     <use xlink:href="#CMSS17-70" transform="translate(52.048516 0) scale(0.996264)"/>
     <use xlink:href="#CMSS17-65" transform="translate(102.855898 0) scale(0.996264)"/>
     <use xlink:href="#CMSS17-63" transform="translate(144.49472 0) scale(0.996264)"/>
     <use xlink:href="#CMSS17-69" transform="translate(186.133542 0) scale(0.996264)"/>
     <use xlink:href="#CMSS17-c" transform="translate(208.314265 0) scale(0.996264)"/>
     <use xlink:href="#CMSS17-63" transform="translate(258.441002 0) scale(0.996264)"/>
     <use xlink:href="#CMSS17-69" transform="translate(300.079825 0) scale(0.996264)"/>
     <use xlink:href="#CMSS17-74" transform="translate(322.260548 0) scale(0.996264)"/>
     <use xlink:href="#CMSS17-79" transform="translate(353.48966 0) scale(0.996264)"/>
    </g>
   </g>
   <g id="text_11">
    <!-- Technical Accuracy -->
    <g transform="translate(207.144673 210.540528) rotate(-315) scale(0.12 -0.12)">
     <defs>
      <path id="CMSS17-54" d="M 2317 3968 
L 2848 3968 
C 2925 3968 3002 3968 3078 3968 
L 3878 3968 
L 3878 4376 
L 218 4376 
L 218 3968 
L 1018 3968 
C 1094 3968 1171 3968 1248 3968 
L 1779 3968 
L 1779 -32 
L 2317 -32 
L 2317 3968 
z
" transform="scale(0.015625)"/>
      <path id="CMSS17-41" d="M 2272 4416 
L 1722 4416 
L 166 0 
L 653 0 
L 1101 1280 
L 2816 1280 
L 3270 0 
L 3827 0 
L 2272 4416 
z
M 2694 1637 
L 1222 1637 
C 1530 2528 1914 3638 1958 3925 
L 1965 3925 
C 2010 3663 2138 3281 2246 2956 
L 2694 1637 
z
" transform="scale(0.015625)"/>
      <path id="CMSS17-75" d="M 2618 2739 
L 2131 2739 
L 2131 972 
C 2131 498 1786 306 1421 306 
C 998 306 960 447 960 709 
L 960 2739 
L 474 2739 
L 474 678 
C 474 179 646 -64 1088 -64 
C 1306 -64 1798 -13 2144 306 
L 2144 0 
L 2618 0 
L 2618 2739 
z
" transform="scale(0.015625)"/>
     </defs>
     <use xlink:href="#CMSS17-54" transform="scale(0.996264)"/>
     <use xlink:href="#CMSS17-65" transform="translate(56.012199 0) scale(0.996264)"/>
     <use xlink:href="#CMSS17-63" transform="translate(97.651021 0) scale(0.996264)"/>
     <use xlink:href="#CMSS17-68" transform="translate(139.289843 0) scale(0.996264)"/>
     <use xlink:href="#CMSS17-6e" transform="translate(187.494786 0) scale(0.996264)"/>
     <use xlink:href="#CMSS17-69" transform="translate(235.699729 0) scale(0.996264)"/>
     <use xlink:href="#CMSS17-63" transform="translate(257.880452 0) scale(0.996264)"/>
     <use xlink:href="#CMSS17-61" transform="translate(299.519274 0) scale(0.996264)"/>
     <use xlink:href="#CMSS17-6c" transform="translate(344.441195 0) scale(0.996264)"/>
     <use xlink:href="#CMSS17-41" transform="translate(397.85103 0) scale(0.996264)"/>
     <use xlink:href="#CMSS17-63" transform="translate(460.068885 0) scale(0.996264)"/>
     <use xlink:href="#CMSS17-63" transform="translate(501.707707 0) scale(0.996264)"/>
     <use xlink:href="#CMSS17-75" transform="translate(543.346529 0) scale(0.996264)"/>
     <use xlink:href="#CMSS17-72" transform="translate(591.551473 0) scale(0.996264)"/>
     <use xlink:href="#CMSS17-61" transform="translate(623.461245 0) scale(0.996264)"/>
     <use xlink:href="#CMSS17-63" transform="translate(668.383166 0) scale(0.996264)"/>
     <use xlink:href="#CMSS17-79" transform="translate(710.021988 0) scale(0.996264)"/>
    </g>
   </g>
   <g id="text_12">
    <!-- All -->
    <g transform="translate(250.544673 210.540528) rotate(-315) scale(0.12 -0.12)">
     <use xlink:href="#CMSS17-41" transform="scale(0.996264)"/>
     <use xlink:href="#CMSS17-6c" transform="translate(62.217855 0) scale(0.996264)"/>
     <use xlink:href="#CMSS17-6c" transform="translate(84.398578 0) scale(0.996264)"/>
    </g>
   </g>
   <g id="text_13">
    <!-- Real World -->
    <g transform="translate(293.944673 210.540528) rotate(-315) scale(0.12 -0.12)">
     <defs>
      <path id="CMSS17-52" d="M 2522 2109 
L 2534 2115 
C 3533 2459 3539 3147 3539 3268 
C 3539 3873 2925 4453 2003 4453 
L 570 4453 
L 570 32 
L 1094 32 
L 1094 2048 
L 2035 2048 
L 3168 32 
L 3706 32 
L 2522 2109 
z
M 1094 2437 
L 1094 4096 
L 1933 4096 
C 2746 4096 3034 3637 3034 3267 
C 3034 2922 2778 2437 1933 2437 
L 1094 2437 
z
" transform="scale(0.015625)"/>
      <path id="CMSS17-57" d="M 5581 4416 
L 5094 4416 
L 4557 2437 
C 4474 2118 4397 1801 4320 1482 
C 4205 1011 4122 681 4109 515 
L 4102 515 
C 4090 687 4006 1049 3904 1457 
C 3827 1795 3744 2131 3654 2462 
L 3123 4416 
L 2586 4416 
L 2080 2562 
L 1824 1549 
C 1632 747 1626 632 1613 505 
L 1606 505 
C 1606 543 1581 753 1402 1498 
C 1312 1868 1222 2244 1126 2601 
L 634 4416 
L 83 4416 
L 1299 0 
L 1830 0 
L 2336 1839 
L 2592 2851 
C 2765 3564 2803 3742 2816 3901 
L 2822 3901 
C 2822 3876 2880 3474 3130 2545 
L 3808 0 
L 4365 0 
L 5581 4416 
z
" transform="scale(0.015625)"/>
     </defs>
     <use xlink:href="#CMSS17-52" transform="scale(0.996264)"/>
     <use xlink:href="#CMSS17-65" transform="translate(60.416155 0) scale(0.996264)"/>
     <use xlink:href="#CMSS17-61" transform="translate(102.054977 0) scale(0.996264)"/>
     <use xlink:href="#CMSS17-6c" transform="translate(146.976898 0) scale(0.996264)"/>
     <use xlink:href="#CMSS17-57" transform="translate(200.386733 0) scale(0.996264)"/>
     <use xlink:href="#CMSS17-6f" transform="translate(286.026446 0) scale(0.996264)"/>
     <use xlink:href="#CMSS17-72" transform="translate(330.267615 0) scale(0.996264)"/>
     <use xlink:href="#CMSS17-6c" transform="translate(362.177388 0) scale(0.996264)"/>
     <use xlink:href="#CMSS17-64" transform="translate(384.358111 0) scale(0.996264)"/>
    </g>
   </g>
   <g id="text_14">
    <!-- Domain Knowledge -->
    <g transform="translate(337.344673 210.540528) rotate(-315) scale(0.12 -0.12)">
     <defs>
      <path id="CMSS17-44" d="M 570 4416 
L 570 0 
L 2144 0 
C 3194 0 4000 980 4000 2170 
C 4000 3398 3194 4416 2144 4416 
L 570 4416 
z
M 1094 357 
L 1094 4059 
L 2003 4059 
C 2861 4059 3475 3277 3475 2170 
C 3475 1107 2867 357 2003 357 
L 1094 357 
z
" transform="scale(0.015625)"/>
      <path id="CMSS17-77" d="M 4013 2752 
L 3526 2752 
L 3187 1601 
C 3117 1358 2918 685 2893 371 
L 2886 371 
C 2874 564 2765 1024 2586 1633 
L 2259 2752 
L 1818 2752 
L 1498 1658 
C 1338 1101 1216 627 1203 371 
L 1197 371 
C 1171 749 909 1633 870 1773 
L 582 2752 
L 83 2752 
L 915 0 
L 1402 0 
C 1734 1096 1990 1943 2010 2370 
C 2022 2160 2131 1707 2195 1484 
L 2618 0 
L 3181 0 
L 4013 2752 
z
" transform="scale(0.015625)"/>
     </defs>
     <use xlink:href="#CMSS17-44" transform="scale(0.996264)"/>
     <use xlink:href="#CMSS17-6f" transform="translate(67.542842 0) scale(0.996264)"/>
     <use xlink:href="#CMSS17-6d" transform="translate(114.386465 0) scale(0.996264)"/>
     <use xlink:href="#CMSS17-61" transform="translate(188.61572 0) scale(0.996264)"/>
     <use xlink:href="#CMSS17-69" transform="translate(233.53764 0) scale(0.996264)"/>
     <use xlink:href="#CMSS17-6e" transform="translate(255.718363 0) scale(0.996264)"/>
     <use xlink:href="#CMSS17-4b" transform="translate(335.152419 0) scale(0.996264)"/>
     <use xlink:href="#CMSS17-6e" transform="translate(399.972713 0) scale(0.996264)"/>
     <use xlink:href="#CMSS17-6f" transform="translate(448.177656 0) scale(0.996264)"/>
     <use xlink:href="#CMSS17-77" transform="translate(492.418826 0) scale(0.996264)"/>
     <use xlink:href="#CMSS17-6c" transform="translate(556.238371 0) scale(0.996264)"/>
     <use xlink:href="#CMSS17-65" transform="translate(578.419094 0) scale(0.996264)"/>
     <use xlink:href="#CMSS17-64" transform="translate(620.057916 0) scale(0.996264)"/>
     <use xlink:href="#CMSS17-67" transform="translate(668.262859 0) scale(0.996264)"/>
     <use xlink:href="#CMSS17-65" transform="translate(715.106482 0) scale(0.996264)"/>
    </g>
   </g>
   <g id="text_15">
    <!-- Creativity -->
    <g transform="translate(380.744673 210.540528) rotate(-315) scale(0.12 -0.12)">
     <use xlink:href="#CMSS17-43" transform="scale(0.996264)"/>
     <use xlink:href="#CMSS17-72" transform="translate(59.855772 0) scale(0.996264)"/>
     <use xlink:href="#CMSS17-65" transform="translate(91.765544 0) scale(0.996264)"/>
     <use xlink:href="#CMSS17-61" transform="translate(133.404366 0) scale(0.996264)"/>
     <use xlink:href="#CMSS17-74" transform="translate(178.326287 0) scale(0.996264)"/>
     <use xlink:href="#CMSS17-69" transform="translate(212.157853 0) scale(0.996264)"/>
     <use xlink:href="#CMSS17-76" transform="translate(234.338577 0) scale(0.996264)"/>
     <use xlink:href="#CMSS17-69" transform="translate(277.338718 0) scale(0.996264)"/>
     <use xlink:href="#CMSS17-74" transform="translate(299.519441 0) scale(0.996264)"/>
     <use xlink:href="#CMSS17-79" transform="translate(330.748554 0) scale(0.996264)"/>
    </g>
   </g>
  </g>
 </g>
 <defs>
  <clipPath id="p9363160386">
   <rect x="15.975936" y="8.489529" width="136.08" height="6.804"/>
  </clipPath>
  <clipPath id="p78195d09f8">
   <rect x="13.455936" y="7.2" width="390.6" height="195.3"/>
  </clipPath>
 </defs>
</svg>
