<?xml version="1.0" encoding="utf-8" standalone="no"?>
<!DOCTYPE svg PUBLIC "-//W3C//DTD SVG 1.1//EN"
  "http://www.w3.org/Graphics/SVG/1.1/DTD/svg11.dtd">
<svg xmlns:xlink="http://www.w3.org/1999/xlink" width="633.24492pt" height="312.48pt" viewBox="0 0 633.24492 312.48" xmlns="http://www.w3.org/2000/svg" version="1.1">
 <metadata>
  <rdf:RDF xmlns:dc="http://purl.org/dc/elements/1.1/" xmlns:cc="http://creativecommons.org/ns#" xmlns:rdf="http://www.w3.org/1999/02/22-rdf-syntax-ns#">
   <cc:Work>
    <dc:type rdf:resource="http://purl.org/dc/dcmitype/StillImage"/>
    <dc:date>2024-12-17T13:56:23.190125</dc:date>
    <dc:format>image/svg+xml</dc:format>
    <dc:creator>
     <cc:Agent>
      <dc:title>Matplotlib v3.9.2, https://matplotlib.org/</dc:title>
     </cc:Agent>
    </dc:creator>
   </cc:Work>
  </rdf:RDF>
 </metadata>
 <defs>
  <style type="text/css">*{stroke-linejoin: round; stroke-linecap: butt}</style>
 </defs>
 <g id="figure_1">
  <g id="patch_1">
   <path d="M -0 312.48 
L 633.24492 312.48 
L 633.24492 0 
L -0 0 
L -0 312.48 
z
" style="fill: none"/>
  </g>
  <g id="axes_1">
   <g id="patch_2">
    <path d="M 46.284417 252.482984 
L 600.228566 252.482984 
L 600.228566 21.50218 
L 46.284417 21.50218 
L 46.284417 252.482984 
z
" style="fill: none"/>
   </g>
   <g id="matplotlib.axis_1">
    <g id="xtick_1">
     <g id="line2d_1">
      <defs>
       <path id="m869ba58437" d="M 0 0 
L 0 6 
" style="stroke: #262626; stroke-width: 1.25"/>
      </defs>
      <g>
       <use xlink:href="#m869ba58437" x="56.937189" y="252.482984" style="fill: #262626; stroke: #262626; stroke-width: 1.25"/>
      </g>
     </g>
     <g id="text_1">
      <!-- All -->
      <g style="fill: #262626" transform="translate(50.400105 268.434989) rotate(-321) scale(0.12 -0.12)">
       <defs>
        <path id="CMSS17-41" d="M 2272 4416 
L 1722 4416 
L 166 0 
L 653 0 
L 1101 1280 
L 2816 1280 
L 3270 0 
L 3827 0 
L 2272 4416 
z
M 2694 1637 
L 1222 1637 
C 1530 2528 1914 3638 1958 3925 
L 1965 3925 
C 2010 3663 2138 3281 2246 2956 
L 2694 1637 
z
" transform="scale(0.015625)"/>
        <path id="CMSS17-6c" d="M 947 4416 
L 474 4416 
L 474 0 
L 947 0 
L 947 4416 
z
" transform="scale(0.015625)"/>
       </defs>
       <use xlink:href="#CMSS17-41" transform="scale(0.996264)"/>
       <use xlink:href="#CMSS17-6c" transform="translate(62.217855 0) scale(0.996264)"/>
       <use xlink:href="#CMSS17-6c" transform="translate(84.398578 0) scale(0.996264)"/>
      </g>
     </g>
    </g>
    <g id="xtick_2">
     <g id="line2d_2">
      <g>
       <use xlink:href="#m869ba58437" x="74.69181" y="252.482984" style="fill: #262626; stroke: #262626; stroke-width: 1.25"/>
      </g>
     </g>
     <g id="text_2">
      <!-- English -->
      <g style="fill: #262626" transform="translate(68.154725 268.434989) rotate(-321) scale(0.12 -0.12)">
       <defs>
        <path id="CMSS17-45" d="M 1958 433 
C 1446 433 1216 433 1101 433 
L 1101 2107 
L 3085 2107 
L 3085 2496 
L 1101 2496 
L 1101 4009 
L 1926 4009 
C 2003 4009 2080 4009 2157 4009 
L 3251 4009 
L 3251 4416 
L 563 4416 
L 563 0 
L 3334 0 
L 3334 433 
L 1958 433 
z
" transform="scale(0.015625)"/>
        <path id="CMSS17-6e" d="M 2618 1877 
C 2618 2283 2522 2816 1798 2816 
C 1389 2816 1120 2606 941 2389 
L 941 2758 
L 474 2758 
L 474 0 
L 960 0 
L 960 1559 
C 960 1964 1114 2428 1549 2428 
C 2112 2428 2131 2048 2131 1829 
L 2131 0 
L 2618 0 
L 2618 1877 
z
" transform="scale(0.015625)"/>
        <path id="CMSS17-67" d="M 2848 2808 
C 2483 2808 2170 2738 1914 2617 
C 1702 2777 1485 2808 1338 2808 
C 781 2808 358 2349 358 1814 
C 358 1468 550 1207 563 1195 
C 448 1035 384 863 384 672 
C 384 448 474 289 544 200 
C 211 -3 166 -314 166 -435 
C 166 -898 749 -1280 1498 -1280 
C 2253 -1280 2835 -898 2835 -428 
C 2835 448 1856 448 1587 448 
L 1069 448 
C 973 448 717 448 717 791 
C 717 921 774 1004 781 1010 
C 877 940 1075 832 1338 832 
C 1869 832 2310 1278 2310 1827 
C 2310 2132 2170 2355 2112 2432 
L 2131 2432 
C 2150 2432 2419 2432 2515 2432 
C 2720 2432 2739 2429 2918 2419 
L 2848 2808 
z
M 1338 1182 
C 1120 1182 813 1315 813 1823 
C 813 2375 1165 2464 1331 2464 
C 1549 2464 1856 2331 1856 1823 
C 1856 1271 1504 1182 1338 1182 
z
M 1581 -10 
C 1734 -10 2381 -10 2381 -442 
C 2381 -714 1984 -929 1504 -929 
C 1018 -929 621 -720 621 -435 
C 621 -403 621 -10 1062 -10 
L 1581 -10 
z
" transform="scale(0.015625)"/>
        <path id="CMSS17-69" d="M 979 4183 
L 442 4183 
L 442 3648 
L 979 3648 
L 979 4183 
z
M 947 2739 
L 474 2739 
L 474 0 
L 947 0 
L 947 2739 
z
" transform="scale(0.015625)"/>
        <path id="CMSS17-73" d="M 2061 2627 
C 1683 2807 1389 2807 1197 2807 
C 742 2807 198 2648 198 2003 
C 198 1359 902 1218 1094 1179 
C 1389 1122 1715 1058 1715 740 
C 1715 337 1254 337 1171 337 
C 915 337 563 407 243 638 
L 166 210 
C 531 0 883 -64 1178 -64 
C 1965 -64 2163 416 2163 781 
C 2163 1094 1984 1305 1862 1401 
C 1651 1568 1574 1587 1050 1696 
C 960 1709 646 1779 646 2066 
C 646 2432 1050 2432 1139 2432 
C 1555 2432 1811 2303 1984 2208 
L 2061 2627 
z
" transform="scale(0.015625)"/>
        <path id="CMSS17-68" d="M 2618 1891 
C 2618 2292 2522 2820 1798 2820 
C 1395 2820 1133 2623 947 2407 
L 947 4448 
L 474 4448 
L 474 32 
L 960 32 
L 960 1573 
C 960 1973 1114 2432 1549 2432 
C 2112 2432 2131 2056 2131 1839 
L 2131 32 
L 2618 32 
L 2618 1891 
z
" transform="scale(0.015625)"/>
       </defs>
       <use xlink:href="#CMSS17-45" transform="scale(0.996264)"/>
       <use xlink:href="#CMSS17-6e" transform="translate(55.892013 0) scale(0.996264)"/>
       <use xlink:href="#CMSS17-67" transform="translate(104.096956 0) scale(0.996264)"/>
       <use xlink:href="#CMSS17-6c" transform="translate(150.94058 0) scale(0.996264)"/>
       <use xlink:href="#CMSS17-69" transform="translate(173.121303 0) scale(0.996264)"/>
       <use xlink:href="#CMSS17-73" transform="translate(195.302026 0) scale(0.996264)"/>
       <use xlink:href="#CMSS17-68" transform="translate(231.215568 0) scale(0.996264)"/>
      </g>
     </g>
    </g>
    <g id="xtick_3">
     <g id="line2d_3">
      <g>
       <use xlink:href="#m869ba58437" x="92.44643" y="252.482984" style="fill: #262626; stroke: #262626; stroke-width: 1.25"/>
      </g>
     </g>
     <g id="text_3">
      <!-- Chinese -->
      <g style="fill: #262626" transform="translate(85.909345 268.434989) rotate(-321) scale(0.12 -0.12)">
       <defs>
        <path id="CMSS17-43" d="M 3501 714 
C 3072 427 2874 344 2355 344 
C 1459 344 934 1303 934 2179 
C 934 3112 1472 4032 2381 4032 
C 2790 4032 3059 3918 3386 3715 
L 3475 4217 
C 3168 4370 2778 4440 2387 4440 
C 1158 4440 397 3316 397 2179 
C 397 927 1299 -64 2323 -64 
C 2874 -64 3066 -19 3539 280 
L 3501 714 
z
" transform="scale(0.015625)"/>
        <path id="CMSS17-65" d="M 2502 1377 
C 2502 1590 2490 2003 2285 2345 
C 2061 2713 1696 2816 1421 2816 
C 755 2816 192 2188 192 1375 
C 192 582 774 -64 1510 -64 
C 1798 -64 2150 19 2470 248 
C 2470 274 2458 414 2451 420 
C 2451 433 2432 630 2432 656 
C 2125 407 1773 325 1517 325 
C 1107 325 666 667 646 1377 
L 2502 1377 
z
M 698 1728 
C 781 2084 1062 2421 1421 2421 
C 1517 2421 1965 2421 2080 1728 
L 698 1728 
z
" transform="scale(0.015625)"/>
       </defs>
       <use xlink:href="#CMSS17-43" transform="scale(0.996264)"/>
       <use xlink:href="#CMSS17-68" transform="translate(59.855772 0) scale(0.996264)"/>
       <use xlink:href="#CMSS17-69" transform="translate(108.060715 0) scale(0.996264)"/>
       <use xlink:href="#CMSS17-6e" transform="translate(130.241438 0) scale(0.996264)"/>
       <use xlink:href="#CMSS17-65" transform="translate(178.446381 0) scale(0.996264)"/>
       <use xlink:href="#CMSS17-73" transform="translate(220.085203 0) scale(0.996264)"/>
       <use xlink:href="#CMSS17-65" transform="translate(255.998745 0) scale(0.996264)"/>
      </g>
     </g>
    </g>
    <g id="xtick_4">
     <g id="line2d_4">
      <g>
       <use xlink:href="#m869ba58437" x="110.20105" y="252.482984" style="fill: #262626; stroke: #262626; stroke-width: 1.25"/>
      </g>
     </g>
     <g id="text_4">
      <!-- Russian -->
      <g style="fill: #262626" transform="translate(103.663965 268.434989) rotate(-321) scale(0.12 -0.12)">
       <defs>
        <path id="CMSS17-52" d="M 2522 2109 
L 2534 2115 
C 3533 2459 3539 3147 3539 3268 
C 3539 3873 2925 4453 2003 4453 
L 570 4453 
L 570 32 
L 1094 32 
L 1094 2048 
L 2035 2048 
L 3168 32 
L 3706 32 
L 2522 2109 
z
M 1094 2437 
L 1094 4096 
L 1933 4096 
C 2746 4096 3034 3637 3034 3267 
C 3034 2922 2778 2437 1933 2437 
L 1094 2437 
z
" transform="scale(0.015625)"/>
        <path id="CMSS17-75" d="M 2618 2739 
L 2131 2739 
L 2131 972 
C 2131 498 1786 306 1421 306 
C 998 306 960 447 960 709 
L 960 2739 
L 474 2739 
L 474 678 
C 474 179 646 -64 1088 -64 
C 1306 -64 1798 -13 2144 306 
L 2144 0 
L 2618 0 
L 2618 2739 
z
" transform="scale(0.015625)"/>
        <path id="CMSS17-61" d="M 2406 1791 
C 2406 2392 1978 2808 1402 2808 
C 1120 2808 813 2757 461 2553 
L 499 2135 
C 659 2248 934 2432 1395 2432 
C 1722 2432 1920 2180 1920 1782 
L 1920 1536 
C 896 1536 256 1238 256 726 
C 256 461 416 -64 947 -64 
C 1043 -64 1562 -64 1933 217 
L 1933 -19 
L 2406 -19 
L 2406 1791 
z
M 1920 816 
C 1920 701 1920 548 1728 434 
C 1562 325 1350 325 1261 325 
C 941 325 723 511 723 744 
C 723 1211 1722 1211 1920 1211 
L 1920 816 
z
" transform="scale(0.015625)"/>
       </defs>
       <use xlink:href="#CMSS17-52" transform="scale(0.996264)"/>
       <use xlink:href="#CMSS17-75" transform="translate(60.416155 0) scale(0.996264)"/>
       <use xlink:href="#CMSS17-73" transform="translate(108.621098 0) scale(0.996264)"/>
       <use xlink:href="#CMSS17-73" transform="translate(144.53464 0) scale(0.996264)"/>
       <use xlink:href="#CMSS17-69" transform="translate(180.448182 0) scale(0.996264)"/>
       <use xlink:href="#CMSS17-61" transform="translate(202.628905 0) scale(0.996264)"/>
       <use xlink:href="#CMSS17-6e" transform="translate(247.550826 0) scale(0.996264)"/>
      </g>
     </g>
    </g>
    <g id="xtick_5">
     <g id="line2d_5">
      <g>
       <use xlink:href="#m869ba58437" x="127.95567" y="252.482984" style="fill: #262626; stroke: #262626; stroke-width: 1.25"/>
      </g>
     </g>
     <g id="text_5">
      <!-- German -->
      <g style="fill: #262626" transform="translate(121.418586 268.434989) rotate(-321) scale(0.12 -0.12)">
       <defs>
        <path id="CMSS17-47" d="M 3610 1856 
L 2336 1856 
L 2336 1461 
L 3123 1461 
L 3123 471 
C 2874 401 2618 350 2362 350 
C 1466 350 934 1301 934 2200 
C 934 3095 1491 4032 2362 4032 
C 2854 4032 3130 3881 3469 3627 
L 3552 4134 
C 3130 4351 2867 4440 2387 4440 
C 1146 4440 397 3324 397 2182 
C 397 1090 1152 -64 2349 -64 
C 2797 -64 3213 51 3610 248 
L 3610 1856 
z
" transform="scale(0.015625)"/>
        <path id="CMSS17-72" d="M 954 1363 
C 954 1965 1395 2368 1958 2368 
L 1958 2789 
C 1549 2789 1165 2585 934 2253 
L 934 2758 
L 480 2758 
L 480 0 
L 954 0 
L 954 1363 
z
" transform="scale(0.015625)"/>
        <path id="CMSS17-6d" d="M 4288 1877 
C 4288 2308 4179 2816 3462 2816 
C 2982 2816 2694 2516 2566 2331 
C 2451 2670 2182 2816 1798 2816 
C 1363 2816 1088 2568 941 2389 
L 941 2758 
L 474 2758 
L 474 0 
L 960 0 
L 960 1559 
C 960 1939 1101 2428 1555 2428 
C 2138 2428 2138 2016 2138 1829 
L 2138 0 
L 2624 0 
L 2624 1559 
C 2624 1939 2765 2428 3219 2428 
C 3802 2428 3802 2016 3802 1829 
L 3802 0 
L 4288 0 
L 4288 1877 
z
" transform="scale(0.015625)"/>
       </defs>
       <use xlink:href="#CMSS17-47" transform="scale(0.996264)"/>
       <use xlink:href="#CMSS17-65" transform="translate(62.458226 0) scale(0.996264)"/>
       <use xlink:href="#CMSS17-72" transform="translate(104.097048 0) scale(0.996264)"/>
       <use xlink:href="#CMSS17-6d" transform="translate(136.00682 0) scale(0.996264)"/>
       <use xlink:href="#CMSS17-61" transform="translate(210.236075 0) scale(0.996264)"/>
       <use xlink:href="#CMSS17-6e" transform="translate(255.157995 0) scale(0.996264)"/>
      </g>
     </g>
    </g>
    <g id="xtick_6">
     <g id="line2d_6">
      <g>
       <use xlink:href="#m869ba58437" x="145.71029" y="252.482984" style="fill: #262626; stroke: #262626; stroke-width: 1.25"/>
      </g>
     </g>
     <g id="text_6">
      <!-- Korean -->
      <g style="fill: #262626" transform="translate(139.173206 268.434989) rotate(-321) scale(0.12 -0.12)">
       <defs>
        <path id="CMSS17-4b" d="M 2234 2666 
L 3827 4416 
L 3213 4416 
L 1101 2106 
L 1101 4416 
L 563 4416 
L 563 0 
L 1101 0 
L 1101 1432 
L 1875 2278 
L 3315 0 
L 3910 0 
L 2234 2666 
z
" transform="scale(0.015625)"/>
        <path id="CMSS17-6f" d="M 2829 1356 
C 2829 2176 2221 2816 1504 2816 
C 768 2816 173 2157 173 1356 
C 173 544 787 -64 1498 -64 
C 2227 -64 2829 563 2829 1356 
z
M 1504 337 
C 1050 337 659 709 659 1408 
C 659 2151 1114 2427 1498 2427 
C 1914 2427 2342 2126 2342 1408 
C 2342 683 1926 337 1504 337 
z
" transform="scale(0.015625)"/>
       </defs>
       <use xlink:href="#CMSS17-4b" transform="scale(0.996264)"/>
       <use xlink:href="#CMSS17-6f" transform="translate(64.820294 0) scale(0.996264)"/>
       <use xlink:href="#CMSS17-72" transform="translate(109.061463 0) scale(0.996264)"/>
       <use xlink:href="#CMSS17-65" transform="translate(140.971236 0) scale(0.996264)"/>
       <use xlink:href="#CMSS17-61" transform="translate(182.610058 0) scale(0.996264)"/>
       <use xlink:href="#CMSS17-6e" transform="translate(227.531978 0) scale(0.996264)"/>
      </g>
     </g>
    </g>
    <g id="xtick_7">
     <g id="line2d_7">
      <g>
       <use xlink:href="#m869ba58437" x="163.46491" y="252.482984" style="fill: #262626; stroke: #262626; stroke-width: 1.25"/>
      </g>
     </g>
     <g id="text_7">
      <!-- Japanese -->
      <g style="fill: #262626" transform="translate(156.927826 268.434989) rotate(-321) scale(0.12 -0.12)">
       <defs>
        <path id="CMSS17-4a" d="M 2336 4384 
L 1811 4384 
L 1811 940 
C 1811 636 1683 261 1107 261 
C 781 261 506 414 333 604 
L 250 140 
C 646 -71 1011 -128 1280 -128 
C 1901 -128 2336 228 2336 920 
L 2336 4384 
z
" transform="scale(0.015625)"/>
        <path id="CMSS17-70" d="M 966 333 
C 1178 129 1466 -5 1773 -5 
C 2368 -5 2880 603 2880 1412 
C 2880 2159 2496 2816 1946 2816 
C 1626 2816 1242 2702 954 2472 
L 954 2765 
L 480 2765 
L 480 -1216 
L 966 -1216 
L 966 333 
z
M 966 2100 
C 1018 2176 1235 2415 1587 2415 
C 2035 2415 2394 1960 2394 1412 
C 2394 787 1958 384 1530 384 
C 1402 384 1267 415 1139 523 
C 966 674 966 768 966 857 
L 966 2100 
z
" transform="scale(0.015625)"/>
       </defs>
       <use xlink:href="#CMSS17-4a" transform="scale(0.996264)"/>
       <use xlink:href="#CMSS17-61" transform="translate(44.121076 0) scale(0.996264)"/>
       <use xlink:href="#CMSS17-70" transform="translate(89.042996 0) scale(0.996264)"/>
       <use xlink:href="#CMSS17-61" transform="translate(137.247939 0) scale(0.996264)"/>
       <use xlink:href="#CMSS17-6e" transform="translate(182.16986 0) scale(0.996264)"/>
       <use xlink:href="#CMSS17-65" transform="translate(230.374803 0) scale(0.996264)"/>
       <use xlink:href="#CMSS17-73" transform="translate(272.013625 0) scale(0.996264)"/>
       <use xlink:href="#CMSS17-65" transform="translate(307.927167 0) scale(0.996264)"/>
      </g>
     </g>
    </g>
    <g id="xtick_8">
     <g id="line2d_8">
      <g>
       <use xlink:href="#m869ba58437" x="181.219531" y="252.482984" style="fill: #262626; stroke: #262626; stroke-width: 1.25"/>
      </g>
     </g>
     <g id="text_8">
      <!-- French -->
      <g style="fill: #262626" transform="translate(174.682446 268.434989) rotate(-321) scale(0.12 -0.12)">
       <defs>
        <path id="CMSS17-46" d="M 2918 1984 
L 2918 2373 
L 1101 2373 
L 1101 3968 
L 1882 3968 
C 1958 3968 2035 3968 2112 3968 
L 3168 3968 
L 3168 4375 
L 563 4375 
L 563 -32 
L 1101 -32 
L 1101 1984 
L 2918 1984 
z
" transform="scale(0.015625)"/>
        <path id="CMSS17-63" d="M 2464 2541 
C 2464 2585 2170 2714 2093 2739 
C 1882 2816 1613 2816 1542 2816 
C 710 2816 211 2093 211 1363 
C 211 595 768 -64 1517 -64 
C 1946 -64 2253 76 2502 242 
L 2464 664 
C 2189 453 1869 337 1523 337 
C 1024 337 698 774 698 1369 
C 698 1831 909 2414 1549 2414 
C 1901 2414 2099 2343 2394 2145 
L 2464 2541 
z
" transform="scale(0.015625)"/>
       </defs>
       <use xlink:href="#CMSS17-46" transform="scale(0.996264)"/>
       <use xlink:href="#CMSS17-72" transform="translate(50.687105 0) scale(0.996264)"/>
       <use xlink:href="#CMSS17-65" transform="translate(82.596878 0) scale(0.996264)"/>
       <use xlink:href="#CMSS17-6e" transform="translate(124.2357 0) scale(0.996264)"/>
       <use xlink:href="#CMSS17-63" transform="translate(172.440643 0) scale(0.996264)"/>
       <use xlink:href="#CMSS17-68" transform="translate(214.079465 0) scale(0.996264)"/>
      </g>
     </g>
    </g>
    <g id="xtick_9">
     <g id="line2d_9">
      <g>
       <use xlink:href="#m869ba58437" x="198.974151" y="252.482984" style="fill: #262626; stroke: #262626; stroke-width: 1.25"/>
      </g>
     </g>
     <g id="text_9">
      <!-- Spanish -->
      <g style="fill: #262626" transform="translate(192.437066 268.434989) rotate(-321) scale(0.12 -0.12)">
       <defs>
        <path id="CMSS17-53" d="M 2797 4169 
C 2515 4334 2208 4480 1690 4480 
C 864 4480 333 3879 333 3266 
C 333 3025 403 2753 653 2475 
C 902 2196 1184 2121 1542 2033 
C 1690 1994 1939 1924 1984 1906 
C 2342 1767 2515 1444 2515 1140 
C 2515 742 2202 318 1645 318 
C 1453 318 890 318 358 819 
L 269 318 
C 794 -64 1363 -128 1651 -128 
C 2438 -128 3002 488 3002 1186 
C 3002 1440 2925 1763 2656 2061 
C 2394 2347 2163 2410 1638 2549 
C 1338 2626 1146 2677 986 2873 
C 877 3013 819 3146 819 3317 
C 819 3673 1126 4060 1690 4060 
C 1971 4060 2336 4002 2707 3660 
L 2797 4169 
z
" transform="scale(0.015625)"/>
       </defs>
       <use xlink:href="#CMSS17-53" transform="scale(0.996264)"/>
       <use xlink:href="#CMSS17-70" transform="translate(52.048516 0) scale(0.996264)"/>
       <use xlink:href="#CMSS17-61" transform="translate(100.253459 0) scale(0.996264)"/>
       <use xlink:href="#CMSS17-6e" transform="translate(145.17538 0) scale(0.996264)"/>
       <use xlink:href="#CMSS17-69" transform="translate(193.380323 0) scale(0.996264)"/>
       <use xlink:href="#CMSS17-73" transform="translate(215.561046 0) scale(0.996264)"/>
       <use xlink:href="#CMSS17-68" transform="translate(251.474588 0) scale(0.996264)"/>
      </g>
     </g>
    </g>
    <g id="xtick_10">
     <g id="line2d_10">
      <g>
       <use xlink:href="#m869ba58437" x="216.728771" y="252.482984" style="fill: #262626; stroke: #262626; stroke-width: 1.25"/>
      </g>
     </g>
     <g id="text_10">
      <!-- Portuguese -->
      <g style="fill: #262626" transform="translate(210.191686 268.434989) rotate(-321) scale(0.12 -0.12)">
       <defs>
        <path id="CMSS17-50" d="M 2106 1856 
C 2874 1856 3501 2453 3501 3158 
C 3501 3850 2899 4453 2067 4453 
L 570 4453 
L 570 0 
L 1107 0 
L 1107 1856 
L 2106 1856 
z
M 1926 4096 
C 2669 4096 2995 3627 2995 3157 
C 2995 2720 2694 2226 1926 2226 
L 1094 2226 
L 1094 4096 
L 1926 4096 
z
" transform="scale(0.015625)"/>
        <path id="CMSS17-74" d="M 1069 2368 
L 1901 2368 
L 1901 2737 
L 1069 2737 
L 1069 3520 
L 614 3520 
L 614 2737 
L 109 2737 
L 109 2368 
L 602 2368 
L 602 749 
C 602 384 685 -64 1107 -64 
C 1427 -64 1722 25 2003 172 
L 1901 548 
C 1747 414 1562 337 1363 337 
C 1082 337 1069 696 1069 856 
L 1069 2368 
z
" transform="scale(0.015625)"/>
       </defs>
       <use xlink:href="#CMSS17-50" transform="scale(0.996264)"/>
       <use xlink:href="#CMSS17-6f" transform="translate(57.133132 0) scale(0.996264)"/>
       <use xlink:href="#CMSS17-72" transform="translate(101.374302 0) scale(0.996264)"/>
       <use xlink:href="#CMSS17-74" transform="translate(133.284074 0) scale(0.996264)"/>
       <use xlink:href="#CMSS17-75" transform="translate(167.115641 0) scale(0.996264)"/>
       <use xlink:href="#CMSS17-67" transform="translate(215.320584 0) scale(0.996264)"/>
       <use xlink:href="#CMSS17-75" transform="translate(262.164208 0) scale(0.996264)"/>
       <use xlink:href="#CMSS17-65" transform="translate(310.369151 0) scale(0.996264)"/>
       <use xlink:href="#CMSS17-73" transform="translate(352.007973 0) scale(0.996264)"/>
       <use xlink:href="#CMSS17-65" transform="translate(387.921515 0) scale(0.996264)"/>
      </g>
     </g>
    </g>
    <g id="xtick_11">
     <g id="line2d_11">
      <g>
       <use xlink:href="#m869ba58437" x="234.483391" y="252.482984" style="fill: #262626; stroke: #262626; stroke-width: 1.25"/>
      </g>
     </g>
     <g id="text_11">
      <!-- Vietnamese -->
      <g style="fill: #262626" transform="translate(227.946307 268.434989) rotate(-321) scale(0.12 -0.12)">
       <defs>
        <path id="CMSS17-56" d="M 3910 4416 
L 3411 4416 
L 2304 1362 
C 2272 1273 2074 688 2035 484 
L 2029 484 
C 1978 726 1773 1292 1664 1604 
L 922 3672 
L 646 4416 
L 83 4416 
L 1715 0 
L 2278 0 
L 3910 4416 
z
" transform="scale(0.015625)"/>
       </defs>
       <use xlink:href="#CMSS17-56" transform="scale(0.996264)"/>
       <use xlink:href="#CMSS17-69" transform="translate(62.217855 0) scale(0.996264)"/>
       <use xlink:href="#CMSS17-65" transform="translate(84.398578 0) scale(0.996264)"/>
       <use xlink:href="#CMSS17-74" transform="translate(126.0374 0) scale(0.996264)"/>
       <use xlink:href="#CMSS17-6e" transform="translate(159.868967 0) scale(0.996264)"/>
       <use xlink:href="#CMSS17-61" transform="translate(208.07391 0) scale(0.996264)"/>
       <use xlink:href="#CMSS17-6d" transform="translate(252.99583 0) scale(0.996264)"/>
       <use xlink:href="#CMSS17-65" transform="translate(327.225085 0) scale(0.996264)"/>
       <use xlink:href="#CMSS17-73" transform="translate(368.863907 0) scale(0.996264)"/>
       <use xlink:href="#CMSS17-65" transform="translate(404.777449 0) scale(0.996264)"/>
      </g>
     </g>
    </g>
    <g id="xtick_12">
     <g id="line2d_12">
      <g>
       <use xlink:href="#m869ba58437" x="252.238011" y="252.482984" style="fill: #262626; stroke: #262626; stroke-width: 1.25"/>
      </g>
     </g>
     <g id="text_12">
      <!-- Italian -->
      <g style="fill: #262626" transform="translate(245.700927 268.434989) rotate(-321) scale(0.12 -0.12)">
       <defs>
        <path id="CMSS17-49" d="M 1094 4416 
L 557 4416 
L 557 0 
L 1094 0 
L 1094 4416 
z
" transform="scale(0.015625)"/>
       </defs>
       <use xlink:href="#CMSS17-49" transform="scale(0.996264)"/>
       <use xlink:href="#CMSS17-74" transform="translate(25.783926 0) scale(0.996264)"/>
       <use xlink:href="#CMSS17-61" transform="translate(59.615492 0) scale(0.996264)"/>
       <use xlink:href="#CMSS17-6c" transform="translate(104.537413 0) scale(0.996264)"/>
       <use xlink:href="#CMSS17-69" transform="translate(126.718136 0) scale(0.996264)"/>
       <use xlink:href="#CMSS17-61" transform="translate(148.898859 0) scale(0.996264)"/>
       <use xlink:href="#CMSS17-6e" transform="translate(193.820779 0) scale(0.996264)"/>
      </g>
     </g>
    </g>
    <g id="xtick_13">
     <g id="line2d_13">
      <g>
       <use xlink:href="#m869ba58437" x="269.992631" y="252.482984" style="fill: #262626; stroke: #262626; stroke-width: 1.25"/>
      </g>
     </g>
     <g id="text_13">
      <!-- Persian -->
      <g style="fill: #262626" transform="translate(263.455547 268.434989) rotate(-321) scale(0.12 -0.12)">
       <use xlink:href="#CMSS17-50" transform="scale(0.996264)"/>
       <use xlink:href="#CMSS17-65" transform="translate(57.133132 0) scale(0.996264)"/>
       <use xlink:href="#CMSS17-72" transform="translate(98.771954 0) scale(0.996264)"/>
       <use xlink:href="#CMSS17-73" transform="translate(130.681727 0) scale(0.996264)"/>
       <use xlink:href="#CMSS17-69" transform="translate(166.595269 0) scale(0.996264)"/>
       <use xlink:href="#CMSS17-61" transform="translate(188.775992 0) scale(0.996264)"/>
       <use xlink:href="#CMSS17-6e" transform="translate(233.697913 0) scale(0.996264)"/>
      </g>
     </g>
    </g>
    <g id="xtick_14">
     <g id="line2d_14">
      <g>
       <use xlink:href="#m869ba58437" x="287.747251" y="252.482984" style="fill: #262626; stroke: #262626; stroke-width: 1.25"/>
      </g>
     </g>
     <g id="text_14">
      <!-- Czech -->
      <g style="fill: #262626" transform="translate(281.210167 268.434989) rotate(-321) scale(0.12 -0.12)">
       <defs>
        <path id="CMSS17-7a" d="M 2400 2502 
L 2400 2750 
L 250 2750 
L 250 2368 
L 1069 2368 
C 1146 2368 1222 2368 1299 2368 
L 1747 2368 
L 166 261 
L 166 0 
L 2419 0 
L 2419 395 
L 1549 395 
C 1472 395 1395 395 1318 395 
L 826 395 
L 2400 2502 
z
" transform="scale(0.015625)"/>
       </defs>
       <use xlink:href="#CMSS17-43" transform="scale(0.996264)"/>
       <use xlink:href="#CMSS17-7a" transform="translate(59.855772 0) scale(0.996264)"/>
       <use xlink:href="#CMSS17-65" transform="translate(100.533643 0) scale(0.996264)"/>
       <use xlink:href="#CMSS17-63" transform="translate(142.172465 0) scale(0.996264)"/>
       <use xlink:href="#CMSS17-68" transform="translate(183.811288 0) scale(0.996264)"/>
      </g>
     </g>
    </g>
    <g id="xtick_15">
     <g id="line2d_15">
      <g>
       <use xlink:href="#m869ba58437" x="305.501872" y="252.482984" style="fill: #262626; stroke: #262626; stroke-width: 1.25"/>
      </g>
     </g>
     <g id="text_15">
      <!-- Polish -->
      <g style="fill: #262626" transform="translate(298.964787 268.434989) rotate(-321) scale(0.12 -0.12)">
       <use xlink:href="#CMSS17-50" transform="scale(0.996264)"/>
       <use xlink:href="#CMSS17-6f" transform="translate(57.133132 0) scale(0.996264)"/>
       <use xlink:href="#CMSS17-6c" transform="translate(103.976756 0) scale(0.996264)"/>
       <use xlink:href="#CMSS17-69" transform="translate(126.157479 0) scale(0.996264)"/>
       <use xlink:href="#CMSS17-73" transform="translate(148.338202 0) scale(0.996264)"/>
       <use xlink:href="#CMSS17-68" transform="translate(184.251744 0) scale(0.996264)"/>
      </g>
     </g>
    </g>
    <g id="xtick_16">
     <g id="line2d_16">
      <g>
       <use xlink:href="#m869ba58437" x="323.256492" y="252.482984" style="fill: #262626; stroke: #262626; stroke-width: 1.25"/>
      </g>
     </g>
     <g id="text_16">
      <!-- Arabic -->
      <g style="fill: #262626" transform="translate(316.719407 268.434989) rotate(-321) scale(0.12 -0.12)">
       <defs>
        <path id="CMSS17-62" d="M 954 4416 
L 480 4416 
L 480 -13 
L 966 -13 
L 966 274 
C 1210 38 1504 -64 1766 -64 
C 2381 -64 2880 549 2880 1352 
C 2880 2086 2496 2756 1926 2756 
C 1523 2756 1165 2591 954 2419 
L 954 4416 
z
M 966 2046 
C 1107 2222 1306 2368 1587 2368 
C 1965 2368 2394 2097 2394 1352 
C 2394 558 1882 325 1530 325 
C 1402 325 1267 356 1139 464 
C 966 615 966 709 966 797 
L 966 2046 
z
" transform="scale(0.015625)"/>
       </defs>
       <use xlink:href="#CMSS17-41" transform="scale(0.996264)"/>
       <use xlink:href="#CMSS17-72" transform="translate(62.217855 0) scale(0.996264)"/>
       <use xlink:href="#CMSS17-61" transform="translate(94.127627 0) scale(0.996264)"/>
       <use xlink:href="#CMSS17-62" transform="translate(139.049548 0) scale(0.996264)"/>
       <use xlink:href="#CMSS17-69" transform="translate(187.254491 0) scale(0.996264)"/>
       <use xlink:href="#CMSS17-63" transform="translate(209.435214 0) scale(0.996264)"/>
      </g>
     </g>
    </g>
    <g id="xtick_17">
     <g id="line2d_17">
      <g>
       <use xlink:href="#m869ba58437" x="341.011112" y="252.482984" style="fill: #262626; stroke: #262626; stroke-width: 1.25"/>
      </g>
     </g>
     <g id="text_17">
      <!-- Ukrainian -->
      <g style="fill: #262626" transform="translate(334.474027 268.434989) rotate(-321) scale(0.12 -0.12)">
       <defs>
        <path id="CMSS17-55" d="M 3552 4384 
L 3066 4384 
L 3066 1449 
C 3066 604 2547 229 2074 229 
C 1587 229 1101 623 1101 1443 
L 1101 4384 
L 563 4384 
L 563 1454 
C 563 539 1274 -128 2067 -128 
C 2861 -128 3552 539 3552 1454 
L 3552 4384 
z
" transform="scale(0.015625)"/>
        <path id="CMSS17-6b" d="M 1696 1688 
L 2688 2739 
L 2074 2739 
L 954 1554 
L 954 4416 
L 480 4416 
L 480 0 
L 947 0 
L 947 892 
L 1376 1344 
L 2278 0 
L 2822 0 
L 1696 1688 
z
" transform="scale(0.015625)"/>
       </defs>
       <use xlink:href="#CMSS17-55" transform="scale(0.996264)"/>
       <use xlink:href="#CMSS17-6b" transform="translate(64.13974 0) scale(0.996264)"/>
       <use xlink:href="#CMSS17-72" transform="translate(109.742229 0) scale(0.996264)"/>
       <use xlink:href="#CMSS17-61" transform="translate(141.652002 0) scale(0.996264)"/>
       <use xlink:href="#CMSS17-69" transform="translate(186.573923 0) scale(0.996264)"/>
       <use xlink:href="#CMSS17-6e" transform="translate(208.754646 0) scale(0.996264)"/>
       <use xlink:href="#CMSS17-69" transform="translate(256.959589 0) scale(0.996264)"/>
       <use xlink:href="#CMSS17-61" transform="translate(279.140312 0) scale(0.996264)"/>
       <use xlink:href="#CMSS17-6e" transform="translate(324.062232 0) scale(0.996264)"/>
      </g>
     </g>
    </g>
    <g id="xtick_18">
     <g id="line2d_18">
      <g>
       <use xlink:href="#m869ba58437" x="358.765732" y="252.482984" style="fill: #262626; stroke: #262626; stroke-width: 1.25"/>
      </g>
     </g>
     <g id="text_18">
      <!-- Turkish -->
      <g style="fill: #262626" transform="translate(352.228648 268.434989) rotate(-321) scale(0.12 -0.12)">
       <defs>
        <path id="CMSS17-54" d="M 2317 3968 
L 2848 3968 
C 2925 3968 3002 3968 3078 3968 
L 3878 3968 
L 3878 4376 
L 218 4376 
L 218 3968 
L 1018 3968 
C 1094 3968 1171 3968 1248 3968 
L 1779 3968 
L 1779 -32 
L 2317 -32 
L 2317 3968 
z
" transform="scale(0.015625)"/>
       </defs>
       <use xlink:href="#CMSS17-54" transform="scale(0.996264)"/>
       <use xlink:href="#CMSS17-75" transform="translate(56.012199 0) scale(0.996264)"/>
       <use xlink:href="#CMSS17-72" transform="translate(104.217142 0) scale(0.996264)"/>
       <use xlink:href="#CMSS17-6b" transform="translate(136.126914 0) scale(0.996264)"/>
       <use xlink:href="#CMSS17-69" transform="translate(181.729403 0) scale(0.996264)"/>
       <use xlink:href="#CMSS17-73" transform="translate(203.910126 0) scale(0.996264)"/>
       <use xlink:href="#CMSS17-68" transform="translate(239.823668 0) scale(0.996264)"/>
      </g>
     </g>
    </g>
    <g id="xtick_19">
     <g id="line2d_19">
      <g>
       <use xlink:href="#m869ba58437" x="376.520352" y="252.482984" style="fill: #262626; stroke: #262626; stroke-width: 1.25"/>
      </g>
     </g>
     <g id="text_19">
      <!-- Dutch -->
      <g style="fill: #262626" transform="translate(369.983268 268.434989) rotate(-321) scale(0.12 -0.12)">
       <defs>
        <path id="CMSS17-44" d="M 570 4416 
L 570 0 
L 2144 0 
C 3194 0 4000 980 4000 2170 
C 4000 3398 3194 4416 2144 4416 
L 570 4416 
z
M 1094 357 
L 1094 4059 
L 2003 4059 
C 2861 4059 3475 3277 3475 2170 
C 3475 1107 2867 357 2003 357 
L 1094 357 
z
" transform="scale(0.015625)"/>
       </defs>
       <use xlink:href="#CMSS17-44" transform="scale(0.996264)"/>
       <use xlink:href="#CMSS17-75" transform="translate(67.542842 0) scale(0.996264)"/>
       <use xlink:href="#CMSS17-74" transform="translate(115.747785 0) scale(0.996264)"/>
       <use xlink:href="#CMSS17-63" transform="translate(149.579351 0) scale(0.996264)"/>
       <use xlink:href="#CMSS17-68" transform="translate(191.218174 0) scale(0.996264)"/>
      </g>
     </g>
    </g>
    <g id="xtick_20">
     <g id="line2d_20">
      <g>
       <use xlink:href="#m869ba58437" x="394.274972" y="252.482984" style="fill: #262626; stroke: #262626; stroke-width: 1.25"/>
      </g>
     </g>
     <g id="text_20">
      <!-- Danish -->
      <g style="fill: #262626" transform="translate(387.737888 268.434989) rotate(-321) scale(0.12 -0.12)">
       <use xlink:href="#CMSS17-44" transform="scale(0.996264)"/>
       <use xlink:href="#CMSS17-61" transform="translate(67.542842 0) scale(0.996264)"/>
       <use xlink:href="#CMSS17-6e" transform="translate(112.464762 0) scale(0.996264)"/>
       <use xlink:href="#CMSS17-69" transform="translate(160.669705 0) scale(0.996264)"/>
       <use xlink:href="#CMSS17-73" transform="translate(182.850428 0) scale(0.996264)"/>
       <use xlink:href="#CMSS17-68" transform="translate(218.76397 0) scale(0.996264)"/>
      </g>
     </g>
    </g>
    <g id="xtick_21">
     <g id="line2d_21">
      <g>
       <use xlink:href="#m869ba58437" x="412.029593" y="252.482984" style="fill: #262626; stroke: #262626; stroke-width: 1.25"/>
      </g>
     </g>
     <g id="text_21">
      <!-- Swedish -->
      <g style="fill: #262626" transform="translate(405.492508 268.434989) rotate(-321) scale(0.12 -0.12)">
       <defs>
        <path id="CMSS17-77" d="M 4013 2752 
L 3526 2752 
L 3187 1601 
C 3117 1358 2918 685 2893 371 
L 2886 371 
C 2874 564 2765 1024 2586 1633 
L 2259 2752 
L 1818 2752 
L 1498 1658 
C 1338 1101 1216 627 1203 371 
L 1197 371 
C 1171 749 909 1633 870 1773 
L 582 2752 
L 83 2752 
L 915 0 
L 1402 0 
C 1734 1096 1990 1943 2010 2370 
C 2022 2160 2131 1707 2195 1484 
L 2618 0 
L 3181 0 
L 4013 2752 
z
" transform="scale(0.015625)"/>
        <path id="CMSS17-64" d="M 2611 4416 
L 2138 4416 
L 2138 2438 
C 1939 2603 1613 2756 1254 2756 
C 672 2756 211 2131 211 1347 
C 211 562 666 -64 1235 -64 
C 1677 -64 1971 172 2125 306 
L 2125 -13 
L 2611 -13 
L 2611 4416 
z
M 2125 836 
C 2125 747 2125 653 1926 482 
C 1798 375 1645 325 1498 325 
C 1152 325 698 576 698 1340 
C 698 2134 1210 2368 1562 2368 
C 1798 2368 1990 2254 2125 2065 
L 2125 836 
z
" transform="scale(0.015625)"/>
       </defs>
       <use xlink:href="#CMSS17-53" transform="scale(0.996264)"/>
       <use xlink:href="#CMSS17-77" transform="translate(52.048516 0) scale(0.996264)"/>
       <use xlink:href="#CMSS17-65" transform="translate(113.265607 0) scale(0.996264)"/>
       <use xlink:href="#CMSS17-64" transform="translate(154.904429 0) scale(0.996264)"/>
       <use xlink:href="#CMSS17-69" transform="translate(203.109373 0) scale(0.996264)"/>
       <use xlink:href="#CMSS17-73" transform="translate(225.290096 0) scale(0.996264)"/>
       <use xlink:href="#CMSS17-68" transform="translate(261.203638 0) scale(0.996264)"/>
      </g>
     </g>
    </g>
    <g id="xtick_22">
     <g id="line2d_22">
      <g>
       <use xlink:href="#m869ba58437" x="429.784213" y="252.482984" style="fill: #262626; stroke: #262626; stroke-width: 1.25"/>
      </g>
     </g>
     <g id="text_22">
      <!-- Indonesian -->
      <g style="fill: #262626" transform="translate(423.247128 268.434989) rotate(-321) scale(0.12 -0.12)">
       <use xlink:href="#CMSS17-49" transform="scale(0.996264)"/>
       <use xlink:href="#CMSS17-6e" transform="translate(25.783926 0) scale(0.996264)"/>
       <use xlink:href="#CMSS17-64" transform="translate(73.988869 0) scale(0.996264)"/>
       <use xlink:href="#CMSS17-6f" transform="translate(122.193812 0) scale(0.996264)"/>
       <use xlink:href="#CMSS17-6e" transform="translate(169.037435 0) scale(0.996264)"/>
       <use xlink:href="#CMSS17-65" transform="translate(217.242378 0) scale(0.996264)"/>
       <use xlink:href="#CMSS17-73" transform="translate(258.881201 0) scale(0.996264)"/>
       <use xlink:href="#CMSS17-69" transform="translate(294.794742 0) scale(0.996264)"/>
       <use xlink:href="#CMSS17-61" transform="translate(316.975466 0) scale(0.996264)"/>
       <use xlink:href="#CMSS17-6e" transform="translate(361.897386 0) scale(0.996264)"/>
      </g>
     </g>
    </g>
    <g id="xtick_23">
     <g id="line2d_23">
      <g>
       <use xlink:href="#m869ba58437" x="447.538833" y="252.482984" style="fill: #262626; stroke: #262626; stroke-width: 1.25"/>
      </g>
     </g>
     <g id="text_23">
      <!-- Hungarian -->
      <g style="fill: #262626" transform="translate(441.001748 268.434989) rotate(-321) scale(0.12 -0.12)">
       <defs>
        <path id="CMSS17-48" d="M 3674 4416 
L 3136 4416 
L 3136 2501 
L 1101 2501 
L 1101 4416 
L 563 4416 
L 563 0 
L 1101 0 
L 1101 2112 
L 3136 2112 
L 3136 0 
L 3674 0 
L 3674 4416 
z
" transform="scale(0.015625)"/>
       </defs>
       <use xlink:href="#CMSS17-48" transform="scale(0.996264)"/>
       <use xlink:href="#CMSS17-75" transform="translate(66.061519 0) scale(0.996264)"/>
       <use xlink:href="#CMSS17-6e" transform="translate(114.266462 0) scale(0.996264)"/>
       <use xlink:href="#CMSS17-67" transform="translate(162.471405 0) scale(0.996264)"/>
       <use xlink:href="#CMSS17-61" transform="translate(209.315029 0) scale(0.996264)"/>
       <use xlink:href="#CMSS17-72" transform="translate(251.634496 0) scale(0.996264)"/>
       <use xlink:href="#CMSS17-69" transform="translate(283.544268 0) scale(0.996264)"/>
       <use xlink:href="#CMSS17-61" transform="translate(305.724991 0) scale(0.996264)"/>
       <use xlink:href="#CMSS17-6e" transform="translate(350.646912 0) scale(0.996264)"/>
      </g>
     </g>
    </g>
    <g id="xtick_24">
     <g id="line2d_24">
      <g>
       <use xlink:href="#m869ba58437" x="465.293453" y="252.482984" style="fill: #262626; stroke: #262626; stroke-width: 1.25"/>
      </g>
     </g>
     <g id="text_24">
      <!-- Finnish -->
      <g style="fill: #262626" transform="translate(458.756369 268.434989) rotate(-321) scale(0.12 -0.12)">
       <use xlink:href="#CMSS17-46" transform="scale(0.996264)"/>
       <use xlink:href="#CMSS17-69" transform="translate(53.289559 0) scale(0.996264)"/>
       <use xlink:href="#CMSS17-6e" transform="translate(75.470282 0) scale(0.996264)"/>
       <use xlink:href="#CMSS17-6e" transform="translate(123.675225 0) scale(0.996264)"/>
       <use xlink:href="#CMSS17-69" transform="translate(171.880169 0) scale(0.996264)"/>
       <use xlink:href="#CMSS17-73" transform="translate(194.060892 0) scale(0.996264)"/>
       <use xlink:href="#CMSS17-68" transform="translate(229.974434 0) scale(0.996264)"/>
      </g>
     </g>
    </g>
    <g id="xtick_25">
     <g id="line2d_25">
      <g>
       <use xlink:href="#m869ba58437" x="483.048073" y="252.482984" style="fill: #262626; stroke: #262626; stroke-width: 1.25"/>
      </g>
     </g>
     <g id="text_25">
      <!-- Serbian -->
      <g style="fill: #262626" transform="translate(476.510989 268.434989) rotate(-321) scale(0.12 -0.12)">
       <use xlink:href="#CMSS17-53" transform="scale(0.996264)"/>
       <use xlink:href="#CMSS17-65" transform="translate(52.048516 0) scale(0.996264)"/>
       <use xlink:href="#CMSS17-72" transform="translate(93.687338 0) scale(0.996264)"/>
       <use xlink:href="#CMSS17-62" transform="translate(125.597111 0) scale(0.996264)"/>
       <use xlink:href="#CMSS17-69" transform="translate(173.802054 0) scale(0.996264)"/>
       <use xlink:href="#CMSS17-61" transform="translate(195.982777 0) scale(0.996264)"/>
       <use xlink:href="#CMSS17-6e" transform="translate(240.904698 0) scale(0.996264)"/>
      </g>
     </g>
    </g>
    <g id="xtick_26">
     <g id="line2d_26">
      <g>
       <use xlink:href="#m869ba58437" x="500.802693" y="252.482984" style="fill: #262626; stroke: #262626; stroke-width: 1.25"/>
      </g>
     </g>
     <g id="text_26">
      <!-- Bulgarian -->
      <g style="fill: #262626" transform="translate(494.265609 268.434989) rotate(-321) scale(0.12 -0.12)">
       <defs>
        <path id="CMSS17-42" d="M 570 4416 
L 570 0 
L 2163 0 
C 3034 0 3667 574 3667 1200 
C 3667 1685 3251 2176 2502 2317 
C 3334 2558 3501 3040 3501 3313 
C 3501 3883 2874 4416 1997 4416 
L 570 4416 
z
M 1088 2496 
L 1088 4059 
L 1824 4059 
C 2483 4059 3002 3724 3002 3306 
C 3002 2926 2592 2496 1766 2496 
L 1088 2496 
z
M 1088 357 
L 1088 2107 
L 1939 2107 
C 2630 2107 3162 1679 3162 1206 
C 3162 772 2694 357 1984 357 
L 1088 357 
z
" transform="scale(0.015625)"/>
       </defs>
       <use xlink:href="#CMSS17-42" transform="scale(0.996264)"/>
       <use xlink:href="#CMSS17-75" transform="translate(62.33804 0) scale(0.996264)"/>
       <use xlink:href="#CMSS17-6c" transform="translate(110.542983 0) scale(0.996264)"/>
       <use xlink:href="#CMSS17-67" transform="translate(132.723706 0) scale(0.996264)"/>
       <use xlink:href="#CMSS17-61" transform="translate(179.56733 0) scale(0.996264)"/>
       <use xlink:href="#CMSS17-72" transform="translate(221.886797 0) scale(0.996264)"/>
       <use xlink:href="#CMSS17-69" transform="translate(253.796569 0) scale(0.996264)"/>
       <use xlink:href="#CMSS17-61" transform="translate(275.977292 0) scale(0.996264)"/>
       <use xlink:href="#CMSS17-6e" transform="translate(320.899213 0) scale(0.996264)"/>
      </g>
     </g>
    </g>
    <g id="xtick_27">
     <g id="line2d_27">
      <g>
       <use xlink:href="#m869ba58437" x="518.557314" y="252.482984" style="fill: #262626; stroke: #262626; stroke-width: 1.25"/>
      </g>
     </g>
     <g id="text_27">
      <!-- Hebrew -->
      <g style="fill: #262626" transform="translate(512.020229 268.434989) rotate(-321) scale(0.12 -0.12)">
       <use xlink:href="#CMSS17-48" transform="scale(0.996264)"/>
       <use xlink:href="#CMSS17-65" transform="translate(66.061519 0) scale(0.996264)"/>
       <use xlink:href="#CMSS17-62" transform="translate(107.700341 0) scale(0.996264)"/>
       <use xlink:href="#CMSS17-72" transform="translate(153.30283 0) scale(0.996264)"/>
       <use xlink:href="#CMSS17-65" transform="translate(185.212603 0) scale(0.996264)"/>
       <use xlink:href="#CMSS17-77" transform="translate(226.851425 0) scale(0.996264)"/>
      </g>
     </g>
    </g>
    <g id="xtick_28">
     <g id="line2d_28">
      <g>
       <use xlink:href="#m869ba58437" x="536.311934" y="252.482984" style="fill: #262626; stroke: #262626; stroke-width: 1.25"/>
      </g>
     </g>
     <g id="text_28">
      <!-- Latin -->
      <g style="fill: #262626" transform="translate(529.774849 268.434989) rotate(-321) scale(0.12 -0.12)">
       <defs>
        <path id="CMSS17-4c" d="M 1670 414 
C 1594 414 1517 414 1440 414 
L 1101 414 
L 1101 4416 
L 563 4416 
L 563 0 
L 3002 0 
L 3002 414 
L 1670 414 
z
" transform="scale(0.015625)"/>
       </defs>
       <use xlink:href="#CMSS17-4c" transform="scale(0.996264)"/>
       <use xlink:href="#CMSS17-61" transform="translate(50.687105 0) scale(0.996264)"/>
       <use xlink:href="#CMSS17-74" transform="translate(95.609026 0) scale(0.996264)"/>
       <use xlink:href="#CMSS17-69" transform="translate(129.440593 0) scale(0.996264)"/>
       <use xlink:href="#CMSS17-6e" transform="translate(151.621316 0) scale(0.996264)"/>
      </g>
     </g>
    </g>
    <g id="xtick_29">
     <g id="line2d_29">
      <g>
       <use xlink:href="#m869ba58437" x="554.066554" y="252.482984" style="fill: #262626; stroke: #262626; stroke-width: 1.25"/>
      </g>
     </g>
     <g id="text_29">
      <!-- Norwegian -->
      <g style="fill: #262626" transform="translate(547.529469 268.434989) rotate(-321) scale(0.12 -0.12)">
       <defs>
        <path id="CMSS17-4e" d="M 1466 4180 
L 1350 4416 
L 563 4416 
L 563 0 
L 1062 0 
L 1062 3926 
L 1069 3932 
C 1114 3817 1139 3760 1402 3194 
L 2771 236 
L 2886 0 
L 3674 0 
L 3674 4416 
L 3174 4416 
L 3174 490 
L 3168 483 
C 3123 598 3098 655 2835 1221 
L 1466 4180 
z
" transform="scale(0.015625)"/>
       </defs>
       <use xlink:href="#CMSS17-4e" transform="scale(0.996264)"/>
       <use xlink:href="#CMSS17-6f" transform="translate(66.061519 0) scale(0.996264)"/>
       <use xlink:href="#CMSS17-72" transform="translate(110.302689 0) scale(0.996264)"/>
       <use xlink:href="#CMSS17-77" transform="translate(142.212461 0) scale(0.996264)"/>
       <use xlink:href="#CMSS17-65" transform="translate(203.429553 0) scale(0.996264)"/>
       <use xlink:href="#CMSS17-67" transform="translate(245.068375 0) scale(0.996264)"/>
       <use xlink:href="#CMSS17-69" transform="translate(291.911998 0) scale(0.996264)"/>
       <use xlink:href="#CMSS17-61" transform="translate(314.092721 0) scale(0.996264)"/>
       <use xlink:href="#CMSS17-6e" transform="translate(359.014642 0) scale(0.996264)"/>
      </g>
     </g>
    </g>
    <g id="xtick_30">
     <g id="line2d_30">
      <g>
       <use xlink:href="#m869ba58437" x="571.821174" y="252.482984" style="fill: #262626; stroke: #262626; stroke-width: 1.25"/>
      </g>
     </g>
     <g id="text_30">
      <!-- Thai -->
      <g style="fill: #262626" transform="translate(565.28409 268.434989) rotate(-321) scale(0.12 -0.12)">
       <use xlink:href="#CMSS17-54" transform="scale(0.996264)"/>
       <use xlink:href="#CMSS17-68" transform="translate(63.819454 0) scale(0.996264)"/>
       <use xlink:href="#CMSS17-61" transform="translate(112.024397 0) scale(0.996264)"/>
       <use xlink:href="#CMSS17-69" transform="translate(156.946318 0) scale(0.996264)"/>
      </g>
     </g>
    </g>
    <g id="xtick_31">
     <g id="line2d_31">
      <g>
       <use xlink:href="#m869ba58437" x="589.575794" y="252.482984" style="fill: #262626; stroke: #262626; stroke-width: 1.25"/>
      </g>
     </g>
     <g id="text_31">
      <!-- Romanian -->
      <g style="fill: #262626" transform="translate(583.03871 268.434989) rotate(-321) scale(0.12 -0.12)">
       <use xlink:href="#CMSS17-52" transform="scale(0.996264)"/>
       <use xlink:href="#CMSS17-6f" transform="translate(60.416155 0) scale(0.996264)"/>
       <use xlink:href="#CMSS17-6d" transform="translate(107.259778 0) scale(0.996264)"/>
       <use xlink:href="#CMSS17-61" transform="translate(181.489033 0) scale(0.996264)"/>
       <use xlink:href="#CMSS17-6e" transform="translate(226.410953 0) scale(0.996264)"/>
       <use xlink:href="#CMSS17-69" transform="translate(274.615897 0) scale(0.996264)"/>
       <use xlink:href="#CMSS17-61" transform="translate(296.79662 0) scale(0.996264)"/>
       <use xlink:href="#CMSS17-6e" transform="translate(341.71854 0) scale(0.996264)"/>
      </g>
     </g>
    </g>
   </g>
   <g id="matplotlib.axis_2">
    <g id="ytick_1">
     <g id="line2d_32">
      <defs>
       <path id="ma6ad4207cb" d="M 0 0 
L -6 0 
" style="stroke: #262626; stroke-width: 1.25"/>
      </defs>
      <g>
       <use xlink:href="#ma6ad4207cb" x="46.284417" y="252.482984" style="fill: #262626; stroke: #262626; stroke-width: 1.25"/>
      </g>
     </g>
     <g id="text_32">
      <!-- $\mathdefault{0.0}$ -->
      <g style="fill: #262626" transform="translate(21.826776 256.634074) scale(0.12 -0.12)">
       <defs>
        <path id="CMR17-30" d="M 2688 2025 
C 2688 2416 2682 3080 2413 3591 
C 2176 4039 1798 4198 1466 4198 
C 1158 4198 768 4058 525 3597 
C 269 3118 243 2524 243 2025 
C 243 1661 250 1106 448 619 
C 723 -39 1216 -128 1466 -128 
C 1760 -128 2208 -7 2470 600 
C 2662 1042 2688 1559 2688 2025 
z
M 1466 -26 
C 1056 -26 813 325 723 812 
C 653 1188 653 1738 653 2096 
C 653 2588 653 2997 736 3387 
C 858 3929 1216 4096 1466 4096 
C 1728 4096 2067 3923 2189 3400 
C 2272 3036 2278 2607 2278 2096 
C 2278 1680 2278 1169 2202 792 
C 2067 95 1690 -26 1466 -26 
z
" transform="scale(0.015625)"/>
        <path id="CMMI12-3a" d="M 1178 307 
C 1178 492 1024 619 870 619 
C 685 619 557 466 557 313 
C 557 128 710 0 864 0 
C 1050 0 1178 153 1178 307 
z
" transform="scale(0.015625)"/>
       </defs>
       <use xlink:href="#CMR17-30" transform="scale(0.996264)"/>
       <use xlink:href="#CMMI12-3a" transform="translate(45.690477 0) scale(0.996264)"/>
       <use xlink:href="#CMR17-30" transform="translate(72.787654 0) scale(0.996264)"/>
      </g>
     </g>
    </g>
    <g id="ytick_2">
     <g id="line2d_33">
      <g>
       <use xlink:href="#ma6ad4207cb" x="46.284417" y="209.309002" style="fill: #262626; stroke: #262626; stroke-width: 1.25"/>
      </g>
     </g>
     <g id="text_33">
      <!-- $\mathdefault{0.2}$ -->
      <g style="fill: #262626" transform="translate(21.826776 213.460092) scale(0.12 -0.12)">
       <defs>
        <path id="CMR17-32" d="M 2669 989 
L 2554 989 
C 2490 536 2438 459 2413 420 
C 2381 369 1920 369 1830 369 
L 602 369 
C 832 619 1280 1072 1824 1597 
C 2214 1967 2669 2402 2669 3035 
C 2669 3790 2067 4224 1395 4224 
C 691 4224 262 3604 262 3030 
C 262 2780 448 2748 525 2748 
C 589 2748 781 2787 781 3010 
C 781 3207 614 3264 525 3264 
C 486 3264 448 3258 422 3245 
C 544 3790 915 4058 1306 4058 
C 1862 4058 2227 3617 2227 3035 
C 2227 2479 1901 2000 1536 1584 
L 262 146 
L 262 0 
L 2515 0 
L 2669 989 
z
" transform="scale(0.015625)"/>
       </defs>
       <use xlink:href="#CMR17-30" transform="scale(0.996264)"/>
       <use xlink:href="#CMMI12-3a" transform="translate(45.690477 0) scale(0.996264)"/>
       <use xlink:href="#CMR17-32" transform="translate(72.787654 0) scale(0.996264)"/>
      </g>
     </g>
    </g>
    <g id="ytick_3">
     <g id="line2d_34">
      <g>
       <use xlink:href="#ma6ad4207cb" x="46.284417" y="166.13502" style="fill: #262626; stroke: #262626; stroke-width: 1.25"/>
      </g>
     </g>
     <g id="text_34">
      <!-- $\mathdefault{0.4}$ -->
      <g style="fill: #262626" transform="translate(21.826776 170.28611) scale(0.12 -0.12)">
       <defs>
        <path id="CMR17-34" d="M 2150 4122 
C 2150 4256 2144 4256 2029 4256 
L 128 1254 
L 128 1088 
L 1779 1088 
L 1779 457 
C 1779 224 1766 160 1318 160 
L 1197 160 
L 1197 0 
C 1402 0 1747 0 1965 0 
C 2182 0 2528 0 2733 0 
L 2733 160 
L 2611 160 
C 2163 160 2150 224 2150 457 
L 2150 1088 
L 2803 1088 
L 2803 1254 
L 2150 1254 
L 2150 4122 
z
M 1798 3703 
L 1798 1254 
L 256 1254 
L 1798 3703 
z
" transform="scale(0.015625)"/>
       </defs>
       <use xlink:href="#CMR17-30" transform="scale(0.996264)"/>
       <use xlink:href="#CMMI12-3a" transform="translate(45.690477 0) scale(0.996264)"/>
       <use xlink:href="#CMR17-34" transform="translate(72.787654 0) scale(0.996264)"/>
      </g>
     </g>
    </g>
    <g id="ytick_4">
     <g id="line2d_35">
      <g>
       <use xlink:href="#ma6ad4207cb" x="46.284417" y="122.961038" style="fill: #262626; stroke: #262626; stroke-width: 1.25"/>
      </g>
     </g>
     <g id="text_35">
      <!-- $\mathdefault{0.6}$ -->
      <g style="fill: #262626" transform="translate(21.826776 127.112128) scale(0.12 -0.12)">
       <defs>
        <path id="CMR17-36" d="M 678 2176 
C 678 3690 1395 4032 1811 4032 
C 1946 4032 2272 4009 2400 3776 
C 2298 3776 2106 3776 2106 3553 
C 2106 3381 2246 3323 2336 3323 
C 2394 3323 2566 3348 2566 3560 
C 2566 3954 2246 4179 1805 4179 
C 1043 4179 243 3390 243 1984 
C 243 253 966 -128 1478 -128 
C 2099 -128 2688 427 2688 1283 
C 2688 2081 2170 2662 1517 2662 
C 1126 2662 838 2407 678 1960 
L 678 2176 
z
M 1478 25 
C 691 25 691 1200 691 1436 
C 691 1896 909 2560 1504 2560 
C 1613 2560 1926 2560 2138 2120 
C 2253 1870 2253 1609 2253 1289 
C 2253 944 2253 690 2118 434 
C 1978 171 1773 25 1478 25 
z
" transform="scale(0.015625)"/>
       </defs>
       <use xlink:href="#CMR17-30" transform="scale(0.996264)"/>
       <use xlink:href="#CMMI12-3a" transform="translate(45.690477 0) scale(0.996264)"/>
       <use xlink:href="#CMR17-36" transform="translate(72.787654 0) scale(0.996264)"/>
      </g>
     </g>
    </g>
    <g id="ytick_5">
     <g id="line2d_36">
      <g>
       <use xlink:href="#ma6ad4207cb" x="46.284417" y="79.787056" style="fill: #262626; stroke: #262626; stroke-width: 1.25"/>
      </g>
     </g>
     <g id="text_36">
      <!-- $\mathdefault{0.8}$ -->
      <g style="fill: #262626" transform="translate(21.826776 83.938146) scale(0.12 -0.12)">
       <defs>
        <path id="CMR17-38" d="M 1741 2264 
C 2144 2467 2554 2773 2554 3263 
C 2554 3841 1990 4179 1472 4179 
C 890 4179 378 3759 378 3180 
C 378 3021 416 2747 666 2505 
C 730 2442 998 2251 1171 2130 
C 883 1983 211 1634 211 934 
C 211 279 838 -128 1459 -128 
C 2144 -128 2720 362 2720 1010 
C 2720 1590 2330 1857 2074 2029 
L 1741 2264 
z
M 902 2822 
C 851 2854 595 3051 595 3351 
C 595 3739 998 4032 1459 4032 
C 1965 4032 2336 3676 2336 3262 
C 2336 2669 1670 2331 1638 2331 
C 1632 2331 1626 2331 1574 2370 
L 902 2822 
z
M 2080 1519 
C 2176 1449 2483 1240 2483 851 
C 2483 381 2010 25 1472 25 
C 890 25 448 438 448 940 
C 448 1443 838 1862 1280 2060 
L 2080 1519 
z
" transform="scale(0.015625)"/>
       </defs>
       <use xlink:href="#CMR17-30" transform="scale(0.996264)"/>
       <use xlink:href="#CMMI12-3a" transform="translate(45.690477 0) scale(0.996264)"/>
       <use xlink:href="#CMR17-38" transform="translate(72.787654 0) scale(0.996264)"/>
      </g>
     </g>
    </g>
    <g id="ytick_6">
     <g id="line2d_37">
      <g>
       <use xlink:href="#ma6ad4207cb" x="46.284417" y="36.613074" style="fill: #262626; stroke: #262626; stroke-width: 1.25"/>
      </g>
     </g>
     <g id="text_37">
      <!-- $\mathdefault{1.0}$ -->
      <g style="fill: #262626" transform="translate(21.826776 40.764163) scale(0.12 -0.12)">
       <defs>
        <path id="CMR17-31" d="M 1702 4058 
C 1702 4192 1696 4192 1606 4192 
C 1357 3916 979 3827 621 3827 
C 602 3827 570 3827 563 3808 
C 557 3795 557 3782 557 3648 
C 755 3648 1088 3686 1344 3839 
L 1344 461 
C 1344 236 1331 160 781 160 
L 589 160 
L 589 0 
C 896 0 1216 0 1523 0 
C 1830 0 2150 0 2458 0 
L 2458 160 
L 2266 160 
C 1715 160 1702 230 1702 458 
L 1702 4058 
z
" transform="scale(0.015625)"/>
       </defs>
       <use xlink:href="#CMR17-31" transform="scale(0.996264)"/>
       <use xlink:href="#CMMI12-3a" transform="translate(45.690477 0) scale(0.996264)"/>
       <use xlink:href="#CMR17-30" transform="translate(72.787654 0) scale(0.996264)"/>
      </g>
     </g>
    </g>
    <g id="text_38">
     <!-- Kendall $\boldsymbol{\tau}$ Correlation -->
     <g style="fill: #262626" transform="translate(15.50218 189.686041) rotate(-90) scale(0.12 -0.12)">
      <defs>
       <path id="CMMIB10-1c" d="M 2234 2240 
L 3418 2240 
C 3552 2240 3635 2240 3738 2335 
C 3866 2443 3866 2589 3866 2602 
C 3866 2850 3635 2850 3526 2850 
L 1421 2850 
C 1286 2850 1011 2850 672 2544 
C 448 2340 198 2015 198 1951 
C 198 1862 275 1862 346 1862 
C 442 1862 448 1869 506 1939 
C 749 2240 1171 2240 1293 2240 
L 1869 2240 
L 1638 1562 
C 1581 1402 1440 992 1389 825 
C 1318 626 1197 287 1197 217 
C 1197 38 1338 -64 1498 -64 
C 1542 -64 1869 -64 1933 358 
L 2234 2240 
z
" transform="scale(0.015625)"/>
      </defs>
      <use xlink:href="#CMSS17-4b" transform="scale(0.996264)"/>
      <use xlink:href="#CMSS17-65" transform="translate(64.820294 0) scale(0.996264)"/>
      <use xlink:href="#CMSS17-6e" transform="translate(106.459116 0) scale(0.996264)"/>
      <use xlink:href="#CMSS17-64" transform="translate(154.664059 0) scale(0.996264)"/>
      <use xlink:href="#CMSS17-61" transform="translate(202.869002 0) scale(0.996264)"/>
      <use xlink:href="#CMSS17-6c" transform="translate(247.790923 0) scale(0.996264)"/>
      <use xlink:href="#CMSS17-6c" transform="translate(269.971646 0) scale(0.996264)"/>
      <use xlink:href="#CMMIB10-1c" transform="translate(323.381481 0) scale(0.996264)"/>
      <use xlink:href="#CMSS17-43" transform="translate(419.921039 0) scale(0.996264)"/>
      <use xlink:href="#CMSS17-6f" transform="translate(479.77681 0) scale(0.996264)"/>
      <use xlink:href="#CMSS17-72" transform="translate(524.01798 0) scale(0.996264)"/>
      <use xlink:href="#CMSS17-72" transform="translate(555.927753 0) scale(0.996264)"/>
      <use xlink:href="#CMSS17-65" transform="translate(587.837525 0) scale(0.996264)"/>
      <use xlink:href="#CMSS17-6c" transform="translate(629.476347 0) scale(0.996264)"/>
      <use xlink:href="#CMSS17-61" transform="translate(651.65707 0) scale(0.996264)"/>
      <use xlink:href="#CMSS17-74" transform="translate(696.578991 0) scale(0.996264)"/>
      <use xlink:href="#CMSS17-69" transform="translate(730.410558 0) scale(0.996264)"/>
      <use xlink:href="#CMSS17-6f" transform="translate(752.591281 0) scale(0.996264)"/>
      <use xlink:href="#CMSS17-6e" transform="translate(799.434904 0) scale(0.996264)"/>
     </g>
    </g>
   </g>
   <g id="patch_3">
    <path d="M 51.610803 252.482984 
L 62.263575 252.482984 
L 62.263575 36.613074 
L 51.610803 36.613074 
z
" clip-path="url(#p561e1882d7)" style="fill: #ff4500; stroke: #000000; stroke-linejoin: miter"/>
   </g>
   <g id="patch_4">
    <path d="M 69.365424 252.482984 
L 80.018196 252.482984 
L 80.018196 50.83706 
L 69.365424 50.83706 
z
" clip-path="url(#p561e1882d7)" style="fill: #9acd32; stroke: #000000; stroke-linejoin: miter"/>
   </g>
   <g id="patch_5">
    <path d="M 87.120044 252.482984 
L 97.772816 252.482984 
L 97.772816 84.096087 
L 87.120044 84.096087 
z
" clip-path="url(#p561e1882d7)" style="fill: #9acd32; stroke: #000000; stroke-linejoin: miter"/>
   </g>
   <g id="patch_6">
    <path d="M 104.874664 252.482984 
L 115.527436 252.482984 
L 115.527436 71.231746 
L 104.874664 71.231746 
z
" clip-path="url(#p561e1882d7)" style="fill: #9acd32; stroke: #000000; stroke-linejoin: miter"/>
   </g>
   <g id="patch_7">
    <path d="M 122.629284 252.482984 
L 133.282056 252.482984 
L 133.282056 71.859275 
L 122.629284 71.859275 
z
" clip-path="url(#p561e1882d7)" style="fill: #9acd32; stroke: #000000; stroke-linejoin: miter"/>
   </g>
   <g id="patch_8">
    <path d="M 140.383904 252.482984 
L 151.036676 252.482984 
L 151.036676 102.346716 
L 140.383904 102.346716 
z
" clip-path="url(#p561e1882d7)" style="fill: #9acd32; stroke: #000000; stroke-linejoin: miter"/>
   </g>
   <g id="patch_9">
    <path d="M 158.138524 252.482984 
L 168.791296 252.482984 
L 168.791296 85.874085 
L 158.138524 85.874085 
z
" clip-path="url(#p561e1882d7)" style="fill: #9acd32; stroke: #000000; stroke-linejoin: miter"/>
   </g>
   <g id="patch_10">
    <path d="M 175.893144 252.482984 
L 186.545917 252.482984 
L 186.545917 78.082269 
L 175.893144 78.082269 
z
" clip-path="url(#p561e1882d7)" style="fill: #9acd32; stroke: #000000; stroke-linejoin: miter"/>
   </g>
   <g id="patch_11">
    <path d="M 193.647765 252.482984 
L 204.300537 252.482984 
L 204.300537 90.94661 
L 193.647765 90.94661 
z
" clip-path="url(#p561e1882d7)" style="fill: #9acd32; stroke: #000000; stroke-linejoin: miter"/>
   </g>
   <g id="patch_12">
    <path d="M 211.402385 252.482984 
L 222.055157 252.482984 
L 222.055157 82.108912 
L 211.402385 82.108912 
z
" clip-path="url(#p561e1882d7)" style="fill: #9acd32; stroke: #000000; stroke-linejoin: miter"/>
   </g>
   <g id="patch_13">
    <path d="M 229.157005 252.482984 
L 239.809777 252.482984 
L 239.809777 129.173573 
L 229.157005 129.173573 
z
" clip-path="url(#p561e1882d7)" style="fill: #9acd32; stroke: #000000; stroke-linejoin: miter"/>
   </g>
   <g id="patch_14">
    <path d="M 246.911625 252.482984 
L 257.564397 252.482984 
L 257.564397 92.986078 
L 246.911625 92.986078 
z
" clip-path="url(#p561e1882d7)" style="fill: #9acd32; stroke: #000000; stroke-linejoin: miter"/>
   </g>
   <g id="patch_15">
    <path d="M 264.666245 252.482984 
L 275.319017 252.482984 
L 275.319017 117.690164 
L 264.666245 117.690164 
z
" clip-path="url(#p561e1882d7)" style="fill: #9acd32; stroke: #000000; stroke-linejoin: miter"/>
   </g>
   <g id="patch_16">
    <path d="M 282.420865 252.482984 
L 293.073638 252.482984 
L 293.073638 147.26732 
L 282.420865 147.26732 
z
" clip-path="url(#p561e1882d7)" style="fill: #9acd32; stroke: #000000; stroke-linejoin: miter"/>
   </g>
   <g id="patch_17">
    <path d="M 300.175486 252.482984 
L 310.828258 252.482984 
L 310.828258 113.899176 
L 300.175486 113.899176 
z
" clip-path="url(#p561e1882d7)" style="fill: #9acd32; stroke: #000000; stroke-linejoin: miter"/>
   </g>
   <g id="patch_18">
    <path d="M 317.930106 252.482984 
L 328.582878 252.482984 
L 328.582878 138.868662 
L 317.930106 138.868662 
z
" clip-path="url(#p561e1882d7)" style="fill: #9acd32; stroke: #000000; stroke-linejoin: miter"/>
   </g>
   <g id="patch_19">
    <path d="M 335.684726 252.482984 
L 346.337498 252.482984 
L 346.337498 123.619696 
L 335.684726 123.619696 
z
" clip-path="url(#p561e1882d7)" style="fill: #9acd32; stroke: #000000; stroke-linejoin: miter"/>
   </g>
   <g id="patch_20">
    <path d="M 353.439346 252.482984 
L 364.092118 252.482984 
L 364.092118 134.030745 
L 353.439346 134.030745 
z
" clip-path="url(#p561e1882d7)" style="fill: #9acd32; stroke: #000000; stroke-linejoin: miter"/>
   </g>
   <g id="patch_21">
    <path d="M 371.193966 252.482984 
L 381.846738 252.482984 
L 381.846738 123.159755 
L 371.193966 123.159755 
z
" clip-path="url(#p561e1882d7)" style="fill: #9acd32; stroke: #000000; stroke-linejoin: miter"/>
   </g>
   <g id="patch_22">
    <path d="M 388.948586 252.482984 
L 399.601359 252.482984 
L 399.601359 143.591912 
L 388.948586 143.591912 
z
" clip-path="url(#p561e1882d7)" style="fill: #9acd32; stroke: #000000; stroke-linejoin: miter"/>
   </g>
   <g id="patch_23">
    <path d="M 406.703207 252.482984 
L 417.355979 252.482984 
L 417.355979 143.94097 
L 406.703207 143.94097 
z
" clip-path="url(#p561e1882d7)" style="fill: #9acd32; stroke: #000000; stroke-linejoin: miter"/>
   </g>
   <g id="patch_24">
    <path d="M 424.457827 252.482984 
L 435.110599 252.482984 
L 435.110599 165.201499 
L 424.457827 165.201499 
z
" clip-path="url(#p561e1882d7)" style="fill: #9acd32; stroke: #000000; stroke-linejoin: miter"/>
   </g>
   <g id="patch_25">
    <path d="M 442.212447 252.482984 
L 452.865219 252.482984 
L 452.865219 124.02946 
L 442.212447 124.02946 
z
" clip-path="url(#p561e1882d7)" style="fill: #9acd32; stroke: #000000; stroke-linejoin: miter"/>
   </g>
   <g id="patch_26">
    <path d="M 459.967067 252.482984 
L 470.619839 252.482984 
L 470.619839 145.39791 
L 459.967067 145.39791 
z
" clip-path="url(#p561e1882d7)" style="fill: #9acd32; stroke: #000000; stroke-linejoin: miter"/>
   </g>
   <g id="patch_27">
    <path d="M 477.721687 252.482984 
L 488.374459 252.482984 
L 488.374459 158.045382 
L 477.721687 158.045382 
z
" clip-path="url(#p561e1882d7)" style="fill: #9acd32; stroke: #000000; stroke-linejoin: miter"/>
   </g>
   <g id="patch_28">
    <path d="M 495.476307 252.482984 
L 506.129079 252.482984 
L 506.129079 167.559049 
L 495.476307 167.559049 
z
" clip-path="url(#p561e1882d7)" style="fill: #9acd32; stroke: #000000; stroke-linejoin: miter"/>
   </g>
   <g id="patch_29">
    <path d="M 513.230928 252.482984 
L 523.8837 252.482984 
L 523.8837 132.893218 
L 513.230928 132.893218 
z
" clip-path="url(#p561e1882d7)" style="fill: #9acd32; stroke: #000000; stroke-linejoin: miter"/>
   </g>
   <g id="patch_30">
    <path d="M 530.985548 252.482984 
L 541.63832 252.482984 
L 541.63832 199.770564 
L 530.985548 199.770564 
z
" clip-path="url(#p561e1882d7)" style="fill: #9acd32; stroke: #000000; stroke-linejoin: miter"/>
   </g>
   <g id="patch_31">
    <path d="M 548.740168 252.482984 
L 559.39294 252.482984 
L 559.39294 202.441876 
L 548.740168 202.441876 
z
" clip-path="url(#p561e1882d7)" style="fill: #9acd32; stroke: #000000; stroke-linejoin: miter"/>
   </g>
   <g id="patch_32">
    <path d="M 566.494788 252.482984 
L 577.14756 252.482984 
L 577.14756 175.507523 
L 566.494788 175.507523 
z
" clip-path="url(#p561e1882d7)" style="fill: #9acd32; stroke: #000000; stroke-linejoin: miter"/>
   </g>
   <g id="patch_33">
    <path d="M 584.249408 252.482984 
L 594.90218 252.482984 
L 594.90218 206.828881 
L 584.249408 206.828881 
z
" clip-path="url(#p561e1882d7)" style="fill: #9acd32; stroke: #000000; stroke-linejoin: miter"/>
   </g>
   <g id="patch_34">
    <path d="M 46.284417 252.482984 
L 46.284417 21.50218 
" style="fill: none; stroke: #262626; stroke-width: 1.25; stroke-linejoin: miter; stroke-linecap: square"/>
   </g>
   <g id="patch_35">
    <path d="M 600.228566 252.482984 
L 600.228566 21.50218 
" style="fill: none; stroke: #262626; stroke-width: 1.25; stroke-linejoin: miter; stroke-linecap: square"/>
   </g>
   <g id="patch_36">
    <path d="M 46.284417 252.482984 
L 600.228566 252.482984 
" style="fill: none; stroke: #262626; stroke-width: 1.25; stroke-linejoin: miter; stroke-linecap: square"/>
   </g>
   <g id="patch_37">
    <path d="M 46.284417 21.50218 
L 600.228566 21.50218 
" style="fill: none; stroke: #262626; stroke-width: 1.25; stroke-linejoin: miter; stroke-linecap: square"/>
   </g>
   <g id="text_39">
    <!-- 1.00 -->
    <g style="fill: #262626" transform="translate(49.409753 30.74593) scale(0.08 -0.08)">
     <defs>
      <path id="CMSS17-31" d="M 1818 4288 
L 1696 4288 
C 1350 3940 947 3890 538 3890 
L 538 3520 
C 723 3520 1024 3520 1325 3667 
L 1325 369 
L 570 369 
L 570 0 
L 2573 0 
L 2573 369 
L 1818 369 
L 1818 4288 
z
" transform="scale(0.015625)"/>
      <path id="CMSS17-2e" d="M 1088 510 
L 576 510 
L 576 0 
L 1088 0 
L 1088 510 
z
" transform="scale(0.015625)"/>
      <path id="CMSS17-30" d="M 2758 2044 
C 2758 2405 2752 3077 2490 3596 
C 2227 4096 1805 4229 1504 4229 
C 1069 4229 698 3975 506 3570 
C 301 3146 243 2709 243 2044 
C 243 1589 262 1031 493 543 
C 755 5 1197 -128 1498 -128 
C 1894 -128 2278 81 2496 518 
C 2720 974 2758 1474 2758 2044 
z
M 1498 261 
C 1011 261 864 811 819 995 
C 742 1310 730 1614 730 2114 
C 730 2506 730 2948 851 3297 
C 998 3701 1254 3840 1498 3840 
C 1971 3840 2125 3372 2176 3208 
C 2272 2873 2272 2481 2272 2114 
C 2272 1526 2272 261 1498 261 
z
" transform="scale(0.015625)"/>
     </defs>
     <use xlink:href="#CMSS17-31" transform="scale(0.996264)"/>
     <use xlink:href="#CMSS17-2e" transform="translate(46.843624 0) scale(0.996264)"/>
     <use xlink:href="#CMSS17-30" transform="translate(72.867828 0) scale(0.996264)"/>
     <use xlink:href="#CMSS17-30" transform="translate(119.711452 0) scale(0.996264)"/>
    </g>
   </g>
   <g id="text_40">
    <!-- 0.93 -->
    <g style="fill: #262626" transform="translate(67.164373 44.969916) scale(0.08 -0.08)">
     <defs>
      <path id="CMSS17-39" d="M 435 174 
C 614 21 845 -128 1235 -128 
C 2010 -128 2752 721 2752 2095 
C 2752 3932 1952 4229 1523 4229 
C 1094 4229 819 4041 582 3741 
C 301 3397 250 3090 250 2733 
C 250 2307 326 2045 506 1745 
C 749 1357 973 1275 1222 1275 
C 1600 1275 1978 1459 2234 1776 
C 2189 902 1798 267 1235 267 
C 1005 267 819 339 634 516 
L 435 174 
z
M 2214 2746 
C 2221 2703 2221 2622 2221 2596 
C 2221 2074 1914 1664 1466 1664 
C 1171 1664 1018 1813 902 2006 
C 762 2249 755 2485 755 2733 
C 755 2976 755 3244 934 3511 
C 1069 3703 1235 3840 1523 3840 
C 2112 3840 2208 3000 2214 2746 
z
" transform="scale(0.015625)"/>
      <path id="CMSS17-33" d="M 1005 2025 
L 1440 2025 
C 2042 2025 2214 1507 2214 1146 
C 2214 653 1933 267 1472 267 
C 1114 267 608 444 320 912 
C 275 691 275 678 250 526 
C 550 88 1037 -128 1485 -128 
C 2214 -128 2752 473 2752 1138 
C 2752 1638 2400 2057 1920 2215 
C 2304 2424 2586 2816 2586 3273 
C 2586 3805 2093 4229 1491 4229 
C 941 4229 512 3892 333 3530 
C 378 3468 493 3284 550 3189 
C 691 3562 1056 3840 1485 3840 
C 1843 3840 2080 3607 2080 3271 
C 2080 2923 1856 2543 1478 2455 
C 1453 2455 1056 2417 1005 2411 
L 1005 2025 
z
" transform="scale(0.015625)"/>
     </defs>
     <use xlink:href="#CMSS17-30" transform="scale(0.996264)"/>
     <use xlink:href="#CMSS17-2e" transform="translate(46.843624 0) scale(0.996264)"/>
     <use xlink:href="#CMSS17-39" transform="translate(72.867828 0) scale(0.996264)"/>
     <use xlink:href="#CMSS17-33" transform="translate(119.711452 0) scale(0.996264)"/>
    </g>
   </g>
   <g id="text_41">
    <!-- 0.78 -->
    <g style="fill: #262626" transform="translate(84.918994 78.228943) scale(0.08 -0.08)">
     <defs>
      <path id="CMSS17-37" d="M 1389 3776 
C 1466 3776 1542 3776 1619 3776 
L 2355 3776 
C 1440 2711 915 1365 915 -32 
L 1427 -32 
C 1427 1323 1875 2696 2752 3795 
L 2752 4209 
L 250 4209 
L 250 3776 
L 1389 3776 
z
" transform="scale(0.015625)"/>
      <path id="CMSS17-38" d="M 1933 2222 
C 2419 2380 2669 2760 2669 3134 
C 2669 3722 2157 4229 1504 4229 
C 826 4229 333 3708 333 3144 
C 333 2780 576 2403 1069 2241 
C 442 1997 250 1512 250 1149 
C 250 446 819 -128 1498 -128 
C 2202 -128 2752 455 2752 1138 
C 2752 1557 2502 2000 1933 2222 
z
M 1504 2432 
C 1075 2432 787 2712 787 3136 
C 787 3566 1075 3840 1504 3840 
C 1901 3840 2214 3591 2214 3136 
C 2214 2687 1907 2432 1504 2432 
z
M 1504 267 
C 1139 267 749 517 749 1156 
C 749 1813 1184 2043 1498 2043 
C 1843 2043 2253 1800 2253 1156 
C 2253 491 1830 267 1504 267 
z
" transform="scale(0.015625)"/>
     </defs>
     <use xlink:href="#CMSS17-30" transform="scale(0.996264)"/>
     <use xlink:href="#CMSS17-2e" transform="translate(46.843624 0) scale(0.996264)"/>
     <use xlink:href="#CMSS17-37" transform="translate(72.867828 0) scale(0.996264)"/>
     <use xlink:href="#CMSS17-38" transform="translate(119.711452 0) scale(0.996264)"/>
    </g>
   </g>
   <g id="text_42">
    <!-- 0.84 -->
    <g style="fill: #262626" transform="translate(102.673614 65.364602) scale(0.08 -0.08)">
     <defs>
      <path id="CMSS17-34" d="M 2253 1088 
L 2835 1088 
L 2835 1477 
L 2253 1477 
L 2253 4192 
L 1690 4192 
L 166 1477 
L 166 1088 
L 1747 1088 
L 1747 0 
L 2253 0 
L 2253 1088 
z
M 659 1477 
C 1030 2127 1766 3439 1766 3885 
L 1766 1477 
L 659 1477 
z
" transform="scale(0.015625)"/>
     </defs>
     <use xlink:href="#CMSS17-30" transform="scale(0.996264)"/>
     <use xlink:href="#CMSS17-2e" transform="translate(46.843624 0) scale(0.996264)"/>
     <use xlink:href="#CMSS17-38" transform="translate(72.867828 0) scale(0.996264)"/>
     <use xlink:href="#CMSS17-34" transform="translate(119.711452 0) scale(0.996264)"/>
    </g>
   </g>
   <g id="text_43">
    <!-- 0.84 -->
    <g style="fill: #262626" transform="translate(120.428234 65.992131) scale(0.08 -0.08)">
     <use xlink:href="#CMSS17-30" transform="scale(0.996264)"/>
     <use xlink:href="#CMSS17-2e" transform="translate(46.843624 0) scale(0.996264)"/>
     <use xlink:href="#CMSS17-38" transform="translate(72.867828 0) scale(0.996264)"/>
     <use xlink:href="#CMSS17-34" transform="translate(119.711452 0) scale(0.996264)"/>
    </g>
   </g>
   <g id="text_44">
    <!-- 0.70 -->
    <g style="fill: #262626" transform="translate(138.182854 96.479572) scale(0.08 -0.08)">
     <use xlink:href="#CMSS17-30" transform="scale(0.996264)"/>
     <use xlink:href="#CMSS17-2e" transform="translate(46.843624 0) scale(0.996264)"/>
     <use xlink:href="#CMSS17-37" transform="translate(72.867828 0) scale(0.996264)"/>
     <use xlink:href="#CMSS17-30" transform="translate(119.711452 0) scale(0.996264)"/>
    </g>
   </g>
   <g id="text_45">
    <!-- 0.77 -->
    <g style="fill: #262626" transform="translate(155.937474 80.006941) scale(0.08 -0.08)">
     <use xlink:href="#CMSS17-30" transform="scale(0.996264)"/>
     <use xlink:href="#CMSS17-2e" transform="translate(46.843624 0) scale(0.996264)"/>
     <use xlink:href="#CMSS17-37" transform="translate(72.867828 0) scale(0.996264)"/>
     <use xlink:href="#CMSS17-37" transform="translate(119.711452 0) scale(0.996264)"/>
    </g>
   </g>
   <g id="text_46">
    <!-- 0.81 -->
    <g style="fill: #262626" transform="translate(173.692094 72.215125) scale(0.08 -0.08)">
     <use xlink:href="#CMSS17-30" transform="scale(0.996264)"/>
     <use xlink:href="#CMSS17-2e" transform="translate(46.843624 0) scale(0.996264)"/>
     <use xlink:href="#CMSS17-38" transform="translate(72.867828 0) scale(0.996264)"/>
     <use xlink:href="#CMSS17-31" transform="translate(119.711452 0) scale(0.996264)"/>
    </g>
   </g>
   <g id="text_47">
    <!-- 0.75 -->
    <g style="fill: #262626" transform="translate(191.446715 85.079466) scale(0.08 -0.08)">
     <defs>
      <path id="CMSS17-35" d="M 934 3752 
L 2502 3752 
L 2502 4160 
L 467 4160 
L 467 1781 
L 896 1781 
C 1011 2046 1248 2240 1555 2240 
C 1843 2240 2163 1989 2163 1266 
C 2163 493 1709 267 1376 267 
C 966 267 589 512 422 851 
L 218 499 
C 512 49 992 -128 1376 -128 
C 2118 -128 2701 497 2701 1253 
C 2701 2030 2182 2629 1562 2629 
C 1338 2629 1120 2553 934 2399 
L 934 3752 
z
" transform="scale(0.015625)"/>
     </defs>
     <use xlink:href="#CMSS17-30" transform="scale(0.996264)"/>
     <use xlink:href="#CMSS17-2e" transform="translate(46.843624 0) scale(0.996264)"/>
     <use xlink:href="#CMSS17-37" transform="translate(72.867828 0) scale(0.996264)"/>
     <use xlink:href="#CMSS17-35" transform="translate(119.711452 0) scale(0.996264)"/>
    </g>
   </g>
   <g id="text_48">
    <!-- 0.79 -->
    <g style="fill: #262626" transform="translate(209.201335 76.241768) scale(0.08 -0.08)">
     <use xlink:href="#CMSS17-30" transform="scale(0.996264)"/>
     <use xlink:href="#CMSS17-2e" transform="translate(46.843624 0) scale(0.996264)"/>
     <use xlink:href="#CMSS17-37" transform="translate(72.867828 0) scale(0.996264)"/>
     <use xlink:href="#CMSS17-39" transform="translate(119.711452 0) scale(0.996264)"/>
    </g>
   </g>
   <g id="text_49">
    <!-- 0.57 -->
    <g style="fill: #262626" transform="translate(226.955955 123.306429) scale(0.08 -0.08)">
     <use xlink:href="#CMSS17-30" transform="scale(0.996264)"/>
     <use xlink:href="#CMSS17-2e" transform="translate(46.843624 0) scale(0.996264)"/>
     <use xlink:href="#CMSS17-35" transform="translate(72.867828 0) scale(0.996264)"/>
     <use xlink:href="#CMSS17-37" transform="translate(119.711452 0) scale(0.996264)"/>
    </g>
   </g>
   <g id="text_50">
    <!-- 0.74 -->
    <g style="fill: #262626" transform="translate(244.710575 87.118934) scale(0.08 -0.08)">
     <use xlink:href="#CMSS17-30" transform="scale(0.996264)"/>
     <use xlink:href="#CMSS17-2e" transform="translate(46.843624 0) scale(0.996264)"/>
     <use xlink:href="#CMSS17-37" transform="translate(72.867828 0) scale(0.996264)"/>
     <use xlink:href="#CMSS17-34" transform="translate(119.711452 0) scale(0.996264)"/>
    </g>
   </g>
   <g id="text_51">
    <!-- 0.62 -->
    <g style="fill: #262626" transform="translate(262.465195 111.82302) scale(0.08 -0.08)">
     <defs>
      <path id="CMSS17-36" d="M 2496 4101 
C 2227 4210 2035 4229 1856 4229 
C 1024 4229 250 3368 250 2006 
C 250 265 986 -128 1510 -128 
C 1798 -128 2086 -39 2362 280 
C 2643 617 2752 898 2752 1389 
C 2752 2179 2362 2880 1779 2880 
C 1357 2880 992 2657 768 2376 
C 832 3258 1254 3840 1862 3840 
C 2029 3840 2246 3816 2496 3710 
L 2496 4101 
z
M 774 1369 
C 774 1420 774 1452 781 1548 
C 781 2045 1069 2491 1536 2491 
C 1837 2491 1990 2332 2106 2135 
C 2240 1886 2246 1650 2246 1388 
C 2246 1140 2246 891 2099 637 
C 1978 439 1818 267 1510 267 
C 902 267 800 1114 774 1369 
z
" transform="scale(0.015625)"/>
      <path id="CMSS17-32" d="M 1651 1357 
C 1830 1541 2099 1764 2285 1987 
C 2464 2204 2701 2511 2701 2957 
C 2701 3657 2227 4288 1421 4288 
C 787 4288 422 3893 250 3274 
L 499 2929 
C 640 3510 838 3880 1338 3880 
C 1888 3880 2195 3433 2195 2942 
C 2195 2355 1747 1901 1408 1563 
C 1030 1187 659 804 301 408 
L 301 0 
L 2701 0 
L 2701 433 
L 1613 433 
C 1536 433 1459 433 1382 433 
L 742 433 
L 742 439 
L 1651 1357 
z
" transform="scale(0.015625)"/>
     </defs>
     <use xlink:href="#CMSS17-30" transform="scale(0.996264)"/>
     <use xlink:href="#CMSS17-2e" transform="translate(46.843624 0) scale(0.996264)"/>
     <use xlink:href="#CMSS17-36" transform="translate(72.867828 0) scale(0.996264)"/>
     <use xlink:href="#CMSS17-32" transform="translate(119.711452 0) scale(0.996264)"/>
    </g>
   </g>
   <g id="text_52">
    <!-- 0.49 -->
    <g style="fill: #262626" transform="translate(280.219815 141.400176) scale(0.08 -0.08)">
     <use xlink:href="#CMSS17-30" transform="scale(0.996264)"/>
     <use xlink:href="#CMSS17-2e" transform="translate(46.843624 0) scale(0.996264)"/>
     <use xlink:href="#CMSS17-34" transform="translate(72.867828 0) scale(0.996264)"/>
     <use xlink:href="#CMSS17-39" transform="translate(119.711452 0) scale(0.996264)"/>
    </g>
   </g>
   <g id="text_53">
    <!-- 0.64 -->
    <g style="fill: #262626" transform="translate(297.974435 108.032032) scale(0.08 -0.08)">
     <use xlink:href="#CMSS17-30" transform="scale(0.996264)"/>
     <use xlink:href="#CMSS17-2e" transform="translate(46.843624 0) scale(0.996264)"/>
     <use xlink:href="#CMSS17-36" transform="translate(72.867828 0) scale(0.996264)"/>
     <use xlink:href="#CMSS17-34" transform="translate(119.711452 0) scale(0.996264)"/>
    </g>
   </g>
   <g id="text_54">
    <!-- 0.53 -->
    <g style="fill: #262626" transform="translate(315.729056 133.001518) scale(0.08 -0.08)">
     <use xlink:href="#CMSS17-30" transform="scale(0.996264)"/>
     <use xlink:href="#CMSS17-2e" transform="translate(46.843624 0) scale(0.996264)"/>
     <use xlink:href="#CMSS17-35" transform="translate(72.867828 0) scale(0.996264)"/>
     <use xlink:href="#CMSS17-33" transform="translate(119.711452 0) scale(0.996264)"/>
    </g>
   </g>
   <g id="text_55">
    <!-- 0.60 -->
    <g style="fill: #262626" transform="translate(333.483676 117.752552) scale(0.08 -0.08)">
     <use xlink:href="#CMSS17-30" transform="scale(0.996264)"/>
     <use xlink:href="#CMSS17-2e" transform="translate(46.843624 0) scale(0.996264)"/>
     <use xlink:href="#CMSS17-36" transform="translate(72.867828 0) scale(0.996264)"/>
     <use xlink:href="#CMSS17-30" transform="translate(119.711452 0) scale(0.996264)"/>
    </g>
   </g>
   <g id="text_56">
    <!-- 0.55 -->
    <g style="fill: #262626" transform="translate(351.238296 128.163601) scale(0.08 -0.08)">
     <use xlink:href="#CMSS17-30" transform="scale(0.996264)"/>
     <use xlink:href="#CMSS17-2e" transform="translate(46.843624 0) scale(0.996264)"/>
     <use xlink:href="#CMSS17-35" transform="translate(72.867828 0) scale(0.996264)"/>
     <use xlink:href="#CMSS17-35" transform="translate(119.711452 0) scale(0.996264)"/>
    </g>
   </g>
   <g id="text_57">
    <!-- 0.60 -->
    <g style="fill: #262626" transform="translate(368.992916 117.292611) scale(0.08 -0.08)">
     <use xlink:href="#CMSS17-30" transform="scale(0.996264)"/>
     <use xlink:href="#CMSS17-2e" transform="translate(46.843624 0) scale(0.996264)"/>
     <use xlink:href="#CMSS17-36" transform="translate(72.867828 0) scale(0.996264)"/>
     <use xlink:href="#CMSS17-30" transform="translate(119.711452 0) scale(0.996264)"/>
    </g>
   </g>
   <g id="text_58">
    <!-- 0.50 -->
    <g style="fill: #262626" transform="translate(386.747536 137.724768) scale(0.08 -0.08)">
     <use xlink:href="#CMSS17-30" transform="scale(0.996264)"/>
     <use xlink:href="#CMSS17-2e" transform="translate(46.843624 0) scale(0.996264)"/>
     <use xlink:href="#CMSS17-35" transform="translate(72.867828 0) scale(0.996264)"/>
     <use xlink:href="#CMSS17-30" transform="translate(119.711452 0) scale(0.996264)"/>
    </g>
   </g>
   <g id="text_59">
    <!-- 0.50 -->
    <g style="fill: #262626" transform="translate(404.502156 138.073827) scale(0.08 -0.08)">
     <use xlink:href="#CMSS17-30" transform="scale(0.996264)"/>
     <use xlink:href="#CMSS17-2e" transform="translate(46.843624 0) scale(0.996264)"/>
     <use xlink:href="#CMSS17-35" transform="translate(72.867828 0) scale(0.996264)"/>
     <use xlink:href="#CMSS17-30" transform="translate(119.711452 0) scale(0.996264)"/>
    </g>
   </g>
   <g id="text_60">
    <!-- 0.40 -->
    <g style="fill: #262626" transform="translate(422.256777 159.334355) scale(0.08 -0.08)">
     <use xlink:href="#CMSS17-30" transform="scale(0.996264)"/>
     <use xlink:href="#CMSS17-2e" transform="translate(46.843624 0) scale(0.996264)"/>
     <use xlink:href="#CMSS17-34" transform="translate(72.867828 0) scale(0.996264)"/>
     <use xlink:href="#CMSS17-30" transform="translate(119.711452 0) scale(0.996264)"/>
    </g>
   </g>
   <g id="text_61">
    <!-- 0.60 -->
    <g style="fill: #262626" transform="translate(440.011397 118.162316) scale(0.08 -0.08)">
     <use xlink:href="#CMSS17-30" transform="scale(0.996264)"/>
     <use xlink:href="#CMSS17-2e" transform="translate(46.843624 0) scale(0.996264)"/>
     <use xlink:href="#CMSS17-36" transform="translate(72.867828 0) scale(0.996264)"/>
     <use xlink:href="#CMSS17-30" transform="translate(119.711452 0) scale(0.996264)"/>
    </g>
   </g>
   <g id="text_62">
    <!-- 0.50 -->
    <g style="fill: #262626" transform="translate(457.766017 139.530766) scale(0.08 -0.08)">
     <use xlink:href="#CMSS17-30" transform="scale(0.996264)"/>
     <use xlink:href="#CMSS17-2e" transform="translate(46.843624 0) scale(0.996264)"/>
     <use xlink:href="#CMSS17-35" transform="translate(72.867828 0) scale(0.996264)"/>
     <use xlink:href="#CMSS17-30" transform="translate(119.711452 0) scale(0.996264)"/>
    </g>
   </g>
   <g id="text_63">
    <!-- 0.44 -->
    <g style="fill: #262626" transform="translate(475.520637 152.178238) scale(0.08 -0.08)">
     <use xlink:href="#CMSS17-30" transform="scale(0.996264)"/>
     <use xlink:href="#CMSS17-2e" transform="translate(46.843624 0) scale(0.996264)"/>
     <use xlink:href="#CMSS17-34" transform="translate(72.867828 0) scale(0.996264)"/>
     <use xlink:href="#CMSS17-34" transform="translate(119.711452 0) scale(0.996264)"/>
    </g>
   </g>
   <g id="text_64">
    <!-- 0.39 -->
    <g style="fill: #262626" transform="translate(493.275257 161.691905) scale(0.08 -0.08)">
     <use xlink:href="#CMSS17-30" transform="scale(0.996264)"/>
     <use xlink:href="#CMSS17-2e" transform="translate(46.843624 0) scale(0.996264)"/>
     <use xlink:href="#CMSS17-33" transform="translate(72.867828 0) scale(0.996264)"/>
     <use xlink:href="#CMSS17-39" transform="translate(119.711452 0) scale(0.996264)"/>
    </g>
   </g>
   <g id="text_65">
    <!-- 0.55 -->
    <g style="fill: #262626" transform="translate(511.029877 127.026074) scale(0.08 -0.08)">
     <use xlink:href="#CMSS17-30" transform="scale(0.996264)"/>
     <use xlink:href="#CMSS17-2e" transform="translate(46.843624 0) scale(0.996264)"/>
     <use xlink:href="#CMSS17-35" transform="translate(72.867828 0) scale(0.996264)"/>
     <use xlink:href="#CMSS17-35" transform="translate(119.711452 0) scale(0.996264)"/>
    </g>
   </g>
   <g id="text_66">
    <!-- 0.24 -->
    <g style="fill: #262626" transform="translate(528.784498 193.90342) scale(0.08 -0.08)">
     <use xlink:href="#CMSS17-30" transform="scale(0.996264)"/>
     <use xlink:href="#CMSS17-2e" transform="translate(46.843624 0) scale(0.996264)"/>
     <use xlink:href="#CMSS17-32" transform="translate(72.867828 0) scale(0.996264)"/>
     <use xlink:href="#CMSS17-34" transform="translate(119.711452 0) scale(0.996264)"/>
    </g>
   </g>
   <g id="text_67">
    <!-- 0.23 -->
    <g style="fill: #262626" transform="translate(546.539118 196.574732) scale(0.08 -0.08)">
     <use xlink:href="#CMSS17-30" transform="scale(0.996264)"/>
     <use xlink:href="#CMSS17-2e" transform="translate(46.843624 0) scale(0.996264)"/>
     <use xlink:href="#CMSS17-32" transform="translate(72.867828 0) scale(0.996264)"/>
     <use xlink:href="#CMSS17-33" transform="translate(119.711452 0) scale(0.996264)"/>
    </g>
   </g>
   <g id="text_68">
    <!-- 0.36 -->
    <g style="fill: #262626" transform="translate(564.293738 169.640379) scale(0.08 -0.08)">
     <use xlink:href="#CMSS17-30" transform="scale(0.996264)"/>
     <use xlink:href="#CMSS17-2e" transform="translate(46.843624 0) scale(0.996264)"/>
     <use xlink:href="#CMSS17-33" transform="translate(72.867828 0) scale(0.996264)"/>
     <use xlink:href="#CMSS17-36" transform="translate(119.711452 0) scale(0.996264)"/>
    </g>
   </g>
   <g id="text_69">
    <!-- 0.21 -->
    <g style="fill: #262626" transform="translate(582.048358 200.961738) scale(0.08 -0.08)">
     <use xlink:href="#CMSS17-30" transform="scale(0.996264)"/>
     <use xlink:href="#CMSS17-2e" transform="translate(46.843624 0) scale(0.996264)"/>
     <use xlink:href="#CMSS17-32" transform="translate(72.867828 0) scale(0.996264)"/>
     <use xlink:href="#CMSS17-31" transform="translate(119.711452 0) scale(0.996264)"/>
    </g>
   </g>
   <g id="text_70">
    <!-- Kendall $\boldsymbol{\tau}$ Correlation of Language Rankings with All -->
    <g style="fill: #262626" transform="translate(193.814987 15.50218) scale(0.12 -0.12)">
     <defs>
      <path id="CMSS17-66" d="M 1075 2368 
L 1722 2368 
L 1722 2737 
L 1062 2737 
L 1062 3559 
C 1062 4014 1408 4092 1606 4092 
C 1670 4092 1850 4092 2080 4009 
L 2080 4429 
C 1933 4461 1754 4480 1613 4480 
C 1018 4480 602 3993 602 3359 
L 602 2737 
L 160 2737 
L 160 2368 
L 602 2368 
L 602 0 
L 1075 0 
L 1075 2368 
z
" transform="scale(0.015625)"/>
     </defs>
     <use xlink:href="#CMSS17-4b" transform="scale(0.996264)"/>
     <use xlink:href="#CMSS17-65" transform="translate(64.820294 0) scale(0.996264)"/>
     <use xlink:href="#CMSS17-6e" transform="translate(106.459116 0) scale(0.996264)"/>
     <use xlink:href="#CMSS17-64" transform="translate(154.664059 0) scale(0.996264)"/>
     <use xlink:href="#CMSS17-61" transform="translate(202.869002 0) scale(0.996264)"/>
     <use xlink:href="#CMSS17-6c" transform="translate(247.790923 0) scale(0.996264)"/>
     <use xlink:href="#CMSS17-6c" transform="translate(269.971646 0) scale(0.996264)"/>
     <use xlink:href="#CMMIB10-1c" transform="translate(323.381481 0) scale(0.996264)"/>
     <use xlink:href="#CMSS17-43" transform="translate(419.921039 0) scale(0.996264)"/>
     <use xlink:href="#CMSS17-6f" transform="translate(479.77681 0) scale(0.996264)"/>
     <use xlink:href="#CMSS17-72" transform="translate(524.01798 0) scale(0.996264)"/>
     <use xlink:href="#CMSS17-72" transform="translate(555.927753 0) scale(0.996264)"/>
     <use xlink:href="#CMSS17-65" transform="translate(587.837525 0) scale(0.996264)"/>
     <use xlink:href="#CMSS17-6c" transform="translate(629.476347 0) scale(0.996264)"/>
     <use xlink:href="#CMSS17-61" transform="translate(651.65707 0) scale(0.996264)"/>
     <use xlink:href="#CMSS17-74" transform="translate(696.578991 0) scale(0.996264)"/>
     <use xlink:href="#CMSS17-69" transform="translate(730.410558 0) scale(0.996264)"/>
     <use xlink:href="#CMSS17-6f" transform="translate(752.591281 0) scale(0.996264)"/>
     <use xlink:href="#CMSS17-6e" transform="translate(799.434904 0) scale(0.996264)"/>
     <use xlink:href="#CMSS17-6f" transform="translate(878.86896 0) scale(0.996264)"/>
     <use xlink:href="#CMSS17-66" transform="translate(925.712584 0) scale(0.996264)"/>
     <use xlink:href="#CMSS17-4c" transform="translate(985.568355 0) scale(0.996264)"/>
     <use xlink:href="#CMSS17-61" transform="translate(1036.25546 0) scale(0.996264)"/>
     <use xlink:href="#CMSS17-6e" transform="translate(1081.177381 0) scale(0.996264)"/>
     <use xlink:href="#CMSS17-67" transform="translate(1129.382324 0) scale(0.996264)"/>
     <use xlink:href="#CMSS17-75" transform="translate(1176.225948 0) scale(0.996264)"/>
     <use xlink:href="#CMSS17-61" transform="translate(1224.430891 0) scale(0.996264)"/>
     <use xlink:href="#CMSS17-67" transform="translate(1269.352811 0) scale(0.996264)"/>
     <use xlink:href="#CMSS17-65" transform="translate(1316.196435 0) scale(0.996264)"/>
     <use xlink:href="#CMSS17-52" transform="translate(1389.06437 0) scale(0.996264)"/>
     <use xlink:href="#CMSS17-61" transform="translate(1449.480525 0) scale(0.996264)"/>
     <use xlink:href="#CMSS17-6e" transform="translate(1494.402445 0) scale(0.996264)"/>
     <use xlink:href="#CMSS17-6b" transform="translate(1542.607388 0) scale(0.996264)"/>
     <use xlink:href="#CMSS17-69" transform="translate(1588.209878 0) scale(0.996264)"/>
     <use xlink:href="#CMSS17-6e" transform="translate(1610.390601 0) scale(0.996264)"/>
     <use xlink:href="#CMSS17-67" transform="translate(1658.595544 0) scale(0.996264)"/>
     <use xlink:href="#CMSS17-73" transform="translate(1705.439167 0) scale(0.996264)"/>
     <use xlink:href="#CMSS17-77" transform="translate(1772.581822 0) scale(0.996264)"/>
     <use xlink:href="#CMSS17-69" transform="translate(1836.401367 0) scale(0.996264)"/>
     <use xlink:href="#CMSS17-74" transform="translate(1858.58209 0) scale(0.996264)"/>
     <use xlink:href="#CMSS17-68" transform="translate(1892.413657 0) scale(0.996264)"/>
     <use xlink:href="#CMSS17-41" transform="translate(1971.847713 0) scale(0.996264)"/>
     <use xlink:href="#CMSS17-6c" transform="translate(2034.065568 0) scale(0.996264)"/>
     <use xlink:href="#CMSS17-6c" transform="translate(2056.246291 0) scale(0.996264)"/>
    </g>
   </g>
  </g>
 </g>
 <defs>
  <clipPath id="p561e1882d7">
   <rect x="46.284417" y="21.50218" width="553.944149" height="230.980804"/>
  </clipPath>
 </defs>
</svg>
